<?xml version="1.0" encoding="utf-8"?>
<!-- Generator: Adobe Illustrator 28.2.0, SVG Export Plug-In . SVG Version: 6.00 Build 0)  -->
<svg version="1.1" id="Layer_1" xmlns="http://www.w3.org/2000/svg" xmlns:xlink="http://www.w3.org/1999/xlink" x="0px" y="0px"
	 viewBox="0 0 108 72" style="enable-background:new 0 0 108 72;" xml:space="preserve">
<style type="text/css">
	
		.st0{clip-path:url(#SVGID_00000124158325664227332050000001203770752434901932_);fill-rule:evenodd;clip-rule:evenodd;fill:#2A7CC9;}
	.st1{clip-path:url(#SVGID_00000008109170540286053990000007785793127902251691_);}
	.st2{fill-rule:evenodd;clip-rule:evenodd;fill:#13ABDB;}
	.st3{fill-rule:evenodd;clip-rule:evenodd;fill:#0071AE;}
	.st4{clip-path:url(#SVGID_00000068665052211724515410000012062444169610550431_);}
	.st5{fill:#000048;}
	.st6{fill-rule:evenodd;clip-rule:evenodd;fill:url(#SVGID_00000119080226017292887240000013069510573718183079_);}
	.st7{fill-rule:evenodd;clip-rule:evenodd;fill:url(#SVGID_00000062158192578614765090000002360443397403683230_);}
	.st8{fill-rule:evenodd;clip-rule:evenodd;fill:url(#SVGID_00000039108382793468157470000007795099358934860194_);}
	.st9{fill-rule:evenodd;clip-rule:evenodd;fill:url(#SVGID_00000180344333584016124750000007214169300989186748_);}
	.st10{clip-path:url(#SVGID_00000168823108607617052570000015140601944627599271_);fill:#0033A1;}
	.st11{clip-path:url(#SVGID_00000163039719479429347160000012194262126002618505_);}
	.st12{fill:#FFFFFF;}
	.st13{fill:#645FAA;}
	.st14{fill:#C9234A;}
	.st15{fill:#0089CF;}
	.st16{fill:#F36F21;}
	.st17{fill:#0DB14B;}
	.st18{fill:#FDB913;}
	.st19{clip-path:url(#SVGID_00000062180171377107808110000004359566490503622276_);}
	.st20{fill:#000096;}
	.st21{fill-rule:evenodd;clip-rule:evenodd;fill:#000096;}
	.st22{clip-path:url(#SVGID_00000113351563619321628680000005684393964139367310_);}
	.st23{fill-rule:evenodd;clip-rule:evenodd;fill:#D52E94;}
	.st24{fill-rule:evenodd;clip-rule:evenodd;fill:#F8421E;}
	.st25{fill-rule:evenodd;clip-rule:evenodd;fill:#DFD6AB;}
	.st26{fill-rule:evenodd;clip-rule:evenodd;fill:#0C7CC4;}
	.st27{fill-rule:evenodd;clip-rule:evenodd;fill:#64A9DA;}
</style>
<g>
	<defs>
		<rect id="SVGID_00000086680386639511362760000011259390456400289165_" x="0" y="0" width="108" height="72"/>
	</defs>
	<clipPath id="SVGID_00000053539003702954047550000007719179604293065892_">
		<use xlink:href="#SVGID_00000086680386639511362760000011259390456400289165_"  style="overflow:visible;"/>
	</clipPath>
	<g style="clip-path:url(#SVGID_00000053539003702954047550000007719179604293065892_);">
		<path class="st2" d="M100.5,38.2c2.2,0,3.9-1.8,3.9-3.9c-0.2-0.9-0.5-2.7-2.9-2.7c-2.6,0-3.5,3.7-5.7,6.1
			c-0.2,1.4-1.5,2.6-3.1,2.8c0.4,0.4,1.3,0.6,2.3,0.6c1.9,0,4.2-0.6,5.4-1.8c-1.6,0-2.7-1-2.8-2.5C98.6,37.9,99.5,38.2,100.5,38.2"
			/>
		<path class="st3" d="M83.5,32.3c0-1.2-0.1-2-0.8-2c-0.4,0-0.5,0.1-0.8,0.2c0.3,4-0.6,7.5-1.7,7.5c-1.4,0-0.7-8.5-3.8-8.5
			c-2.8,0-3.2,6.8-3.5,6.8c-0.2,0-0.3-1.8-0.2-3.1c0.1-0.7,0.2-1.2,0.2-1.7c0-0.6-0.3-1.7-1.7-1.2c0.1,4.9-0.9,7.8-2,7.8
			c-1.6,0-1.6-4.4-1.6-5.6c0-1.2,0.1-2.8-1.7-2.2c-0.3,4.2-1.4,7.4-2.1,7.4c-1,0-0.8-7.3-3.1-7.3c-2,0-2.7,6.9-3.1,6.9
			c-0.8,0,0.2-7.8-2.7-7.8c-1.5,0-2.2,2.6-2.8,5.5c-0.1,0.6-0.2,0.6-0.3-0.1c0-0.5,0-1.1,0-1.6c0.7-2.9-0.2-4-1.5-3.2
			c0.4,5.4-2,8.1-4,8.1c-0.7,0-1.2-0.3-1.6-0.8c2.3-1.4,3.3-3,3.3-4.6c0-1.7-1-2.7-2.6-2.7c-2.3,0-3.5,2.3-3.5,4.3
			c0,1.1,0.2,2,0.5,2.7c-0.8,0.4-1.5,0.7-2.2,1c-0.1-2-0.3-4.2-0.5-6.2c-1.2-0.3-1.6,0.2-1.7,1.3c-0.2,2.5-1.1,4-1.9,4
			c-0.6,0-1-0.7-1-1.5c-0.2-3.9,3-5,4.6-4.5c0.3-0.9,0-1.5-1.5-1.5c-1.8,0-3.2,1.1-4.2,2.5c-0.7,0.9-1.4,1.6-2.5,2.4
			c0-0.2,0-0.5,0-0.7c0-2.8-1.5-4-2.9-4c-1.2,0-1.9,0.7-2.4,1.8c-0.1-1.1-0.3-1.6-1-1.6c-0.3,0-0.7,0.1-1.1,0.3
			c0.2,0.6,0.3,2,0.3,2.9c0,3.3-1,4.8-1.9,4.8c-1.1,0-1.2-4-1.3-5.5c-0.2-0.1-0.3-0.1-0.5-0.1c-0.9,0-1.1,1.3-1.3,2.5
			c-0.3,1.3-1,2.9-2.1,2.9c-0.7,0-1.1-0.6-1.1-1.8c-0.1-2.4,1.9-5.2,4.9-4.3c0.4-0.9-0.2-1.7-1.5-1.7c-2.2,0-4.1,1.7-4.9,3.7
			c-0.8,1.8-2.3,4.5-5.2,4.5c-2.1,0-3.6-1.8-3.6-5.6c0-3.3,2.1-6.4,4.2-6.4c1.5,0,1.9,1.5,1.8,2.9c0.8,0.6,2.1,0,2.1-1.5
			c0-1.1-0.9-3-3.8-3c-3.6,0-6.7,3.6-6.7,8.2c0,4.5,2.3,7.2,5.5,7.2c2,0,4-1.2,5.3-3.3c0.3,1.9,1.6,2.7,2.6,2.7c1.6,0,2.6-1,3.1-2.4
			c0.3,1.4,1.1,2.4,2.3,2.4c0.9,0,1.5-0.4,2-1.1c-0.2,4.8-0.5,7.8,2.4,7.2c-0.4-1.4-0.6-3.8-0.6-6c0-6.1,1-8,2.3-8
			c0.9,0,1.2,1.2,1.2,2.4c0,0.7-0.1,1.4-0.2,2.1c-1.5,1-2.8,1.7-2.8,2.7c0,0.8,0.6,0.8,1.1,0.8c1.2,0,2.6-1.2,3.4-3.3
			c0.7-0.4,1.4-0.9,2-1.5c0,0.2,0,0.4,0,0.7c0,2.2,1,3.5,2.5,3.5c1.2,0,2.1-0.8,2.7-2.1c0,0.7,0.1,1.4,0.1,2
			c-2.4,1.1-5.1,2.2-5.1,5.4c0,1.6,1.2,2.9,2.7,2.9c3.4,0,4.1-3.5,4.2-7.7c1.1-0.5,1.9-0.8,2.8-1.3c0.8,1,1.9,1.5,2.9,1.5
			c1.9,0,3.3-1,4.5-3c0.2,1.5,0.6,3,1.4,3c1.5,0,1.8-7.9,2.9-7.9c0.9,0,0.2,8.5,2.4,8.5c1.9,0,2.3-7.5,3.2-7.5
			c0.7,0,0.7,6.8,2.8,6.8c1,0,2.2-1.2,2.7-3.9c0.3,1.7,1.1,3.9,2.9,3.9c1,0,1.9-1,2.5-2.4c0.2,1.4,0.6,2.4,1.3,2.4
			c2,0,1.9-7.8,3.5-7.8c1.2,0,0.8,7.8,3.7,7.8c1.4,0,2-1.2,2.4-2.6c0.5,2.2,1.4,2.6,2.1,2.6c0.4,0,0.8-0.2,1.2-0.7
			C83.3,38.1,83.5,34.6,83.5,32.3 M36.2,45.8c-0.7,0-1.1-0.7-1.1-1.4c0-2,1.5-3.1,3.3-4C38.3,44.8,37.3,45.8,36.2,45.8 M45.2,31.5
			c0.7,0,1.1,0.6,1,1.5c-0.1,1-0.8,2.3-2.2,3.2C43.3,34.3,43.9,31.5,45.2,31.5 M66.6,28.6c0.6,0,1.1-0.6,1.1-1.2s-0.4-1.2-1.1-1.2
			c-0.6,0-1.2,0.6-1.2,1.2C65.5,28.1,66,28.6,66.6,28.6 M82.7,28.9c0.6,0,1.1-0.5,1.1-1.2c0-0.6-0.5-1.1-1.1-1.1s-1.1,0.5-1.1,1.2
			C81.6,28.4,82.1,28.9,82.7,28.9 M104.5,34.1c0-2.5-1.2-4.6-3.1-6.3c-1.4-1.3-3-2.2-4.8-2.9c-0.1-0.1-0.3-0.1-0.4-0.2l0,0
			c-2.1,2.5-9.5,4.4-9.5,9.8c0,2.1,1.3,4,3.2,4.8c1.1,0.4,2.2,0.4,3.4,0.1c1-0.3,1.8-0.9,2.5-1.7c2.2-2.4,3-6.1,5.7-6.1
			c2.4,0,2.7,1.7,2.9,2.7C104.5,34.3,104.5,34.2,104.5,34.1"/>
	</g>
</g>
</svg>
