<?xml version="1.0" encoding="utf-8"?>
<!-- Generator: Adobe Illustrator 28.2.0, SVG Export Plug-In . SVG Version: 6.00 Build 0)  -->
<svg version="1.1" id="Layer_1" xmlns="http://www.w3.org/2000/svg" xmlns:xlink="http://www.w3.org/1999/xlink" x="0px" y="0px"
	 viewBox="0 0 108 72" style="enable-background:new 0 0 108 72;" xml:space="preserve">
<style type="text/css">
	
		.st0{clip-path:url(#SVGID_00000177442668797869603860000016901634023530891711_);fill-rule:evenodd;clip-rule:evenodd;fill:#2A7CC9;}
	.st1{clip-path:url(#SVGID_00000160906308916613991120000011947583478649875890_);}
	.st2{fill-rule:evenodd;clip-rule:evenodd;fill:#13ABDB;}
	.st3{fill-rule:evenodd;clip-rule:evenodd;fill:#0071AE;}
	.st4{clip-path:url(#SVGID_00000178906646389188824300000013464873767548686723_);}
	.st5{fill:#000048;}
	.st6{fill-rule:evenodd;clip-rule:evenodd;fill:url(#SVGID_00000035520729092800371560000007628438960856691378_);}
	.st7{fill-rule:evenodd;clip-rule:evenodd;fill:url(#SVGID_00000069360812534154427290000002812572617228335519_);}
	.st8{fill-rule:evenodd;clip-rule:evenodd;fill:url(#SVGID_00000109010324345911635870000002668982339399457446_);}
	.st9{fill-rule:evenodd;clip-rule:evenodd;fill:url(#SVGID_00000058570532687257757370000004183592108544304803_);}
	.st10{clip-path:url(#SVGID_00000152230560421538081390000000450089758242174087_);fill:#0033A1;}
	.st11{clip-path:url(#SVGID_00000071532875098193109520000006083209311519638694_);}
	.st12{fill:#FFFFFF;}
	.st13{fill:#645FAA;}
	.st14{fill:#C9234A;}
	.st15{fill:#0089CF;}
	.st16{fill:#F36F21;}
	.st17{fill:#0DB14B;}
	.st18{fill:#FDB913;}
	.st19{clip-path:url(#SVGID_00000044178689703091565820000001995938818819270810_);}
	.st20{fill:#000096;}
	.st21{fill-rule:evenodd;clip-rule:evenodd;fill:#000096;}
	.st22{clip-path:url(#SVGID_00000039825012810724081550000014792101098949852090_);}
	.st23{fill-rule:evenodd;clip-rule:evenodd;fill:#D52E94;}
	.st24{fill-rule:evenodd;clip-rule:evenodd;fill:#F8421E;}
	.st25{fill-rule:evenodd;clip-rule:evenodd;fill:#DFD6AB;}
	.st26{fill-rule:evenodd;clip-rule:evenodd;fill:#0C7CC4;}
	.st27{fill-rule:evenodd;clip-rule:evenodd;fill:#64A9DA;}
</style>
<g>
	<defs>
		<rect id="SVGID_1_" width="108" height="72"/>
	</defs>
	<clipPath id="SVGID_00000065758129270649003310000001021317238777092542_">
		<use xlink:href="#SVGID_1_"  style="overflow:visible;"/>
	</clipPath>
	
		<path style="clip-path:url(#SVGID_00000065758129270649003310000001021317238777092542_);fill-rule:evenodd;clip-rule:evenodd;fill:#2A7CC9;" d="
		M103.8,16.7c-1.7,0-3.1,1.4-3.1,3.1c0,1.8,1.4,3.2,3.1,3.2c1.8,0,3.2-1.4,3.2-3.2C107,18.1,105.6,16.7,103.8,16.7z M103.8,17.1
		c1.5,0,2.7,1.2,2.7,2.7c0,1.5-1.2,2.7-2.7,2.7c-1.5,0-2.7-1.2-2.7-2.7C101.2,18.3,102.4,17.1,103.8,17.1
		C103.8,17.1,103.8,17.1,103.8,17.1z M37.8,17.4c-3.9,0-6.8,2.6-7.2,7.2h-3v2.3h3v21.8H34V26.8h7.6c-2.8,2.3-4.6,6-4.6,10.2
		c0,6.9,5,12.5,11.2,12.6c0,0,0.1,0,0.1,0c6.2,0,11.2-5.6,11.2-12.6c0-0.8-0.1-1.6-0.2-2.4c1.1,1.8,3.3,2.7,6.1,3.9
		c3.4,1.4,5.3,2.7,5.3,4.8c0,2.6-2.4,3.9-5.1,3.9c-2.7,0-4.8-1.1-7.1-3.2v4c1.4,0.9,3.6,1.4,6,1.4c1.8,0,4.8-0.4,6.9-2.2
		c1.3-1.1,2.2-2.7,2.2-5.2c0-2-0.9-3.4-2.2-4.4c-1.2-0.9-2.7-1.7-4.3-2.3c-4.1-2-5.7-2.5-5.6-4.8c0-3.1,2.7-4,4.8-4
		c0.9,0,1.7,0.1,2.4,0.4c1.4,0.5,1.8,1.5,2.3,2.6c0.2,0.3,0.3,0.6,0.3,0.7c0,0,0,0.1,0.1,0.1c0,0.1,0,0.1,0,0l6.4,15.4
		c-1.1,2.5-2.3,5-3.1,6.7l0,0c-0.1,0.2-0.2,0.5-0.3,0.7c-0.1,0.2-0.2,0.4-0.3,0.6l-0.8,1.5h3.3c1.5-3.2,7.6-18.2,8.9-21.4
		c0.9,2.3,3,3.3,6.2,4.7c3.4,1.4,5.3,2.7,5.3,4.8c0,2.6-2.4,3.9-5.2,3.9c-2.8,0-4.9-1.2-7.3-3.4l-0.2-0.2v4.1
		c1.4,1.1,3.8,1.8,6.5,1.8c3,0,9.1-1.1,9.1-7.3c0-3.7-3.1-5.4-6.5-6.8c-4.1-2-5.5-2.4-5.4-4.8c0-3.1,2.5-4,4.6-4
		c2.4,0,3.9,0.9,6,2.4v-3.6c-1.7-0.6-3.2-0.8-5.1-0.8c-3.9,0-7.4,1.4-8.3,4.7l-4.8,11.9l-0.5,1.5l-0.4-1.5l-6.5-15.8
		c-0.4-0.1-1-0.3-1.6-0.4c-1.2-0.3-2.6-0.5-3.7-0.4c-0.2,0-0.3,0-0.5,0c-4.5,0-8.8,1.9-8.8,6.4c0,0.3,0,0.5,0,0.8
		c-1.8-4.3-5.7-7.2-10.2-7.2h-0.1c-0.5,0-1,0.1-1.5,0.1H33.9c-0.5-3.2,1-5,3.2-5c2.8,0,4,0.9,5.3,2h0.1c0,0,0-0.1,0-0.4V18
		C41.8,17.7,40.4,17.4,37.8,17.4L37.8,17.4z M2.3,17.5v31.2H6V17.5H2.3z M102.7,18.1v3.3h0.6v-1.4h0.7l0.5,1.4h0.7l-0.6-1.4
		c0.2-0.1,0.6-0.2,0.6-0.8c0-0.9-0.7-1.1-1.3-1.1L102.7,18.1z M103.3,18.7h0.7c0.4,0,0.6,0.1,0.6,0.4c0,0.3-0.2,0.4-0.5,0.4h-0.7
		L103.3,18.7z M20.5,24.5c-4.1,0-5.8,1.5-7.2,3c-0.1,0.1-0.1,0.2-0.2,0.3h-0.1l0-2.9H9.7v23.8h3.4V31.2c0.1-2.1,3.1-4.3,5.5-4.3
		c2.8,0,5.1,1.9,5.1,4.5v17.1h3.4V29.9C27,27.8,24.4,24.5,20.5,24.5L20.5,24.5z M47.9,26.9h0.2c4.2,0,7.6,4.5,7.7,10.1
		c0.1,5.7-3.2,10.3-7.5,10.4h-0.2c-4.2,0-7.6-4.5-7.7-10.1C40.3,31.6,43.7,27,47.9,26.9L47.9,26.9z"/>
</g>
</svg>
