<?xml version="1.0" encoding="utf-8"?>
<!-- Generator: Adobe Illustrator 28.2.0, SVG Export Plug-In . SVG Version: 6.00 Build 0)  -->
<svg version="1.1" id="Layer_1" xmlns="http://www.w3.org/2000/svg" xmlns:xlink="http://www.w3.org/1999/xlink" x="0px" y="0px"
	 viewBox="0 0 108 72" style="enable-background:new 0 0 108 72;" xml:space="preserve">
<style type="text/css">
	
		.st0{clip-path:url(#SVGID_00000117645528160127318210000002775686728286773431_);fill-rule:evenodd;clip-rule:evenodd;fill:#2A7CC9;}
	.st1{clip-path:url(#SVGID_00000174574545668310769790000018228061864195710899_);}
	.st2{fill-rule:evenodd;clip-rule:evenodd;fill:#13ABDB;}
	.st3{fill-rule:evenodd;clip-rule:evenodd;fill:#0071AE;}
	.st4{clip-path:url(#SVGID_00000037680484474436638580000003584722581369625522_);}
	.st5{fill:#000048;}
	.st6{fill-rule:evenodd;clip-rule:evenodd;fill:url(#SVGID_00000084521846914111808050000009931918650570954632_);}
	.st7{fill-rule:evenodd;clip-rule:evenodd;fill:url(#SVGID_00000135676660942969522910000005035140490919198139_);}
	.st8{fill-rule:evenodd;clip-rule:evenodd;fill:url(#SVGID_00000035524909496401699440000011098530049013921693_);}
	.st9{fill-rule:evenodd;clip-rule:evenodd;fill:url(#SVGID_00000078025616747393957520000006179961029269828792_);}
	.st10{clip-path:url(#SVGID_00000017485567814906499670000013433810308493080459_);fill:#0033A1;}
	.st11{clip-path:url(#SVGID_00000018951570874363246040000004824134818119746740_);}
	.st12{fill:#FFFFFF;}
	.st13{fill:#645FAA;}
	.st14{fill:#C9234A;}
	.st15{fill:#0089CF;}
	.st16{fill:#F36F21;}
	.st17{fill:#0DB14B;}
	.st18{fill:#FDB913;}
	.st19{clip-path:url(#SVGID_00000140727731391353498660000017970424996454469005_);}
	.st20{fill:#000096;}
	.st21{fill-rule:evenodd;clip-rule:evenodd;fill:#000096;}
	.st22{clip-path:url(#SVGID_00000114051675457299148820000013907133670918239635_);}
	.st23{fill-rule:evenodd;clip-rule:evenodd;fill:#D52E94;}
	.st24{fill-rule:evenodd;clip-rule:evenodd;fill:#F8421E;}
	.st25{fill-rule:evenodd;clip-rule:evenodd;fill:#DFD6AB;}
	.st26{fill-rule:evenodd;clip-rule:evenodd;fill:#0C7CC4;}
	.st27{fill-rule:evenodd;clip-rule:evenodd;fill:#64A9DA;}
</style>
<g>
	<defs>
		<rect id="SVGID_00000049212283270588891170000011069833827764884404_" width="108" height="72"/>
	</defs>
	<clipPath id="SVGID_00000145755166296506211730000001619387070279379603_">
		<use xlink:href="#SVGID_00000049212283270588891170000011069833827764884404_"  style="overflow:visible;"/>
	</clipPath>
	<path style="clip-path:url(#SVGID_00000145755166296506211730000001619387070279379603_);fill:#0033A1;" d="M61.7,38.5l6.1-6h-6.1
		v-2.8h10.4v2.9l-6.1,6h6.3v2.8H61.7L61.7,38.5z M57.3,25.9h3.2v2.9h-3.2V25.9z M57.2,29.7h3.2v11.6h-3.2V29.7z M18.5,35.5
		c0-3.3,2.7-6,6.1-6c3.3,0,6,2.7,6,6c0,3.3-2.7,6-6.1,6c-1.6,0-3.2-0.6-4.3-1.8C19.1,38.7,18.5,37.1,18.5,35.5L18.5,35.5z
		 M27.5,35.5c0-1.7-1.3-3-2.9-3c-1.7,0-2.9,1.4-2.9,3c0,1.7,1.3,3,2.9,3C26.2,38.5,27.5,37.2,27.5,35.5L27.5,35.5z M45.1,29.7h3.2
		V31c0.7-1,1.9-1.5,3.2-1.5c2.8,0,4.4,1.8,4.4,4.8v7.1h-3.2v-6.7c0-1.6-0.7-2.5-2.1-2.5c-1.2,0-2.2,0.8-2.2,2.8v6.4h-3.2L45.1,29.7z
		 M72.4,35.5c0-4.1,3-6.1,5.7-6.1c1.5,0,2.7,0.6,3.5,1.4v-1.1h3.2v11.6h-3.2V40c-0.8,0.9-2,1.5-3.5,1.5
		C75.6,41.6,72.4,39.6,72.4,35.5L72.4,35.5z M81.6,35.5c0-1.7-1.3-3.1-3-3.1c-1.8,0-3.1,1.3-3.1,3.1c0,1.8,1.4,3.1,3.1,3.1
		C80.4,38.6,81.7,37.2,81.6,35.5L81.6,35.5z M86.1,29.7h3.2V31c0.7-1,1.9-1.5,3.2-1.5c2.8,0,4.4,1.8,4.4,4.8v7.1h-3.2v-6.7
		c0-1.6-0.7-2.5-2.1-2.5c-1.2,0-2.2,0.8-2.2,2.8v6.4h-3.2L86.1,29.7z M61.7,41.3v-2.8l6.1-6h-6.1v-2.8h10.4v2.9l-6.1,6 M15.1,35.4
		L15.1,35.4c-0.9,1.9-2.6,3-4.5,3c-2.8,0-5-2.2-5-5.1c0-2.9,2.2-5.1,5.1-5.1c1.9,0,3.3,0.9,4.3,2.6L15,31l2.8-1.8l0-0.1
		c-1.5-2.5-4.1-4-7.1-4c-4.8,0-8.3,3.6-8.3,8.3c0,4.8,3.5,8.3,8.3,8.3c3.1,0,5.9-1.7,7.4-4.6l0-0.1L15.1,35.4z M31.4,35.5
		c0-4.1,3-6.1,5.7-6.1c1.5,0,2.7,0.6,3.5,1.5v-1.3h3.2V41c0,3.3-2.1,5.9-6,5.9c-3,0-5.1-1.5-6.1-3.4l2.8-1.6c0.6,1.2,1.7,2,3.2,2
		c1.7,0,2.8-1.4,2.8-2.9V40c-0.8,0.9-2,1.5-3.5,1.5C34.6,41.6,31.4,39.6,31.4,35.5L31.4,35.5z M40.7,35.5c0-1.7-1.3-3.1-3-3.1
		c-1.8,0-3.1,1.3-3.1,3.1c0,1.8,1.4,3.1,3.1,3.1C39.4,38.6,40.7,37.2,40.7,35.5z M104.8,32.6v-2.9h-2.2v-3.8h-3.2v3.8h-2v2.9h2v3.7
		c0,3.8,1.2,5.1,4.9,5.1h0.5v-3c-2,0-2.2-0.3-2.2-2.1v-3.7L104.8,32.6z M105.4,27.2c-0.3,0.3-0.8,0.3-1.2,0c0,0,0,0,0,0
		c-0.2-0.2-0.2-0.4-0.2-0.6c0-0.4,0.3-0.7,0.6-0.8c0.4-0.1,0.7,0.1,0.9,0.4C105.7,26.6,105.7,27,105.4,27.2L105.4,27.2z M104.4,26.2
		c-0.1,0.1-0.2,0.3-0.2,0.5c0,0.2,0.1,0.4,0.2,0.5c0.3,0.3,0.7,0.3,1,0c0,0,0,0,0,0c0.1-0.1,0.2-0.3,0.2-0.5c0-0.3-0.2-0.5-0.4-0.7
		C104.9,25.9,104.6,26,104.4,26.2L104.4,26.2z M104.8,26.2c0.1,0,0.2,0,0.2,0c0.1,0,0.1,0.1,0.1,0.2c0,0.1,0,0.1-0.1,0.2
		c0,0-0.1,0-0.1,0c0.1,0,0.1,0,0.2,0.1c0,0,0,0.1,0,0.1V27c0,0,0,0,0,0l0,0h-0.1c0,0,0,0,0,0V27c0-0.1,0-0.2-0.1-0.2
		c-0.1,0-0.1,0-0.2,0h-0.1v0.4h-0.2v-0.9H104.8z M105,26.4c-0.1,0-0.1,0-0.2,0h-0.1v0.3h0.1c0.1,0,0.1,0,0.2,0
		C105.1,26.6,105.1,26.5,105,26.4C105,26.4,105,26.4,105,26.4z"/>
</g>
</svg>
