<?xml version="1.0" encoding="utf-8"?>
<!-- Generator: Adobe Illustrator 28.2.0, SVG Export Plug-In . SVG Version: 6.00 Build 0)  -->
<svg version="1.1" id="Layer_1" xmlns="http://www.w3.org/2000/svg" xmlns:xlink="http://www.w3.org/1999/xlink" x="0px" y="0px"
	 viewBox="0 0 108 72" style="enable-background:new 0 0 108 72;" xml:space="preserve">
<style type="text/css">
	
		.st0{clip-path:url(#SVGID_00000018221352511403217950000006298198015065138317_);fill-rule:evenodd;clip-rule:evenodd;fill:#2A7CC9;}
	.st1{clip-path:url(#SVGID_00000070077377246858160060000012514612268452994953_);}
	.st2{fill-rule:evenodd;clip-rule:evenodd;fill:#13ABDB;}
	.st3{fill-rule:evenodd;clip-rule:evenodd;fill:#0071AE;}
	.st4{clip-path:url(#SVGID_00000075159302868443356540000014523670266521262723_);}
	.st5{fill:#000048;}
	.st6{fill-rule:evenodd;clip-rule:evenodd;fill:url(#SVGID_00000129199852539857300150000003923513956817017220_);}
	.st7{fill-rule:evenodd;clip-rule:evenodd;fill:url(#SVGID_00000071522313420752750090000001106068251583968952_);}
	.st8{fill-rule:evenodd;clip-rule:evenodd;fill:url(#SVGID_00000163059678386902146030000009448229125036789126_);}
	.st9{fill-rule:evenodd;clip-rule:evenodd;fill:url(#SVGID_00000055673592495445074170000011846822158291416763_);}
	.st10{clip-path:url(#SVGID_00000145753033497314677530000016902844106133215649_);fill:#0033A1;}
	.st11{clip-path:url(#SVGID_00000147912419668854538940000008117845736052732589_);}
	.st12{fill:#FFFFFF;}
	.st13{fill:#645FAA;}
	.st14{fill:#C9234A;}
	.st15{fill:#0089CF;}
	.st16{fill:#F36F21;}
	.st17{fill:#0DB14B;}
	.st18{fill:#FDB913;}
	.st19{clip-path:url(#SVGID_00000054970100709322316300000000798054374793074321_);}
	.st20{fill:#000096;}
	.st21{fill-rule:evenodd;clip-rule:evenodd;fill:#000096;}
	.st22{font-family:'ArialMT';}
	.st23{font-size:6.4923px;}
	.st24{clip-path:url(#SVGID_00000100376139876553297790000001837277345302762682_);}
	.st25{fill-rule:evenodd;clip-rule:evenodd;fill:#D52E94;}
	.st26{fill-rule:evenodd;clip-rule:evenodd;fill:#F8421E;}
	.st27{fill-rule:evenodd;clip-rule:evenodd;fill:#DFD6AB;}
	.st28{fill-rule:evenodd;clip-rule:evenodd;fill:#0C7CC4;}
	.st29{fill-rule:evenodd;clip-rule:evenodd;fill:#64A9DA;}
</style>
<g>
	<defs>
		<rect id="SVGID_00000097493188852330086160000015131281741411361673_" x="-0.3" y="0.1" width="108" height="72"/>
	</defs>
	<clipPath id="SVGID_00000132810703314775800250000009439356712320285568_">
		<use xlink:href="#SVGID_00000097493188852330086160000015131281741411361673_"  style="overflow:visible;"/>
	</clipPath>
	
		<g id="Group_676" transform="translate(-165 -54)" style="clip-path:url(#SVGID_00000132810703314775800250000009439356712320285568_);">
		<g id="Group_674">
			<g id="Group_1" transform="translate(165 54)">
				<path id="Path_1" class="st20" d="M25.1,24.6H4.4v-0.4h20.7l0.2,0.2L25.1,24.6z M25.1,24.2h0.2v0.2L25.1,24.2z M24.9,45.8V24.4
					h0.4v21.4L25.1,46L24.9,45.8z M25.3,45.8V46h-0.2L25.3,45.8z M4.4,45.6h20.7V46H4.4l-0.2-0.2L4.4,45.6z M4.4,46H4.2v-0.2L4.4,46
					z M4.6,24.4v21.4H4.2V24.4l0.2-0.2L4.6,24.4z M4.2,24.4v-0.2h0.2L4.2,24.4z"/>
			</g>
			<path id="Path_2" class="st21" d="M171,81.3h17.8c0.2,0,0.3,0.1,0.3,0.3l0,0c0,0.2-0.1,0.3-0.3,0.3h-5.2
				c-0.9,0.3-2.8,1.2-2.8,3.1c0,2.3,1.5,3.1,3.4,2.8c0.2,0.5-1.7,2.8-3.5,2.9c-0.2,0-0.4,0-0.6,0c0,0.1-0.1,0.1-0.1,0.1h-9.4
				c-0.1,0-0.2-0.1-0.2-0.3l0,0c0-0.2,0.1-0.3,0.2-0.3h0.4v-8.3h-0.4c-0.2,0-0.3-0.1-0.3-0.3l0,0c0-0.2,0.1-0.3,0.3-0.3H171z
				 M183.1,82.8c0,0-0.2-0.6,1.5-0.7c1.7-0.1,4.2,0.7,4.2,3.7s-3.1,4.4-4.2,4.9s-4.1,1.6-3.6,3.7c0.7,3,5,2.1,5-1
				c0-0.8-0.4-1.6-1.1-1.9c0,0-0.4-0.5,0.8-0.7s3.3,0.6,3.2,3.3s-3.2,3.8-5.5,3.7c-2.3-0.1-4.9-1.5-4.8-3.7c0-2.2,2.2-3.1,2.7-3.3
				s3.7-1.5,4.2-3.2c0.5-1.7,0.6-3.2-0.7-4.2c-0.4-0.3-0.8-0.5-1.3-0.5C183.4,82.9,183.2,82.9,183.1,82.8L183.1,82.8z M177,89.8
				c0.1,0.2,0.1,0.4-0.5,0.4c0,0-0.1,0-0.1,0h-2.3v-3.5L177,89.8z M180.4,81.9h-1.2l-0.1,0c0,0-2,0.4-2,3c-0.1,1.2,2.1,3.5,3.3,4.6
				c0.4,0.4,0.3-0.3-0.4-0.8c-0.7-0.5-2.2-2.1-2.2-3.8C178,83.5,179,82.3,180.4,81.9L180.4,81.9z M176,81.9h-1.9v2.8
				c0.8-0.7,1.5-1.5,2.2-2.3C176.4,82.2,176.3,82,176,81.9L176,81.9z"/>
		</g>
		<g id="Group_675">
			<path id="Path_3" class="st20" d="M202.3,78.6l-1.8,5.6l2,6.8h-3.3l-1.3-5.3V91h-3.2V78.6h3.2v4.8l1.4-4.8H202.3z M210.4,83.2
				h-3.2v-1.1c0-0.4,0-0.9-0.1-1.3c-0.1-0.2-0.2-0.3-0.4-0.3c-0.2,0-0.3,0.1-0.4,0.2c-0.1,0.4-0.1,0.8-0.1,1.2v5.9
				c0,0.4,0,0.7,0.1,1.1c0.1,0.2,0.2,0.3,0.4,0.3c0.2,0,0.4-0.1,0.5-0.3c0.1-0.4,0.1-0.8,0.1-1.2v-1.5h-0.6v-1.9h3.8V91h-2l-0.3-0.9
				c-0.2,0.4-0.5,0.7-0.8,0.9c-0.4,0.2-0.8,0.3-1.2,0.3c-0.5,0-1.1-0.1-1.5-0.4c-0.4-0.2-0.8-0.6-1.1-1c-0.2-0.4-0.4-0.8-0.5-1.2
				c-0.1-0.6-0.1-1.3-0.1-1.9v-3.7c0-0.9,0-1.7,0.2-2.6c0.2-0.6,0.6-1.1,1.1-1.5c0.7-0.5,1.5-0.7,2.3-0.7c0.8,0,1.6,0.2,2.3,0.6
				c0.6,0.3,1,0.8,1.2,1.4c0.2,0.8,0.3,1.5,0.3,2.3L210.4,83.2z M221.8,78.6V91h-3.2v-5.2h-0.9V91h-3.2V78.6h3.2V83h0.9v-4.4H221.8z
				 M229.9,84.4v2.5c0,0.7,0,1.3-0.1,2c-0.1,0.4-0.3,0.8-0.6,1.2c-0.3,0.4-0.7,0.7-1.2,0.8c-0.5,0.2-1.1,0.3-1.6,0.3
				c-0.6,0-1.2-0.1-1.7-0.2c-0.4-0.1-0.8-0.4-1.1-0.7c-0.3-0.3-0.5-0.7-0.6-1.1c-0.1-0.6-0.2-1.3-0.2-1.9v-2.6
				c0-0.7,0.1-1.5,0.3-2.2c0.2-0.5,0.6-1,1.1-1.3c0.6-0.3,1.3-0.5,2-0.5c0.6,0,1.2,0.1,1.8,0.3c0.8,0.3,1.5,1,1.7,1.8
				C229.9,83.3,230,83.9,229.9,84.4L229.9,84.4z M226.9,83.6c0-0.3,0-0.7-0.1-1c-0.1-0.1-0.2-0.2-0.4-0.2c-0.2,0-0.3,0.1-0.4,0.2
				c-0.1,0.3-0.1,0.7-0.1,1v4.6c0,0.3,0,0.6,0.1,0.9c0.1,0.2,0.4,0.3,0.6,0.2c0.1,0,0.1-0.1,0.2-0.1c0.1-0.3,0.1-0.6,0.1-0.9V83.6z
				 M237.3,84.1h-2.7v-0.6c0-0.3,0-0.6-0.1-0.9c-0.1-0.1-0.2-0.2-0.4-0.2c-0.1,0-0.3,0.1-0.4,0.2c-0.1,0.2-0.1,0.3-0.1,0.5
				c0,0.2,0,0.5,0.1,0.7c0.1,0.2,0.2,0.4,0.4,0.5c0.4,0.3,0.9,0.5,1.3,0.8c0.7,0.3,1.3,0.7,1.8,1.2c0.3,0.5,0.5,1.1,0.4,1.7
				c0,0.6-0.1,1.3-0.3,1.9c-0.2,0.4-0.6,0.8-1.1,1c-0.6,0.2-1.2,0.4-1.8,0.3c-0.7,0-1.4-0.1-2-0.4c-0.5-0.2-0.9-0.5-1.2-1
				c-0.2-0.6-0.3-1.2-0.3-1.9v-0.5h2.7v0.6c0,0.4,0,0.7,0.1,1.1c0.1,0.2,0.2,0.3,0.4,0.2c0.2,0,0.3,0,0.5-0.2
				c0.1-0.2,0.2-0.5,0.1-0.7c0-0.3,0-0.6-0.2-0.9c-0.6-0.4-1.2-0.8-1.8-1.1c-0.7-0.3-1.2-0.8-1.7-1.4c-0.2-0.5-0.3-1-0.3-1.5
				c0-0.6,0.1-1.2,0.3-1.8c0.2-0.4,0.6-0.7,1.1-0.9c0.6-0.2,1.2-0.3,1.8-0.3c0.6,0,1.2,0.1,1.7,0.3c0.4,0.1,0.8,0.4,1.1,0.7
				c0.2,0.2,0.4,0.5,0.5,0.8c0.1,0.4,0.1,0.7,0.1,1.1L237.3,84.1z M241.5,80.8l-0.1,0.9c0.2-0.3,0.6-0.6,0.9-0.8
				c0.3-0.2,0.7-0.3,1.1-0.3c0.4,0,0.9,0.1,1.2,0.4c0.3,0.2,0.5,0.5,0.7,0.9c0.1,0.6,0.1,1.1,0.1,1.7v4.3c0,0.7,0,1.3-0.2,2
				c-0.1,0.4-0.3,0.7-0.7,0.9c-0.4,0.2-0.8,0.4-1.2,0.3c-0.4,0-0.7-0.1-1.1-0.3c-0.4-0.2-0.7-0.5-0.9-0.8v2.3h-3.1V80.8L241.5,80.8z
				 M242.4,83.8c0-0.4,0-0.8-0.1-1.1c0-0.1-0.2-0.2-0.4-0.2c-0.2,0-0.3,0.1-0.4,0.2c-0.1,0.4-0.1,0.7-0.1,1.1V88
				c0,0.4,0,0.8,0.1,1.1c0.1,0.2,0.2,0.3,0.4,0.2c0.2,0,0.3-0.1,0.4-0.2c0.1-0.3,0.1-0.7,0.1-1V83.8z M249.6,78.6v1.6h-3.2v-1.6
				H249.6z M249.6,80.8V91h-3.2V80.8H249.6z M254,79.5v1.6h0.9v1.6H254v5.4c0,0.4,0,0.8,0.1,1.1c0.1,0.1,0.4,0.1,0.9,0.1V91h-1.2
				c-0.5,0-1,0-1.5-0.1c-0.3-0.1-0.6-0.2-0.8-0.4c-0.2-0.2-0.4-0.4-0.4-0.7c-0.1-0.6-0.1-1.3-0.1-1.9v-5.1h-0.7v-1.6h0.7v-1.6H254z
				 M258.3,84.8h-2.9v-0.7c0-0.6,0.1-1.2,0.3-1.8c0.2-0.5,0.6-0.9,1.1-1.1c1.4-0.7,3.1-0.7,4.5,0.1c0.5,0.3,0.8,0.8,1,1.4
				c0.1,1.1,0.2,2.2,0.2,3.3V91h-3v-0.9c-0.3,0.7-1,1.1-1.8,1.1c-0.5,0-1-0.2-1.5-0.5c-0.5-0.3-0.7-1-0.7-2v-0.8
				c-0.1-0.5,0.1-1.1,0.4-1.6c0.5-0.4,1.1-0.8,1.8-1c0.6-0.2,1.1-0.4,1.6-0.8c0.1-0.3,0.1-0.6,0.1-0.8c0-0.3,0-0.7-0.1-1
				c-0.1-0.2-0.2-0.3-0.4-0.2c-0.2,0-0.3,0.1-0.4,0.2c-0.1,0.3-0.1,0.7-0.1,1.1L258.3,84.8z M259.3,86.2c-0.4,0.2-0.7,0.5-0.9,0.9
				c-0.1,0.3-0.1,0.7-0.1,1.1c0,0.3,0,0.7,0.1,1c0.1,0.2,0.2,0.3,0.4,0.2c0.2,0,0.3,0,0.4-0.2c0.1-0.3,0.1-0.6,0.1-0.9L259.3,86.2z
				 M266.6,78.6V91h-3.2V78.6H266.6z"/>
			<text transform="matrix(1 0 0 1 193.9856 100.011)" class="st20 st22 st23">Trendsetter in Health care</text>
		</g>
	</g>
</g>
</svg>
