<?xml version="1.0" encoding="utf-8"?>
<!-- Generator: Adobe Illustrator 28.2.0, SVG Export Plug-In . SVG Version: 6.00 Build 0)  -->
<svg version="1.1" id="Layer_1" xmlns="http://www.w3.org/2000/svg" xmlns:xlink="http://www.w3.org/1999/xlink" x="0px" y="0px"
	 viewBox="0 0 108 72" style="enable-background:new 0 0 108 72;" xml:space="preserve">
<style type="text/css">
	
		.st0{clip-path:url(#SVGID_00000140013029843783525310000002670989836853001886_);fill-rule:evenodd;clip-rule:evenodd;fill:#2A7CC9;}
	.st1{clip-path:url(#SVGID_00000083077375907742389160000013476352812250137014_);}
	.st2{fill-rule:evenodd;clip-rule:evenodd;fill:#13ABDB;}
	.st3{fill-rule:evenodd;clip-rule:evenodd;fill:#0071AE;}
	.st4{clip-path:url(#SVGID_00000116214185685829087510000011537784829300801163_);}
	.st5{fill:#000048;}
	.st6{fill-rule:evenodd;clip-rule:evenodd;fill:url(#SVGID_00000105419636987167054670000013521309731412642949_);}
	.st7{fill-rule:evenodd;clip-rule:evenodd;fill:url(#SVGID_00000023276082812474732620000014891977936288920967_);}
	.st8{fill-rule:evenodd;clip-rule:evenodd;fill:url(#SVGID_00000093176559006653973460000001748589857018147985_);}
	.st9{fill-rule:evenodd;clip-rule:evenodd;fill:url(#SVGID_00000153669044035733658260000015158555238486896781_);}
	.st10{clip-path:url(#SVGID_00000047058756905049768460000012952514160880185268_);fill:#0033A1;}
	.st11{clip-path:url(#SVGID_00000177482501645273533920000008166181661318165126_);}
	.st12{fill:#FFFFFF;}
	.st13{fill:#645FAA;}
	.st14{fill:#C9234A;}
	.st15{fill:#0089CF;}
	.st16{fill:#F36F21;}
	.st17{fill:#0DB14B;}
	.st18{fill:#FDB913;}
	.st19{clip-path:url(#SVGID_00000119079460612448821570000006021495998748466859_);}
	.st20{fill:#000096;}
	.st21{fill-rule:evenodd;clip-rule:evenodd;fill:#000096;}
	.st22{clip-path:url(#SVGID_00000003083162985999693850000006209433645916052412_);}
	.st23{fill-rule:evenodd;clip-rule:evenodd;fill:#D52E94;}
	.st24{fill-rule:evenodd;clip-rule:evenodd;fill:#F8421E;}
	.st25{fill-rule:evenodd;clip-rule:evenodd;fill:#DFD6AB;}
	.st26{fill-rule:evenodd;clip-rule:evenodd;fill:#0C7CC4;}
	.st27{fill-rule:evenodd;clip-rule:evenodd;fill:#64A9DA;}
</style>
<g>
	<defs>
		<rect id="SVGID_00000011721483129185829810000005470150549853356682_" width="108" height="72"/>
	</defs>
	<clipPath id="SVGID_00000137842106502423576870000007434405703885888641_">
		<use xlink:href="#SVGID_00000011721483129185829810000005470150549853356682_"  style="overflow:visible;"/>
	</clipPath>
	<g style="clip-path:url(#SVGID_00000137842106502423576870000007434405703885888641_);">
		<path class="st5" d="M103.9,27.5c0,0.5-0.4,1-1,1c-0.5,0-1-0.4-1-1c0-0.5,0.4-1,1-1l0,0C103.4,26.5,103.9,27,103.9,27.5z
			 M103.7,27.5c0-0.5-0.4-0.9-0.9-0.8c-0.5,0-0.9,0.4-0.8,0.9c0,0.5,0.4,0.8,0.9,0.8C103.4,28.4,103.7,28,103.7,27.5z M103.1,27.6
			l0.3,0.5h-0.2l-0.3-0.4h-0.2V28h-0.2V27h0.4c0.2,0,0.3,0.1,0.3,0.3C103.3,27.4,103.2,27.5,103.1,27.6L103.1,27.6z M102.7,27.5h0.2
			c0.1,0,0.2-0.1,0.2-0.2c0,0,0,0,0,0c0-0.1-0.1-0.2-0.2-0.2c0,0,0,0,0,0h-0.2V27.5z M66.9,29.7h1.5v8.9h-1.5V29.7z M61.5,29.5
			c-0.9,0-1.9,0.3-2.6,0.9v-0.7h-1.5v8.9h1.5v-5c0-1.4,1.2-2.6,2.6-2.6c1.4,0,2.6,1.2,2.6,2.6c0,0,0,0,0,0v5h1.5v-5
			C65.5,31.4,63.7,29.5,61.5,29.5C61.5,29.5,61.5,29.5,61.5,29.5L61.5,29.5z M54.4,29.7h1.5v8.6c-0.1,2.5-2.1,4.6-4.6,4.6
			c-2,0.1-3.9-1.3-4.4-3.2h1.6c0.5,1.1,1.6,1.8,2.8,1.7c1.7-0.1,3.1-1.4,3.2-3.2v-0.7c-1.9,1.7-4.8,1.6-6.6-0.2s-1.6-4.8,0.2-6.6
			c1.8-1.7,4.5-1.7,6.3,0V29.7z M54.4,34.2c0-1.7-1.4-3.2-3.2-3.2c-1.7,0-3.2,1.4-3.2,3.2c0,1.7,1.4,3.2,3.2,3.2l0,0
			C53,37.3,54.4,35.9,54.4,34.2C54.4,34.2,54.4,34.2,54.4,34.2L54.4,34.2z M31.5,31c1.2,0,2.3,0.7,2.9,1.8h1.6
			c-0.7-2.5-3.3-3.9-5.8-3.1c-2.5,0.7-3.9,3.3-3.1,5.8c0.7,2.5,3.3,3.9,5.8,3.1c1.5-0.4,2.7-1.6,3.1-3.1h-1.6
			c-0.7,1.6-2.6,2.3-4.2,1.5c-1.6-0.7-2.3-2.6-1.5-4.2C29.1,31.7,30.2,31,31.5,31L31.5,31z M45.9,34.2c0,2.6-2.1,4.6-4.7,4.6
			c-2.6,0-4.6-2.1-4.6-4.7c0-2.6,2.1-4.6,4.6-4.6C43.8,29.5,45.9,31.6,45.9,34.2C45.9,34.2,45.9,34.2,45.9,34.2L45.9,34.2z
			 M44.4,34.2c0-1.7-1.4-3.2-3.1-3.2c-1.7,0-3.2,1.4-3.2,3.1c0,1.7,1.4,3.2,3.1,3.2C43,37.3,44.4,35.9,44.4,34.2
			C44.4,34.2,44.4,34.2,44.4,34.2L44.4,34.2z M92.9,29.5c-0.9,0-1.9,0.3-2.6,0.9v-0.7h-1.5v8.9h1.5v-5c0-1.4,1.2-2.6,2.6-2.6
			c1.4,0,2.6,1.2,2.6,2.6c0,0,0,0,0,0v5H97v-5C97,31.4,95.2,29.5,92.9,29.5C92.9,29.5,92.9,29.5,92.9,29.5L92.9,29.5z M85.9,29.7
			h1.5v8.9h-1.5v-1.1c-1.9,1.7-4.8,1.6-6.6-0.3s-1.6-4.8,0.3-6.6c0.9-0.8,2-1.2,3.1-1.2c1.2,0,2.3,0.4,3.2,1.2V29.7z M85.9,34.2
			c0-1.7-1.4-3.2-3.2-3.2s-3.2,1.4-3.2,3.2c0,1.7,1.4,3.2,3.2,3.2C84.5,37.3,85.9,35.9,85.9,34.2L85.9,34.2z M102,31.2v-1.5h-2.2
			v-2.4h-1.5v8.3c0,1.6,1.3,3,3,3h0.7v-1.5h-0.7c-0.8,0-1.5-0.7-1.5-1.5v-4.4L102,31.2z M67.6,26.5c-0.5,0-1,0.4-1,1s0.4,1,1,1
			c0.5,0,1-0.4,1-1c0,0,0,0,0,0C68.6,27,68.2,26.5,67.6,26.5L67.6,26.5z M77.3,29.7h-7.4v1.5h5.5l-5.5,5.9v1.5h7.4v-1.5h-5.5
			l5.5-5.9L77.3,29.7z"/>
		<g>
			
				<linearGradient id="SVGID_00000174576602957540064480000013219051385935053443_" gradientUnits="userSpaceOnUse" x1="-2297.5203" y1="632.7738" x2="-2297.4268" y2="632.7738" gradientTransform="matrix(133.3852 0 0 94.2775 306459.0625 -59618.8906)">
				<stop  offset="0" style="stop-color:#3D54CE"/>
				<stop  offset="1" style="stop-color:#35CACF"/>
			</linearGradient>
			<path style="fill-rule:evenodd;clip-rule:evenodd;fill:url(#SVGID_00000174576602957540064480000013219051385935053443_);" d="
				M13.1,33H4.1l6.1,8.8l6.4-3.8L13.1,33z"/>
			
				<linearGradient id="SVGID_00000169529901962039052400000012174172202178862495_" gradientUnits="userSpaceOnUse" x1="-2301.3699" y1="632.7738" x2="-2301.2759" y2="632.7738" gradientTransform="matrix(158.0271 0 0 94.2775 363687.7812 -59618.8906)">
				<stop  offset="0" style="stop-color:#13457D"/>
				<stop  offset="1" style="stop-color:#279698"/>
			</linearGradient>
			<path style="fill-rule:evenodd;clip-rule:evenodd;fill:url(#SVGID_00000169529901962039052400000012174172202178862495_);" d="
				M25.1,33l-14.8,8.8h8.8L25.1,33z"/>
			
				<linearGradient id="SVGID_00000046340682587615596890000003976772267849927557_" gradientUnits="userSpaceOnUse" x1="-2297.583" y1="633.6789" x2="-2297.4895" y2="633.6789" gradientTransform="matrix(133.485 0 0 94.2775 306696.9062 -59713.0703)">
				<stop  offset="0" style="stop-color:#090086"/>
				<stop  offset="1" style="stop-color:#2F96A9"/>
			</linearGradient>
			<path style="fill-rule:evenodd;clip-rule:evenodd;fill:url(#SVGID_00000046340682587615596890000003976772267849927557_);" d="
				M4.1,33h8.9l3.6-5l-6.4-3.8L4.1,33z"/>
			
				<linearGradient id="SVGID_00000089558889238461188390000005778598217384210321_" gradientUnits="userSpaceOnUse" x1="-2301.3699" y1="633.6789" x2="-2301.2759" y2="633.6789" gradientTransform="matrix(158.0271 0 0 94.2775 363687.7812 -59713.0703)">
				<stop  offset="0" style="stop-color:#3B62CA"/>
				<stop  offset="1" style="stop-color:#93DFE3"/>
			</linearGradient>
			<path style="fill-rule:evenodd;clip-rule:evenodd;fill:url(#SVGID_00000089558889238461188390000005778598217384210321_);" d="
				M25.1,33l-14.8-8.8h8.8L25.1,33z"/>
		</g>
	</g>
</g>
</svg>
