<?xml version="1.0" encoding="utf-8"?>
<!-- Generator: Adobe Illustrator 28.2.0, SVG Export Plug-In . SVG Version: 6.00 Build 0)  -->
<svg version="1.1" id="Layer_1" xmlns="http://www.w3.org/2000/svg" xmlns:xlink="http://www.w3.org/1999/xlink" x="0px" y="0px"
	 viewBox="0 0 108 72" style="enable-background:new 0 0 108 72;" xml:space="preserve">
<style type="text/css">
	
		.st0{clip-path:url(#SVGID_00000121962699018324385940000017727403735427034043_);fill-rule:evenodd;clip-rule:evenodd;fill:#2A7CC9;}
	.st1{clip-path:url(#SVGID_00000101064931450132695510000009234857731540572349_);}
	.st2{fill-rule:evenodd;clip-rule:evenodd;fill:#13ABDB;}
	.st3{fill-rule:evenodd;clip-rule:evenodd;fill:#0071AE;}
	.st4{clip-path:url(#SVGID_00000007410913657370586490000004354240410809380511_);}
	.st5{fill:#000048;}
	.st6{fill-rule:evenodd;clip-rule:evenodd;fill:url(#SVGID_00000173874440154785537960000016538073952956815790_);}
	.st7{fill-rule:evenodd;clip-rule:evenodd;fill:url(#SVGID_00000025420844967774682990000009158892343146405802_);}
	.st8{fill-rule:evenodd;clip-rule:evenodd;fill:url(#SVGID_00000158015423581518533680000012263612003201188014_);}
	.st9{fill-rule:evenodd;clip-rule:evenodd;fill:url(#SVGID_00000057106955930008653920000015466786661343706524_);}
	.st10{clip-path:url(#SVGID_00000027606097838917393630000009744418035478683520_);fill:#0033A1;}
	.st11{clip-path:url(#SVGID_00000069384661485100887450000004634341066959756962_);}
	.st12{fill:#FFFFFF;}
	.st13{fill:#645FAA;}
	.st14{fill:#C9234A;}
	.st15{fill:#0089CF;}
	.st16{fill:#F36F21;}
	.st17{fill:#0DB14B;}
	.st18{fill:#FDB913;}
	.st19{clip-path:url(#SVGID_00000033329666198625617900000016342119999813736328_);}
	.st20{fill:#000096;}
	.st21{fill-rule:evenodd;clip-rule:evenodd;fill:#000096;}
	.st22{clip-path:url(#SVGID_00000098181042665153895990000012356058704586196624_);}
	.st23{fill-rule:evenodd;clip-rule:evenodd;fill:#D52E94;}
	.st24{fill-rule:evenodd;clip-rule:evenodd;fill:#F8421E;}
	.st25{fill-rule:evenodd;clip-rule:evenodd;fill:#DFD6AB;}
	.st26{fill-rule:evenodd;clip-rule:evenodd;fill:#0C7CC4;}
	.st27{fill-rule:evenodd;clip-rule:evenodd;fill:#64A9DA;}
</style>
<g>
	<defs>
		<rect id="SVGID_00000004529213092467298900000000930430209978151060_" x="0" width="108" height="72"/>
	</defs>
	<clipPath id="SVGID_00000163791786488724331990000003829369769104117694_">
		<use xlink:href="#SVGID_00000004529213092467298900000000930430209978151060_"  style="overflow:visible;"/>
	</clipPath>
	<g style="clip-path:url(#SVGID_00000163791786488724331990000003829369769104117694_);">
		<path class="st12" d="M54,20c0.4-0.6,1-1.2,1.7-1.5c1.1-0.5,2.7-0.3,3.6,0.5c0.9,0.8,1.4,1.9,1.1,3.2c0.2,0,0.4-0.2,0.7-0.3
			c1.4-0.4,2.9,0,3.8,1.2c0.7,0.9,0.8,2.2,0.4,3.2c-0.2,0.5-0.5,1-1,1.4l0,0c1.3,0.1,2.6,1.1,3,2.3c0.4,1.3,0.1,2.6-0.9,3.5
			c-0.7,0.7-1.7,1-2.8,1H44.3c-1.6,0-2.8-0.7-3.5-2.1c-0.5-1.2-0.3-2.8,0.7-3.7c0.6-0.6,1.4-0.9,2.2-1c-0.9-0.9-1.4-2.1-1.1-3.3
			c0.2-1,1.1-2.1,2.1-2.4c0.9-0.4,2.1-0.3,2.9,0.2l0,0c-0.2-1.4,0.4-2.7,1.5-3.4c1-0.7,2.7-0.7,3.7,0.1C53.3,19.1,53.7,19.6,54,20"
			/>
		<path class="st13" d="M59.5,20.5c0.4,0.8,0.2,1.9-0.3,2.7l-3.4,7.6l0,0l-1.2-7.7c-0.1-0.7,0.7-1.1,1.2-1.4c0-0.1-0.1-0.1-0.2-0.2
			l-1.1,0l0,0c0-1,0.5-1.8,1.4-2.3c0.9-0.5,2.2-0.4,3,0.3C59.1,19.8,59.3,20.1,59.5,20.5"/>
		<path class="st14" d="M53.3,20.3c0.3,0.5,0.4,1.1,0.3,1.7l-1.4,8.8c0,0,0,0,0,0l-0.4-0.7l-3.4-7.7c-0.3-1,0-2,0.7-2.7
			c0.7-0.7,1.9-0.9,2.9-0.5C52.5,19.4,53,19.8,53.3,20.3"/>
		<path class="st15" d="M64.5,24c0.5,0.8,0.4,2-0.2,2.7c-0.3,0.5-0.8,0.8-1.3,1.1l-7.1,4.9h0l0.1-0.2l3.8-8.5c0.6-1,1.6-1.5,2.8-1.4
			C63.3,22.7,64.1,23.2,64.5,24"/>
		<path class="st16" d="M48.3,23.9l3.9,8.8h-0.1l-7.9-5.5c-0.8-0.7-1.1-1.7-0.9-2.7c0.2-0.8,0.8-1.5,1.6-1.8
			C46.2,22.3,47.6,22.7,48.3,23.9"/>
		<path class="st17" d="M66.5,30.1c0.4,0.8,0.2,2-0.3,2.7c-0.6,0.7-1.3,1.1-2.2,1l-8.4,0l7.1-4.9c0.7-0.4,1.7-0.5,2.5-0.2
			C65.7,29,66.3,29.6,66.5,30.1"/>
		<path class="st18" d="M41.5,30.1c-0.4,0.8-0.2,2,0.3,2.7c0.6,0.7,1.3,1.1,2.2,1l8.4,0l-7.1-4.9c-0.7-0.4-1.7-0.5-2.5-0.2
			C42.3,29,41.8,29.6,41.5,30.1"/>
		<path d="M26.4,38.9c-4.1,0-7.4,3.3-7.4,7.4c0,4.1,3.3,7.4,7.4,7.4c4.1,0,7.4-3.3,7.4-7.4C33.8,42.2,30.5,38.9,26.4,38.9
			 M26.4,52.3c-3.3,0-6-2.7-6-6c0-3.3,2.7-6,6-6c3.3,0,6,2.7,6,6C32.3,49.6,29.6,52.3,26.4,52.3"/>
		<path d="M90.5,46.4c-0.4-0.2-2.8-1.5-3.2-1.6c-1.3-0.7-1.7-1.2-1.7-2.2c0-1.4,1.1-2.2,2.8-2.2c1,0,2,0.4,2.6,0.8
			c0.1,0.1,0.2,0.1,0.4,0.1c0.4,0,0.7-0.3,0.7-0.7c0-0.3-0.1-0.5-0.4-0.6c-0.7-0.4-2-1-3.3-1c-2.5,0-4.3,1.5-4.3,3.7
			c0,2,1.3,2.9,2.5,3.5c0.4,0.2,2.8,1.4,3.2,1.6c1,0.5,1.5,1.3,1.5,2.1c0,1.2-1,2.4-2.8,2.4c-1.8,0-3.2-1.2-3.6-1.6l-0.1-0.1l-1.1,1
			l0.1,0.1c0.5,0.5,2.2,2,4.6,2c2.7,0,4.3-2,4.3-3.9C92.8,48.5,92,47.2,90.5,46.4"/>
		<path d="M11.1,40.4c1.6,0,3.1,0.6,4.2,1.7c0.3,0.3,0.8,0.3,1,0c0.1-0.1,0.2-0.3,0.2-0.5c0-0.2-0.1-0.4-0.2-0.5L16.3,41
			c-1.4-1.3-3.2-2.1-5.2-2.1c-4.1,0-7.4,3.3-7.4,7.4c0,4.1,3.3,7.4,7.4,7.4c2.2,0,4.1-0.9,5.5-2.4l-1-1c-1.1,1.2-2.7,2-4.4,2
			c-3.3,0-6-2.7-6-6C5.1,43.1,7.8,40.4,11.1,40.4"/>
		<path d="M61.5,40.4c1.6,0,3.1,0.6,4.2,1.7c0.3,0.3,0.8,0.3,1,0c0.1-0.1,0.2-0.3,0.2-0.5c0-0.2-0.1-0.4-0.2-0.5L66.7,41
			c-1.4-1.3-3.2-2.1-5.2-2.1c-4.1,0-7.4,3.3-7.4,7.4c0,4.1,3.3,7.4,7.4,7.4c2.2,0,4.1-0.9,5.5-2.4l-1-1c-1.1,1.2-2.7,2-4.4,2
			c-3.3,0-6-2.7-6-6C55.6,43.1,58.2,40.4,61.5,40.4"/>
		<path d="M48.9,38.9c-0.3,0-0.5,0.2-0.6,0.4c-0.1,0.2-4.4,10.8-4.4,10.8c0,0-4.3-10.5-4.4-10.8c-0.1-0.2-0.3-0.4-0.6-0.4
			c-0.3,0-0.6,0.2-0.6,0.5C38.2,39.7,35.8,53,35.8,53c0,0,0,0.1,0,0.1c0,0.4,0.3,0.7,0.7,0.7c0.3,0,0.6-0.2,0.6-0.5l2.1-11.3
			c0,0,4,9.9,4.1,10.2c0.1,0.2,0.3,0.4,0.6,0.4c0.3,0,0.5-0.2,0.6-0.4c0.1-0.2,4.1-10.2,4.1-10.2l2.2,11.8h1.3c0,0-2.5-14-2.6-14.3
			C49.5,39.1,49.2,38.9,48.9,38.9"/>
		<path d="M75.4,38.9c-0.3,0-0.5,0.2-0.6,0.4c-0.1,0.2-5.5,13.5-5.5,13.5c0,0.1-0.1,0.2-0.1,0.3c0,0.4,0.3,0.7,0.7,0.7
			c0.3,0,0.5-0.2,0.6-0.4l2.1-5.1h5.6l2.2,5.5h1.4c0,0-5.7-14.1-5.9-14.4C75.9,39.1,75.7,38.9,75.4,38.9 M73.2,46.8l2.2-5.4l2.2,5.4
			H73.2z"/>
		<path d="M103.6,39h-8.3c-0.4,0-0.7,0.3-0.7,0.7c0,0.4,0.3,0.7,0.7,0.7h3.5v13.3h1.3V40.5h3.5c0.4,0,0.7-0.3,0.7-0.7
			C104.3,39.3,104,39,103.6,39"/>
	</g>
</g>
</svg>
