<?xml version="1.0" encoding="utf-8"?>
<!-- Generator: Adobe Illustrator 28.2.0, SVG Export Plug-In . SVG Version: 6.00 Build 0)  -->
<svg version="1.1" id="Layer_1" xmlns="http://www.w3.org/2000/svg" xmlns:xlink="http://www.w3.org/1999/xlink" x="0px" y="0px"
	 viewBox="0 0 297 204.3" style="enable-background:new 0 0 297 204.3;" xml:space="preserve">
<style type="text/css">
	.st0{opacity:0.3;fill:#FFFFFF;}
	.st1{fill:url(#SVGID_1_);}
	.st2{fill:url(#SVGID_00000047779927868053157940000015616834395561294208_);}
	.st3{fill:url(#SVGID_00000127728074971384421360000012829089994486769338_);}
	.st4{fill:#13137F;}
	.st5{font-family:'FranklinGothic-Medium';}
	.st6{font-size:41.2526px;}
	.st7{font-family:'AgencyFB-Reg';}
	.st8{font-size:17.0079px;}
</style>
<g>
	<path class="st0" d="M101.7,118.1V50c0-19.7-8-35.7-17.9-35.7v73C83.8,100.4,91,112,101.7,118.1z"/>
	<g>
		<linearGradient id="SVGID_1_" gradientUnits="userSpaceOnUse" x1="111.7213" y1="68.6024" x2="163.0806" y2="68.6024">
			<stop  offset="0" style="stop-color:#0300BB"/>
			<stop  offset="6.242037e-03" style="stop-color:#0304BC"/>
			<stop  offset="0.1074" style="stop-color:#093BD0"/>
			<stop  offset="0.206" style="stop-color:#0D68E1"/>
			<stop  offset="0.2997" style="stop-color:#118CEE"/>
			<stop  offset="0.3873" style="stop-color:#13A5F7"/>
			<stop  offset="0.4665" style="stop-color:#14B5FD"/>
			<stop  offset="0.5299" style="stop-color:#15BAFF"/>
			<stop  offset="0.6135" style="stop-color:#15B7FE"/>
			<stop  offset="0.6832" style="stop-color:#14ACFA"/>
			<stop  offset="0.7479" style="stop-color:#129BF4"/>
			<stop  offset="0.8097" style="stop-color:#1083EB"/>
			<stop  offset="0.8693" style="stop-color:#0D63DF"/>
			<stop  offset="0.9273" style="stop-color:#093CD1"/>
			<stop  offset="0.983" style="stop-color:#040FC1"/>
			<stop  offset="1" style="stop-color:#0300BB"/>
		</linearGradient>
		<polygon class="st1" points="111.7,28.4 111.7,72.3 163.1,108.8 163.1,64.9 		"/>
		
			<linearGradient id="SVGID_00000018942937539332624380000004277431861409920668_" gradientUnits="userSpaceOnUse" x1="119.3558" y1="68.6024" x2="83.0657" y2="68.6024">
			<stop  offset="5.208287e-04" style="stop-color:#15BAFF"/>
			<stop  offset="1" style="stop-color:#0300BB"/>
		</linearGradient>
		<path style="fill:url(#SVGID_00000018942937539332624380000004277431861409920668_);" d="M83.8,14.3v73c0,19.7,16,35.7,35.7,35.7
			l0,0V50C119.6,30.3,103.6,14.3,83.8,14.3z"/>
		
			<linearGradient id="SVGID_00000059296061699191161940000009868156373001753531_" gradientUnits="userSpaceOnUse" x1="154.2366" y1="68.6024" x2="193.2229" y2="68.6024">
			<stop  offset="5.208287e-04" style="stop-color:#15BAFF"/>
			<stop  offset="1" style="stop-color:#0300BB"/>
		</linearGradient>
		<path style="fill:url(#SVGID_00000059296061699191161940000009868156373001753531_);" d="M155.2,14.3v73c0,19.7,16,35.7,35.7,35.7
			V50C191,30.3,175,14.3,155.2,14.3z"/>
		<path class="st0" d="M173.1,118.1V50c0-19.7-8-35.7-17.9-35.7v73C155.2,100.4,162.4,112,173.1,118.1z"/>
		<path class="st0" d="M83.8,46.7c13.2,14.6,32.3,23.8,53.6,23.8c21.2,0,40.2-9.1,53.4-23.6c-1.6-18.3-16.9-32.6-35.6-32.6v45.1
			l-42.4-30.2c-6.5-9-17.1-14.9-29-14.9V46.7z"/>
	</g>
</g>
<text transform="matrix(1 0 0 1 4.3845 165.7358)" class="st4 st5 st6">Nurture Infotech</text>
<text transform="matrix(1 0 0 1 84.8667 193.4131)" class="st7 st8">Keep Your Dreams Alive</text>
</svg>
