<?xml version="1.0" encoding="UTF-8"?>
<svg version="1.1" viewBox="0 0 2048 2048" width="1280" height="1280" xmlns="http://www.w3.org/2000/svg">
<path transform="translate(1214)" d="m0 0h11l7 6 9 14 10 18 11 24 9 25 9 29 6 31 3 30v34l-3 27-5 25-7 24-11 27-14 27-10 16-10 14-10 13-13 16-9 10-15 15-7 8-30 30-8 7-10 9-11 9-7 7-11 9-14 12-14 11-15 13-14 11-13 11-11 9-17 14-13 11-13 12-12 11-13 12-12 11-7 8-12 14-14 21-8 17-4 17v39l3 28 9 50 6 25 12 43 20 59 20 50 13 30 22 48 1 3v8l-4 7-6 5-7 1-10-4-14-11-10-9-11-9-8-8-8-7-48-48-7-8-10-11-9-11-14-17-15-20-16-23-13-21-13-23-11-22-10-24-9-27-6-27-3-17-2-35 1-17 4-24 6-23 10-25 12-22 7-14 10-16 14-20 10-14 12-14 9-11 12-13 11-12 15-15 8-7 12-11 11-9 14-12 14-11 18-14 14-10 72-52 17-12 19-14 26-20 11-9 10-9 8-8 8-7 10-10 11-14 7-10 9-16 8-18 7-15 12-36 6-26 4-23 3-36v-25l-2-26-2-20 4-6z" fill="#DB4016"/>
<path transform="translate(565,1703)" d="m0 0h18l8 5 4 7v8l-4 8-6 4-36 8-39 9-37 11-30 11-16 8-10 6v2l16 8 15 5 25 7 43 9 56 9 63 8 50 5 63 5 82 4 61 2h90l101-3 78-5 52-4 87-9 67-9 46-7 60-11 56-12 48-13 29-10 16-8 5-5 3-5-2-9-4-11 2-8 5-6 7-3 9 1 9 5 13 13 8 13 6 18v13l-4 14-6 11-11 13-14 11-17 10-28 13-13 6-26 9-38 13-54 14-39 9-60 11-47 8-96 12-41 4-115 8-56 2-92 2h-75l-119-2-101-5-43-3-79-8-47-7-39-7-52-13-25-9-21-9-17-10-11-8-13-12-9-12-7-16-2-8-1-10 2-16 4-11 9-12 10-9 13-8 16-8 17-7 31-9 38-8 39-6 49-5z" fill="#71A0FC"/>
<path transform="translate(761,1106)" d="m0 0h10l8 3 5 5 2 4v10l-4 6-5 4-18 5-46 11-29 9-30 10-30 13-17 10-4 5 18 5 30 5 45 5 60 4 53 2 54 1h65l62-1 60-2 107-6 50-4 49-5 56-7 54-9 50-11h12l6 4 4 5 1 2v10l-7 10-10 7-17 11-24 13-16 8-27 12-25 10-51 17-30 8-64 15-52 9-44 6-39 4-38 3-58 3-42 1h-100l-37-1-63-4-56-6-43-7-26-5-41-11-25-9-18-8-16-9-15-10-8-7-9-11-7-12-4-12-1-17 4-16 6-11 9-10 9-8 16-10 19-9 30-10 25-6 42-8 38-5 41-4 32-2 23-1z" fill="#71A0FC"/>
<path transform="translate(1400,424)" d="m0 0 8 1 5 3 5 6 1 3v9l-6 8-12 10-13 10-32 26-17 14-13 11-10 8-13 11-12 11-8 7-10 9-8 7-10 10-8 7-25 25-7 8-13 14-10 13-13 19-10 19-6 16-3 11-1 7v23l3 14 6 16 10 19 16 25 17 26 9 15 10 18 12 27 9 30 4 23v28l-4 24-6 20-10 24-12 21-12 17-13 18-13 14-7 8-22 22-8 7-15 12-12 9-9 3-7-1-5-3-5-8v-8l5-15 7-16 10-30 6-27 3-21v-15l-3-15-8-16-16-21-10-13-14-18-10-13-16-24-9-16-8-15-10-25-6-18-6-24-5-31-2-27v-29l3-18 5-15 9-22 14-23 8-11 9-11 11-13 29-29 22-18 15-12 17-12 14-10 17-11 19-12 23-13 25-14 23-13 24-12 23-11 21-10 40-17 22-9z" fill="#DB4016"/>
<path transform="translate(734,1559)" d="m0 0h13l8 3 5 6 1 3v10l-8 11-2 4 11 3 24 6 44 7 35 4 45 4 45 2h66l33-3 54-8 58-9 56-10h10l12 6 52 32 28 17 17 11 7 8 1 2v9l-5 8-9 5-19 8-37 13-41 12-47 11-50 9-40 5-43 4-44 2h-50l-42-2-50-4-45-5-49-8-39-9-29-9-26-11-16-9-12-9-11-10-9-13-5-11-3-13v-15l4-16 7-11 11-12 15-10 16-7 20-6 24-4z" fill="#71A0FC"/>
<path transform="translate(689,1344)" d="m0 0h11l7 4 4 7 1 6-2 7-5 6-16 9-7 6-2 6 4 4 13 5 36 7 19 3 54 5 40 2 33 1h47l60-2 64-5 35-4 65-9 62-11 65-14h9l11 6 15 11 23 16 20 14 17 12 7 7 2 4v9l-3 6-5 4-11 4-41 9-75 15-49 9-69 11-69 9-66 6-31 2-59 2-41-1-35-2-46-5-45-7-37-8-36-10-19-7-18-7-24-14-11-8-7-6-9-13-4-9-1-4v-16l5-13 11-14 13-10 15-9 20-9 31-10z" fill="#71A0FC"/>
<path transform="translate(1745,1825)" d="m0 0h7l8 4 5 8v11l-6 18-10 19-8 11-11 13-7 8-11 11-17 13-21 14-22 12-21 10-26 10-31 10-31 8-39 8-64 10-51 7-86 9-87 6-45 2-30 1h-101l-58-2-85-5-50-4-61-6-73-9-103-17-39-8-7-3-5-4-3-7 1-9 5-7 8-4h14l162 5 102 2h283l72-2 76-3 82-6 37-4 54-8 39-9 44-11 56-18 27-11 24-10 23-11 20-11 20-12 18-13 13-11z" fill="#71A0FC"/>
<path transform="translate(1604,1079)" d="m0 0h30l23 3 21 6 17 7 18 11 14 12 12 12 12 17 8 14 11 26 6 21 5 21 2 14v26l-4 25-6 18-8 18-9 15-12 17-16 17-12 12-11 9-10 8-16 11-15 10-25 14-23 12-29 13-28 11-29 10-21 7-40 11-12 3h-9l-8-5-4-6-1-7 3-8 10-9 14-10 19-14 18-13 22-18 13-11 14-12 7-7 8-7 8-8 6-5 7-8 8-8 7-8 10-11 14-19 9-13 9-16 6-15 4-16v-17l-4-16-8-15-8-10-7-7-14-9-16-9-14-6-22-7-28-6-21-3-25-2-12-3-5-6-2-5v-8l4-6 6-5 14-7 28-11 30-9 25-6 20-3z" fill="#71A0FC"/>
</svg>
