<svg width="116" height="114" viewBox="0 0 116 114" fill="none" xmlns="http://www.w3.org/2000/svg">
<g id="Asset 4 1" clip-path="url(#clip0_103_2889)">
<g id="Layer_1-2">
<g id="Clip path group">
<mask id="mask0_103_2889" style="mask-type:luminance" maskUnits="userSpaceOnUse" x="0" y="0" width="116" height="114">
<g id="clippath">
<path id="Vector" d="M116 0H0V114H116V0Z" fill="white"/>
</g>
</mask>
<g mask="url(#mask0_103_2889)">
<g id="Group">
<g id="Group_2">
<path id="Vector_2" d="M20.5289 0H95.4456C98.1421 0 100.813 0.525 103.306 1.575C105.799 2.625 108.063 4.15 109.971 6.075C111.879 8 113.38 10.275 114.423 12.8C115.466 15.325 115.975 18 115.975 20.725V93.3C115.975 96.025 115.44 98.725 114.423 101.225C113.38 103.75 111.879 106.025 109.971 107.95C108.063 109.875 105.799 111.4 103.306 112.425C100.813 113.475 98.1421 114 95.4456 114H20.5289C17.8325 114 15.1614 113.475 12.6684 112.425C10.1754 111.375 7.9114 109.85 6.00351 107.95C4.09561 106.025 2.59474 103.75 1.55175 101.225C0.534211 98.7 0 96 0 93.3V20.7C0 17.975 0.534211 15.275 1.55175 12.775C2.59474 10.25 4.09561 7.975 6.00351 6.05C7.9114 4.125 10.1754 2.6 12.6684 1.55C15.1614 0.525 17.8325 0 20.5289 0Z" fill="white"/>
<path id="Vector_3" d="M57.8222 18.8C37.7257 18.8 38.9722 27.375 38.9722 27.375V36.25H58.1783V38.925H31.3915C31.3915 38.925 18.5195 37.5 18.5195 57.425C18.5195 77.3501 29.738 76.6501 29.738 76.6501H36.4283V67.4001C36.4283 67.4001 36.0722 56.375 47.4687 56.375H66.4967C66.4967 56.375 77.1809 56.5501 77.1809 46.225V29.15C77.1809 29.15 78.809 18.825 57.7967 18.825L57.8222 18.8ZM47.2397 24.775C49.1476 24.775 50.6994 26.3001 50.6994 28.1751C50.6994 30.0501 49.1476 31.5751 47.2397 31.5751C45.3318 31.5751 43.7801 30.0501 43.7801 28.1751C43.7801 26.3001 45.3318 24.775 47.2397 24.775Z" fill="url(#paint0_linear_103_2889)"/>
<path id="Vector_4" d="M58.4071 96.2251C78.5036 96.2251 77.2571 87.6501 77.2571 87.6501V78.7751H58.0509V76.1001H84.8632C84.8632 76.1001 97.7351 77.5251 97.7351 57.6001C97.7351 37.6751 86.5167 38.3751 86.5167 38.3751H79.8264V47.6251C79.8264 47.6251 80.1825 58.6501 68.786 58.6501H49.758C49.758 58.6501 39.0737 58.4751 39.0737 68.8001V85.8751C39.0737 85.8751 37.4457 96.2001 58.458 96.2001L58.4071 96.2251ZM68.9895 90.2501C67.0816 90.2501 65.5299 88.7251 65.5299 86.8501C65.5299 84.9751 67.0816 83.4501 68.9895 83.4501C70.8974 83.4501 72.4492 84.9751 72.4492 86.8501C72.4492 88.7251 70.8974 90.2501 68.9895 90.2501Z" fill="url(#paint1_linear_103_2889)"/>
</g>
</g>
</g>
</g>
</g>
</g>
<defs>
<linearGradient id="paint0_linear_103_2889" x1="25.9476" y1="25.75" x2="64.4396" y2="65.0445" gradientUnits="userSpaceOnUse">
<stop stop-color="#3A7FB9"/>
<stop offset="1" stop-color="#376A95"/>
</linearGradient>
<linearGradient id="paint1_linear_103_2889" x1="50.0378" y1="50.3251" x2="91.3872" y2="90.6436" gradientUnits="userSpaceOnUse">
<stop stop-color="#FEE053"/>
<stop offset="1" stop-color="#FFC433"/>
</linearGradient>
<clipPath id="clip0_103_2889">
<rect width="116" height="114" fill="white"/>
</clipPath>
</defs>
</svg>
