<svg width="115" height="115" viewBox="0 0 115 115" fill="none" xmlns="http://www.w3.org/2000/svg">
<g id="Asset 8 1" clip-path="url(#clip0_103_2848)">
<g id="Layer_1-2">
<g id="Group">
<path id="Vector" d="M94.875 0H20.125C9.00329 0 0 9.00329 0 20.125V94.875C0 105.997 9.00329 115 20.125 115H94.875C105.997 115 115 105.997 115 94.875V20.125C115 9.00329 105.997 0 94.875 0Z" fill="#2E110E"/>
<path id="Vector_2" d="M58.4586 70.2106H41.1581L36.8204 83.3498C36.77 83.7534 36.4926 83.9551 35.9882 83.9551H28.145C27.6406 83.9551 27.4641 83.7029 27.6154 83.1985L43.1252 38.636C43.4783 37.8794 43.7053 36.4924 43.8062 34.4244C43.8062 34.1218 43.9827 33.9705 44.3358 33.9705H55.0792C55.3314 33.9705 55.5331 34.0966 55.6844 34.3487L72.9849 83.2742C73.1362 83.7281 72.9849 83.9551 72.5309 83.9551H63.7294C63.3763 83.9551 63.1241 83.7786 62.9728 83.4255L58.4333 70.2106H58.4586ZM43.1 62.9222H56.5167C56.3149 62.2161 55.2809 59.0384 53.3895 53.3893C51.5485 47.6898 50.338 43.7808 49.7327 41.6876H49.657C49.0518 44.2347 46.8829 51.3213 43.1 62.9222Z" fill="#F2A034"/>
<path id="Vector_3" d="M77.6249 83.2742V48.0176C77.6249 47.6141 77.8267 47.4123 78.2302 47.4123H86.5021C86.9056 47.4123 87.1074 47.6141 87.1074 48.0176V83.3498C87.1074 83.7533 86.9056 83.9551 86.5021 83.9551H78.3058C77.8519 83.9551 77.6249 83.7281 77.6249 83.2742ZM86.0482 39.8213C85.1655 40.7292 83.9297 41.1832 82.3914 41.1832C80.853 41.1832 79.6425 40.7292 78.7346 39.8213C77.8519 38.9134 77.3979 37.7029 77.3979 36.1393C77.3979 34.5757 77.8771 33.4156 78.8102 32.4573C79.7433 31.4989 80.9791 31.0198 82.467 31.0198C83.955 31.0198 85.1403 31.4989 86.0482 32.4573C86.9308 33.4156 87.3848 34.6261 87.3848 36.1393C87.3848 37.6525 86.9308 38.9134 86.0482 39.8213Z" fill="#F2A034"/>
</g>
</g>
</g>
<defs>
<clipPath id="clip0_103_2848">
<rect width="115" height="115" fill="white"/>
</clipPath>
</defs>
</svg>
