<svg width="190" height="94" viewBox="0 0 190 94" fill="none" xmlns="http://www.w3.org/2000/svg">
<g clip-path="url(#clip0_150_18026)">
<path d="M55.8867 59.8302V36.6453H58.8925L73.1805 55.3011V36.6453H76.0381V59.8302H73.0316L58.7436 40.9905V59.8302H55.8867ZM99.3048 58.9101C97.3568 59.6241 95.2954 59.9855 93.2187 59.9772C84.7574 59.9772 80.5267 55.954 80.5267 47.9077C80.5267 40.2909 84.6086 36.4762 92.7726 36.4636C95.1103 36.4636 97.2999 36.7945 99.304 37.4207V39.9965C97.3282 39.2361 95.2263 38.8491 93.107 38.8555C86.723 38.8555 83.531 41.8699 83.531 47.8338C83.531 54.2733 86.685 57.4745 92.955 57.4745C93.9566 57.4745 95.07 57.3238 96.2952 57.0698V49.3078H99.301V58.9071L99.3048 58.9101ZM104.129 50.8881V36.6453H107.135V50.8881C107.135 55.3403 109.362 57.5853 113.852 57.5853C118.305 57.5853 120.569 55.3403 120.569 50.8881V36.6453H123.576V50.8881C123.576 56.9598 120.348 60.0134 113.853 60.0134C107.359 60.0134 104.129 56.9568 104.129 50.8851V50.8881ZM131.961 36.6453V57.3984H144.207V59.8302H128.955V36.6453H131.961ZM148.549 59.8302H145.395L157.01 33.5947L168.625 59.8302H165.285L162.279 52.5445H154.561L155.377 50.1089H161.277L156.898 39.6219L148.549 59.8302ZM171.854 59.8302V36.6453H181.836C186.289 36.6453 188.516 38.4848 188.516 42.2015C188.516 45.2158 186.326 47.4631 181.984 48.8986L190 59.8302H186.029L178.608 49.4133V47.4631C183.061 46.7637 185.325 45.0712 185.325 42.3484C185.325 40.2143 184.1 39.1472 181.614 39.1472H174.934V59.8302H171.854Z" fill="#B52E31"/>
<path d="M0 30.4628L23.9354 22L48.5017 30.3159L44.5307 61.7029L23.9347 72.9992L3.67384 61.8506L0 30.4628Z" fill="#E23237"/>
<path d="M48.5018 30.3159L23.9355 22V73L44.5315 61.7037L48.5025 30.3166L48.5018 30.3159Z" fill="#B52E31"/>
<path d="M23.9727 27.9609L9.05469 60.8567L14.6209 60.7467L17.6267 53.314H30.9495L34.2175 60.8205L39.52 60.9305L23.9727 27.9609ZM24.01 38.5218L29.0571 48.9718H19.5936L24.01 38.5218Z" fill="white"/>
</g>
<defs>
<clipPath id="clip0_150_18026">
<rect width="190" height="51" fill="white" transform="translate(0 22)"/>
</clipPath>
</defs>
</svg>
