<svg width="115" height="115" viewBox="0 0 115 115" fill="none" xmlns="http://www.w3.org/2000/svg">
<g id="Asset 18 1" clip-path="url(#clip0_103_2764)">
<g id="Layer_1-2">
<g id="Group">
<path id="Vector" d="M20.352 0H94.6228C97.2961 0 99.9441 0.529605 102.416 1.58882C104.887 2.64803 107.132 4.1864 109.023 6.12829C110.914 8.07018 112.402 10.3651 113.436 12.9123C114.47 15.4594 114.975 18.1579 114.975 20.9068V94.1184C114.975 96.8673 114.445 99.591 113.436 102.113C112.402 104.66 110.914 106.955 109.023 108.897C107.132 110.839 104.887 112.377 102.416 113.411C99.9441 114.47 97.2961 115 94.6228 115H20.352C17.6787 115 15.0307 114.47 12.5592 113.411C10.0877 112.352 7.8432 110.814 5.95175 108.897C4.06031 106.955 2.57237 104.66 1.53838 102.113C0.529605 99.5658 0 96.8421 0 94.1184V20.8816C0 18.1327 0.529605 15.409 1.53838 12.8871C2.57237 10.3399 4.06031 8.04496 5.95175 6.10307C7.8432 4.16118 10.0877 2.62281 12.5592 1.5636C15.0307 0.529605 17.6787 0 20.352 0Z" fill="white"/>
<g id="Group_2">
<path id="Vector_2" d="M94.0678 33.819L59.7444 14.0471C59.1643 13.694 58.3825 13.5427 57.5503 13.5427C56.718 13.5427 55.911 13.7445 55.3562 14.0471L21.2345 33.8695C20.024 34.5756 19.1665 36.3662 19.1665 37.7028V77.2971C19.1665 78.0789 19.3178 79.012 19.8726 79.7938L95.7827 35.7357C95.354 34.8783 94.7235 34.2478 94.0678 33.819Z" fill="#D36484"/>
<path id="Vector_3" d="M19.6455 79.7434C19.9986 80.3235 20.503 80.8026 21.0073 81.1053L55.2552 100.928C55.8352 101.281 56.617 101.432 57.4492 101.432C58.2815 101.432 59.0885 101.23 59.6433 100.928L93.765 81.1053C94.9755 80.3991 95.833 78.6085 95.833 77.2719V37.6776C95.833 37.0471 95.7573 36.3158 95.4043 35.6853L19.6455 79.7434Z" fill="#9C1B3D"/>
<path id="Vector_4" d="M72.6819 66.0998C69.7061 71.3706 64.0065 74.9013 57.5504 74.9013C47.967 74.9013 40.149 67.0833 40.149 57.5C40.149 47.9167 47.967 40.0987 57.5504 40.0987C64.0065 40.0987 69.7061 43.6546 72.6819 48.9759L81.9122 43.6546C77.0701 35.2061 67.9911 29.4309 57.5251 29.4309C42.0405 29.4309 29.4561 42.0153 29.4561 57.5C29.4561 72.9846 42.0405 85.5691 57.5251 85.5691C67.8903 85.5691 76.9944 79.8947 81.8365 71.4967L72.6567 66.0998H72.6819Z" fill="white"/>
<path id="Vector_5" d="M70.3867 55.9364H74.094V52.1787H77.2212V55.9364H80.9788V59.0636H77.2212V62.7708H74.094V59.0636H70.3867V55.9364ZM83.526 55.9364H87.2332V52.1787H90.3604V55.9364H94.1181V59.0636H90.3604V62.7708H87.2332V59.0636H83.526V55.9364Z" fill="white"/>
</g>
</g>
</g>
</g>
<defs>
<clipPath id="clip0_103_2764">
<rect width="115" height="115" fill="white"/>
</clipPath>
</defs>
</svg>
