<svg width="114" height="115" viewBox="0 0 114 115" fill="none" xmlns="http://www.w3.org/2000/svg">
<g id="Asset 19 1" clip-path="url(#clip0_103_2748)">
<g id="Layer_1-2">
<g id="Group">
<path id="Vector" d="M20.175 0H93.8C96.45 0 99.075 0.529605 101.525 1.58882C103.975 2.64803 106.2 4.1864 108.075 6.12829C109.95 8.07018 111.425 10.3651 112.45 12.9123C113.475 15.4594 113.975 18.1579 113.975 20.9068V94.1184C113.975 96.8673 113.45 99.591 112.45 102.113C111.425 104.66 109.95 106.955 108.075 108.897C106.2 110.839 103.975 112.377 101.525 113.411C99.075 114.47 96.45 115 93.8 115H20.175C17.525 115 14.9 114.47 12.45 113.411C10 112.352 7.775 110.814 5.9 108.897C4.025 106.955 2.55 104.66 1.525 102.113C0.525 99.5658 0 96.8421 0 94.1184V20.8816C0 18.1327 0.525 15.409 1.525 12.8871C2.55 10.3399 4.025 8.04496 5.9 6.10307C7.775 4.16118 10 2.62281 12.45 1.5636C14.9 0.529605 17.525 0 20.175 0Z" fill="white"/>
<g id="Group_2">
<path id="Vector_2" d="M93.25 33.819L59.225 14.0471C58.65 13.694 57.875 13.5427 57.05 13.5427C56.225 13.5427 55.425 13.7445 54.875 14.0471L21.05 33.8695C19.85 34.5756 19 36.3662 19 37.7028V77.2971C19 78.0789 19.15 79.012 19.7 79.7938L94.95 35.7357C94.525 34.8783 93.9 34.2478 93.25 33.819Z" fill="#9C5097"/>
<path id="Vector_3" d="M19.4751 79.7434C19.8251 80.3235 20.3251 80.8026 20.8251 81.1053L54.7751 100.928C55.3501 101.281 56.1251 101.432 56.9501 101.432C57.7751 101.432 58.5751 101.23 59.1251 100.928L92.9501 81.1053C94.1501 80.3991 95.0001 78.6085 95.0001 77.2719V37.6776C95.0001 37.0471 94.9251 36.3158 94.5751 35.6853L19.4751 79.7434Z" fill="#682A7A"/>
<path id="Vector_4" d="M72.0502 66.0998C69.1002 71.3706 63.4502 74.9013 57.0502 74.9013C47.5502 74.9013 39.8002 67.0833 39.8002 57.5C39.8002 47.9167 47.5502 40.0987 57.0502 40.0987C63.4502 40.0987 69.1002 43.6546 72.0502 48.9759L81.2002 43.6546C76.4002 35.2061 67.4002 29.4309 57.0252 29.4309C41.6752 29.4309 29.2002 42.0153 29.2002 57.5C29.2002 72.9846 41.6752 85.5691 57.0252 85.5691C67.3002 85.5691 76.3252 79.8947 81.1252 71.4967L72.0252 66.0998H72.0502ZM80.3002 59.0636L80.9252 56.012H77.9752V52.6831H81.5752L82.4252 48.2697H85.8752L85.0252 52.6074H87.7002L88.5502 48.2697H91.9252L91.0752 52.6074H92.7752V55.9364H90.4502L89.8252 58.9879H92.7752V62.3169H89.1752L88.3252 66.5789H84.8752L85.7252 62.3169H83.0502L82.2002 66.5789H78.8252L79.6752 62.3169H77.9752V58.9879H80.3002V59.0636ZM83.6752 59.0636H86.3502L86.9752 56.012H84.3002L83.6752 59.0636Z" fill="white"/>
</g>
</g>
</g>
</g>
<defs>
<clipPath id="clip0_103_2748">
<rect width="114" height="115" fill="white"/>
</clipPath>
</defs>
</svg>
