<svg width="190" height="94" viewBox="0 0 190 94" fill="none" xmlns="http://www.w3.org/2000/svg">
<g clip-path="url(#clip0_150_18004)">
<g clip-path="url(#clip1_150_18004)">
<path d="M94.7191 94.186L66.9946 86.5637L60.8127 17.5911H128.813L122.631 86.3778L94.7191 94.186Z" fill="#264DE4"/>
<path d="M117.199 82.1017L122.444 23.1682H94.9065V88.2367L117.199 82.1017Z" fill="#2965F1"/>
<path d="M74.8624 48.8239L75.6117 57.3758H94.7191V48.8239H74.8624ZM73.3638 31.7202L74.1131 40.2721H94.7191V31.7202H73.3638ZM94.7191 70.9472L85.1654 68.3445L84.6034 61.6517H75.9864L77.2977 74.8513L94.7191 79.685V70.9472Z" fill="#EBEBEB"/>
<path d="M76.7356 -1H87.0386V3.27593H81.0441V7.55186H87.0386V11.8278H76.7356V-1ZM89.0992 -1H99.4023V2.7182H93.4078V3.46184H99.4023V12.0137H89.0992V8.10959H95.0937V7.36595H89.0992V-1ZM101.463 -1H111.766V2.7182H105.771V3.46184H111.766V12.0137H101.463V8.10959H107.457V7.36595H101.463V-1Z" fill="black"/>
<path d="M114.576 48.8239L116.074 31.7202H94.719V40.2721H106.708L105.959 48.8239H94.719V57.3758H105.209L104.273 68.3445L94.719 70.9472V79.8709L112.14 75.0372L112.328 73.55L114.388 51.2408L114.576 48.8239Z" fill="white"/>
</g>
</g>
<defs>
<clipPath id="clip0_150_18004">
<rect width="190" height="94" fill="white"/>
</clipPath>
<clipPath id="clip1_150_18004">
<rect width="68" height="95" fill="white" transform="translate(61 -1)"/>
</clipPath>
</defs>
</svg>
