<svg width="115" height="115" viewBox="0 0 115 115" fill="none" xmlns="http://www.w3.org/2000/svg">
<g id="Asset 20 1" clip-path="url(#clip0_103_2741)">
<g id="Layer_1-2">
<g id="Group">
<path id="Vector" d="M20.352 0H94.6228C97.2961 0 99.9441 0.529605 102.416 1.58882C104.887 2.64803 107.132 4.1864 109.023 6.12829C110.914 8.07018 112.402 10.3651 113.436 12.9123C114.47 15.4594 114.975 18.1579 114.975 20.9068V94.1184C114.975 96.8673 114.445 99.591 113.436 102.113C112.402 104.66 110.914 106.955 109.023 108.897C107.132 110.839 104.887 112.377 102.416 113.411C99.9441 114.47 97.2961 115 94.6228 115H20.352C17.6787 115 15.0307 114.47 12.5592 113.411C10.0877 112.352 7.8432 110.814 5.95175 108.897C4.06031 106.955 2.57237 104.66 1.53838 102.113C0.529605 99.5658 0 96.8421 0 94.1184V20.8816C0 18.1327 0.529605 15.409 1.53838 12.8871C2.57237 10.3399 4.06031 8.04496 5.95175 6.10307C7.8432 4.16118 10.0877 2.62281 12.5592 1.5636C15.0307 0.529605 17.6787 0 20.352 0Z" fill="white"/>
<g id="Group_2">
<path id="Vector_2" d="M54.4987 15.3586H68.2684V79.1382C61.207 80.4749 56.0118 81.0297 50.3627 81.0297C33.5415 81.0297 24.7651 73.4135 24.7651 58.8367C24.7651 44.26 34.0711 35.6602 48.4713 35.6602C50.7158 35.6602 52.4055 35.8367 54.4735 36.3663V15.3586H54.4987ZM54.4987 47.4628C52.8847 46.9332 51.548 46.7567 49.8583 46.7567C42.8726 46.7567 38.8627 51.0439 38.8627 58.5593C38.8627 66.0747 42.7213 69.9332 49.7827 69.9332C51.2958 69.9332 52.5568 69.8323 54.5239 69.5801V47.488L54.4987 47.4628Z" fill="#092E21"/>
<path id="Vector_3" d="M90.2092 36.6438V68.5966C90.2092 79.5922 89.4021 84.8883 86.9811 89.453C84.7366 93.8411 81.7859 96.6153 75.7081 99.6668L62.9219 93.5889C68.9997 90.7139 71.9504 88.2172 73.8418 84.3839C75.8089 80.4497 76.4394 75.885 76.4394 63.8806V36.6438H90.2092ZM76.4394 15.4343H90.2092V29.5824H76.4394V15.4343Z" fill="#092E21"/>
</g>
</g>
</g>
</g>
<defs>
<clipPath id="clip0_103_2741">
<rect width="115" height="115" fill="white"/>
</clipPath>
</defs>
</svg>
