<svg width="115" height="115" viewBox="0 0 115 115" fill="none" xmlns="http://www.w3.org/2000/svg">
<g id="Asset 24 1" clip-path="url(#clip0_103_2707)">
<g id="Layer_1-2">
<g id="Group">
<path id="Vector" d="M20.352 0H94.6228C97.2961 0 99.9441 0.529605 102.416 1.58882C104.887 2.64803 107.132 4.1864 109.023 6.12829C110.914 8.07018 112.402 10.3651 113.436 12.9123C114.47 15.4594 114.975 18.1579 114.975 20.9068V94.1184C114.975 96.8673 114.445 99.591 113.436 102.113C112.402 104.66 110.914 106.955 109.023 108.897C107.132 110.839 104.887 112.377 102.416 113.411C99.9441 114.47 97.2961 115 94.6228 115H20.352C17.6787 115 15.0307 114.47 12.5592 113.411C10.0877 112.352 7.8432 110.814 5.95175 108.897C4.06031 106.955 2.57237 104.66 1.53838 102.113C0.529605 99.5658 0 96.8421 0 94.1184V20.8816C0 18.1327 0.529605 15.409 1.53838 12.8871C2.57237 10.3399 4.06031 8.04496 5.95175 6.10307C7.8432 4.16118 10.0877 2.62281 12.5592 1.5636C15.0307 0.529605 17.6787 0 20.352 0Z" fill="white"/>
<g id="Group_2">
<path id="Vector_2" d="M21.8145 74.5231C20.2005 73.237 18.4603 72.0264 17.275 70.2863C14.7783 67.2348 12.8616 63.7293 11.5502 60.022C10.7684 57.601 10.491 55.0286 9.45703 52.7085C8.39782 51.0188 9.63357 49.1778 11.4746 48.6481C12.2816 48.4968 13.7443 47.715 12.0042 48.2699C10.4406 49.4047 10.2893 47.2359 11.9033 47.0845C12.9877 46.9332 13.3912 46.0506 13.013 45.2435C11.8529 44.487 15.8627 43.6295 13.8452 42.4946C11.752 40.2249 16.7958 39.7962 15.5349 42.3685C15.2323 44.3609 19.0656 42.0155 18.1829 44.2852C19.0908 45.3949 21.5623 44.5374 21.5119 46.0758C22.8233 46.1767 23.2772 47.2611 24.513 47.362C25.7991 47.942 28.1193 48.396 28.548 49.8335C27.2871 50.8422 24.3364 47.7655 24.2103 50.5396C24.5886 54.6503 24.4877 58.8872 26.0009 62.7962C26.707 65.1668 28.4219 67.033 29.9855 68.874C31.4735 70.6898 33.491 71.9508 35.559 73.01C37.3496 73.8675 39.3167 74.4223 41.2586 74.7753C42.0656 74.1701 43.4526 71.9003 44.7136 72.8587C44.7641 73.9431 42.2421 75.1032 44.5875 74.9771C45.9746 74.5484 46.9329 76.0363 48.0678 74.6997C49.1018 75.9354 52.4055 73.9179 51.6741 76.4398C50.6654 77.0955 49.2027 76.692 48.1939 77.5999C46.5294 76.7677 45.218 78.3313 43.377 78.1547C41.3342 78.5078 39.241 78.6591 37.173 78.6591C33.7684 78.3817 30.3134 78.2808 27.0601 77.0955C25.2443 76.5659 23.4537 75.5319 21.8649 74.4979L21.8145 74.5231ZM24.6895 75.7589C26.4801 76.5155 28.2202 77.3477 30.1621 77.5747C33.2641 78.0034 36.4417 78.6591 39.5437 78.0539C38.1314 77.4234 36.6939 78.306 35.2816 77.5999C33.5919 77.953 31.8013 77.499 30.0864 77.2973C28.1445 76.4398 26.0513 75.8346 24.2355 74.7249C21.9658 73.8927 25.4208 75.7841 26.0261 75.9354C27.4384 76.7425 24.4625 75.5319 24.0338 75.1788C22.8485 74.5231 22.6972 74.6493 23.9077 75.3302C24.1599 75.4815 24.3869 75.6328 24.6643 75.7589H24.6895ZM21.3101 73.3631C23.025 73.9935 21.3101 72.1525 20.5031 72.2534C20.15 71.6481 19.1665 71.2699 19.8726 70.942C18.6116 71.3707 18.5612 69.2775 17.9812 69.5802C16.6445 69.1514 17.4768 67.6887 15.888 66.7808C15.7366 65.8225 14.3244 64.9903 13.8704 63.5528C13.6687 62.8214 12.2564 60.6778 13.1138 62.6701C13.8452 64.5867 15.1566 66.2008 16.2158 67.84C17.048 69.4036 18.0316 71.0177 19.57 71.976C20.0744 72.4804 20.5787 73.237 21.3101 73.3883V73.3631ZM16.3419 67.9157C16.3923 67.6635 16.6445 68.4705 16.3419 67.9157V67.9157ZM23.3781 74.1449C22.8233 73.9179 23.7564 73.9683 23.3781 74.1449V74.1449ZM24.3112 74.4979C23.8825 74.7501 24.2103 74.0188 24.3112 74.4979V74.4979ZM25.4713 74.9771C24.6138 74.6492 26.0261 74.4475 25.4713 74.9771V74.9771ZM27.4888 76.0867C26.4044 75.9102 27.8167 75.5824 27.4888 76.0867V76.0867ZM23.6303 73.3883C22.5206 73.3883 24.4877 72.8335 23.6303 73.3883V73.3883ZM24.513 73.817C24.2103 73.9431 24.513 73.5144 24.513 73.817V73.817ZM28.9011 76.5659C29.6073 77.0199 33.0371 77.5495 30.8934 76.7425C30.5404 76.8181 26.934 75.7337 28.9011 76.5659ZM21.9406 71.1438C20.8309 70.8159 21.8649 70.8411 21.9406 71.1438V71.1438ZM23.9833 72.3291C22.8737 72.0517 24.513 71.9508 23.9833 72.3291V72.3291ZM25.6983 73.3883C24.4625 73.1109 26.4548 73.1109 25.6983 73.3883V73.3883ZM21.1083 70.2359C21.9406 70.8664 24.4625 70.3115 22.3693 69.8576C21.4362 69.3532 19.2926 69.0001 20.7553 70.1602L21.1083 70.2359ZM26.8583 73.7414C25.4208 73.4135 27.2114 73.1613 26.8583 73.7414V73.7414ZM25.1182 72.3543C27.1358 72.9343 23.4033 71.0681 24.6138 72.1525L24.8912 72.2786L25.1182 72.3795V72.3543ZM28.6237 74.3718C26.8836 74.1196 30.5404 74.3718 28.6237 74.3718V74.3718ZM20.3518 69.101C19.8726 69.1262 20.2761 68.7479 20.3518 69.101V69.101ZM31.8518 76.1876C31.2213 76.6668 31.9022 75.5319 31.8518 76.1876V76.1876ZM23.6303 71.1185C23.025 71.1185 23.5042 70.7655 23.6303 71.1185V71.1185ZM20.5283 68.8992C19.0151 68.4201 21.638 68.8236 20.5283 68.8992V68.8992ZM16.8715 66.5286C15.661 65.5703 16.7454 65.999 16.8715 66.5286V66.5286ZM26.4801 72.6317C26.2783 72.4047 26.3792 72.6821 26.4801 72.6317V72.6317ZM32.457 76.3137C32.1292 76.4398 32.457 75.9607 32.457 76.3137V76.3137ZM25.9505 72.1021C25.0173 71.976 26.0513 71.6481 25.9505 72.1021V72.1021ZM21.4866 69.2775C20.1752 68.7227 22.2937 69.2019 21.4866 69.2775V69.2775ZM29.0272 73.9683C27.7915 73.7161 30.3134 73.4639 29.0272 73.9683V73.9683ZM25.093 71.2951C26.5557 71.4968 23.3529 70.2863 24.7651 71.1942L25.093 71.2951ZM30.2125 74.4475C31.5996 73.6153 31.1456 76.3642 32.5327 74.6745C33.9198 73.6657 31.3222 75.9354 33.0371 74.851C34.2728 74.0188 36.1138 75.2545 37.2739 75.6328C38.1062 75.5824 38.9132 76.3642 39.7706 75.885C41.4099 75.431 36.5678 75.2293 37.8287 74.4475C36.3156 74.8762 35.2059 73.9179 34.4746 72.9596C32.7849 72.5813 30.843 71.6986 30.0108 70.2106C29.6577 69.6558 30.5151 70.2863 29.7081 69.3784C28.6994 68.4705 28.195 67.4365 27.514 66.3521C26.707 65.9234 26.6062 64.6372 26.5305 66.3017C26.5305 65.2424 25.5469 64.5363 25.2948 64.8389C25.2948 63.8302 26.354 64.3345 25.5974 63.578C25.4461 62.5188 24.9165 61.4343 24.7399 60.249C24.4877 59.669 24.7147 58.4585 23.9077 59.7446C23.6051 61.1065 23.8068 58.0549 24.2608 59.0637C24.866 58.0297 24.0338 58.1558 24.0086 58.3071C24.3869 57.4497 24.2608 56.2139 23.9077 56.6679C24.1094 55.76 24.2355 53.2885 23.6051 53.7172C23.9833 52.7589 24.3364 49.3291 22.6467 50.6405C21.9658 50.6405 20.7805 50.8927 20.2257 51.1701C21.9658 52.1284 20.0491 51.5231 19.343 51.3718C19.2421 52.2545 18.536 51.8762 17.6533 51.9014C19.0656 52.078 16.9724 53.3389 16.1654 52.8598C15.1062 53.3642 17.0733 54.6251 16.1654 55.0034C16.2662 55.5835 14.5513 54.8017 14.7026 56.1383C13.6939 55.7095 14.5513 57.7271 15.0809 57.0462C16.8211 57.5253 16.2915 58.5845 16.3419 59.5933C16.0645 60.1734 14.9548 58.2063 16.0897 58.2819C15.1818 56.8192 15.0809 57.7523 14.3244 58.4332C14.1478 58.4837 16.241 59.4168 14.9296 59.8707C16.0897 60.0473 16.1149 61.056 16.3671 61.7117C17.0733 62.4431 16.9219 60.9047 17.7542 61.7874C17.2246 61.0056 14.9801 59.5933 16.7958 60.0473C16.7958 59.2655 16.468 58.635 17.0228 58.6602C17.5776 57.6514 16.4428 61.1317 17.6785 59.8455C18.0316 59.6942 18.1073 58.8367 18.7377 59.9212C19.6456 60.8038 19.0656 61.4596 17.8046 60.6273C18.0316 61.4091 19.4943 61.6613 19.2169 62.8718C19.5195 63.931 19.923 63.5528 20.2761 63.4771C20.5535 64.5111 20.7048 63.7545 20.7301 63.2501C22.0162 63.5275 21.7136 64.2841 22.1171 64.8137C22.9998 65.2172 20.8562 62.1153 22.3693 63.8806C23.9581 65.3181 22.9746 65.9234 21.5371 65.6964C22.445 65.6207 22.7476 66.9321 23.8825 66.8817C24.9165 67.3609 25.6226 69.2523 23.832 68.4705C23.2015 67.9157 21.0327 67.2348 22.8233 68.294C24.4625 69.0506 25.7739 69.5045 27.388 70.4881C28.5228 71.2951 29.0272 72.2282 29.4559 72.4299C28.4976 72.8839 26.5809 72.0517 27.9932 71.7995C27.1105 71.6481 26.1018 71.1942 26.9592 72.3039C27.6906 72.9091 29.5316 72.8587 29.8594 72.9091C29.582 73.5396 29.1029 73.5648 29.8594 73.6153C29.002 74.0692 30.1369 74.1449 30.2125 74.4223V74.4475ZM28.4472 69.4541C27.9176 68.8992 27.7915 67.8653 28.3463 68.7731C28.6489 68.8992 29.2794 70.4628 28.4472 69.4541ZM34.1972 73.1109C34.1972 73.3631 34.525 73.1109 34.1972 73.1109V73.1109ZM27.6149 68.0922C27.6149 67.26 27.8167 68.7227 27.6149 68.0922V68.0922ZM27.0349 67.3356C26.3792 66.0495 27.8671 67.6887 27.0349 67.3356V67.3356ZM20.0996 62.544C20.3013 63.1997 20.4779 62.4431 20.0996 62.544V62.544ZM25.6226 65.5451C25.8496 64.6372 25.9 66.3017 25.6226 65.5451V65.5451ZM21.7136 62.8214C21.4362 62.317 22.2937 63.2753 21.7136 62.8214V62.8214ZM25.0678 63.9058C24.4373 62.4935 25.5217 63.1492 25.2191 64.1328L25.0678 63.9058ZM19.2926 60.0473C19.0151 59.5933 18.5612 58.2315 18.6873 57.828C18.8134 58.5089 20.1248 60.7282 19.3178 58.7359C18.4351 57.0714 20.377 59.2655 20.5535 59.6942C20.6544 60.0977 20.0239 59.5933 20.4526 60.5517C19.6708 59.4672 19.9987 61.1569 19.2673 60.0473H19.2926ZM17.502 58.8115C17.5776 57.7523 17.9055 59.5429 17.502 58.8115V58.8115ZM18.309 59.0889C18.6873 58.2819 18.9647 60.2238 18.309 59.0889V59.0889ZM16.3671 57.601C15.7114 56.9453 15.2323 56.34 16.3923 57.1975C16.8463 57.1975 15.3836 55.8104 16.4932 56.7435C17.6785 56.9705 17.0733 58.6602 16.3419 57.601H16.3671ZM17.3759 57.5758C17.5776 57.9541 17.7542 57.1975 17.3759 57.5758V57.5758ZM18.0064 57.7775C17.4263 56.6931 18.7125 58.2315 18.0064 57.7775V57.7775ZM16.7706 56.5922C14.8287 54.8773 19.1917 57.5001 17.0733 56.9201L16.7706 56.5922ZM22.2937 59.7951C21.4614 59.2907 22.0667 56.2644 22.3693 58.3324C23.1763 58.0802 22.3189 59.3916 22.9241 59.3916C22.8233 60.2238 22.5458 60.5264 22.2937 59.7951ZM24.3364 61.0056C24.4121 60.0977 24.513 61.6361 24.3364 61.0056V61.0056ZM23.9833 60.6525C23.9833 61.1065 24.0842 60.2742 23.9833 60.6525V60.6525ZM17.1489 56.0122C15.9132 54.2973 20.7553 57.7523 17.9559 56.4409C17.6533 56.3652 17.3002 56.34 17.1489 56.0122ZM21.0831 58.1054C20.957 56.6679 21.3353 58.3324 21.0831 58.1054V58.1054ZM24.0842 60.022C24.0842 60.5769 24.3112 59.1898 24.0842 60.022V60.022ZM17.3507 55.3565C18.082 55.2052 20.4022 56.6427 18.2838 55.76C18.0568 55.5078 17.5524 55.6087 17.3507 55.3565ZM23.6807 58.5089C23.7564 57.0462 24.1094 57.6262 23.6807 58.7106V58.5089ZM17.9055 54.8521C18.2081 54.4234 17.0985 52.8598 18.0568 54.2973C18.4603 54.6251 19.2421 54.8521 18.5612 54.9782C19.6456 55.9365 18.309 55.2304 17.9055 54.8521ZM23.3781 58.0549C23.5546 59.0385 23.5798 56.3653 23.3781 58.0549V58.0549ZM17.275 53.2885C17.4011 53.5911 17.502 53.1876 17.275 53.2885V53.2885ZM18.7125 54.146C19.0908 53.3642 19.3934 55.0034 18.7125 54.146V54.146ZM22.7224 56.3905C22.7224 56.0878 22.798 56.8192 22.7224 56.3905V56.3905ZM22.4954 55.8861C21.9406 54.499 23.025 56.6174 22.4954 55.8861V55.8861ZM22.1423 54.9782C22.0415 54.3981 22.4702 55.6843 22.1423 54.9782V54.9782ZM22.6972 54.0703C22.3189 53.3894 23.1763 51.0944 23.2772 52.5319C22.8737 53.6416 23.1511 54.272 23.4537 52.7841C23.9833 51.5988 23.3529 55.1043 22.6972 54.0955V54.0703ZM23.2772 50.6405C23.3024 50.8927 23.4537 50.4387 23.2772 50.6405V50.6405ZM22.3189 69.5045C22.0919 69.3028 22.3441 69.6306 22.3189 69.5045V69.5045ZM24.286 70.5133C25.3956 70.7907 25.3704 70.3367 24.3869 70.2106C23.8573 69.7063 22.1676 69.1767 23.6807 70.1602C23.7816 70.4124 24.0842 70.4124 24.286 70.5385V70.5133ZM20.4022 67.9157C21.0075 68.3696 22.6719 69.2019 21.2597 68.0922C21.7388 67.5374 20.3518 67.2348 20.8057 66.8817C19.6204 66.1756 19.8726 66.226 20.7048 66.2512C19.2926 65.6207 20.9066 65.6712 20.8309 65.3433C20.2761 65.2424 18.1325 64.385 19.3934 65.419C18.1073 64.7633 19.0908 65.6712 18.6873 65.5703C17.3759 65.2172 19.8726 66.5791 18.4855 66.226C19.2421 66.8313 20.5283 67.7644 18.8134 66.8565C18.5864 67.1843 20.0491 67.6635 20.4022 67.9157ZM22.4702 69.101C21.2344 68.1174 24.9669 69.908 22.4702 69.101V69.101ZM33.0371 75.5067C32.684 75.9354 33.0623 75.0023 33.0371 75.5067V75.5067ZM34.1215 75.9607C34.7016 75.4058 34.1215 76.8433 35.0798 75.8346C35.0798 75.1032 35.0546 74.6492 33.9954 75.5571C33.718 75.7085 33.5667 76.3894 34.1215 75.9607ZM16.8967 65.1416C15.661 64.4354 16.7202 64.4354 16.8967 65.1416V65.1416ZM18.0568 65.8981C16.5184 65.2424 17.6281 65.192 18.0568 65.8981V65.8981ZM24.6643 69.8828C25.32 70.4628 27.6149 70.3115 25.4461 69.9585C25.1182 69.4793 23.4033 69.6054 24.6643 69.8828ZM33.718 75.4815C32.7597 75.8598 34.7016 74.6492 33.718 75.4815V75.4815ZM35.786 76.8938C35.3573 77.0199 35.786 76.6164 35.786 76.8938V76.8938ZM35.786 76.5155C34.7268 76.5911 36.8704 75.3554 35.786 76.5155V76.5155ZM14.0469 62.7457C13.1138 61.4091 13.4669 60.8038 12.559 59.7194C12.3825 58.8872 11.0206 56.9957 11.8529 58.9881C12.6094 60.1481 12.8364 61.9639 14.0469 62.7457ZM35.4329 76.1372C34.6007 75.5571 37.4505 74.8258 35.4329 76.1372V76.1372ZM36.9713 76.7425C36.3408 76.5659 37.9801 75.885 36.9713 76.7425V76.7425ZM16.5437 63.6536C15.7871 63.6032 16.8211 63.2249 16.5437 63.6536V63.6536ZM36.6434 76.3389C37.627 75.7085 36.4165 75.8093 36.4669 76.3894L36.6434 76.3389ZM23.3529 67.9661C22.8233 67.9914 23.3276 67.5374 23.3529 67.9661V67.9661ZM24.1851 68.4453C23.7816 68.521 23.9329 67.9157 24.1851 68.4453V68.4453ZM38.2323 76.7677C39.4932 75.8598 37.4757 76.5911 37.9801 76.9442L38.2323 76.7677ZM37.7531 76.5407C36.6687 76.919 38.7871 75.6832 37.7531 76.5407V76.5407ZM40.1994 78.1799C39.3671 78.0286 40.8803 77.726 40.1994 78.1799V78.1799ZM17.1741 63.3762C18.082 63.578 20.8562 65.646 19.2169 63.5275C18.3847 63.2753 18.8891 61.2578 18.0316 61.6109C18.6116 62.5692 18.5108 62.9727 17.3002 62.3674C15.7871 61.6361 16.4428 62.7205 16.7454 63.0231C16.3419 63.124 17.275 63.3762 17.1489 63.3762H17.1741ZM12.9877 60.0725C13.1643 59.3916 11.4746 56.3148 12.2059 58.5341C12.4581 58.9881 12.4329 59.8707 12.9877 60.0725ZM20.6796 64.8137C20.2005 64.4102 20.6796 64.7633 20.6796 64.8137V64.8137ZM21.8397 65.0911C20.5535 64.7885 21.8397 64.3598 21.8397 65.0911V65.0911ZM31.9526 71.4716C31.1961 71.4716 31.7509 70.9924 31.9526 71.4716V71.4716ZM32.4318 71.8247C32.1544 71.8751 32.3562 71.5473 32.4318 71.8247V71.8247ZM36.4417 74.3466C35.9625 74.3214 36.82 74.0692 36.4417 74.3466V74.3466ZM15.0809 60.6273C13.8956 60.3247 16.1906 60.1986 15.0809 60.6273V60.6273ZM31.07 70.6898C30.3638 70.8664 31.07 69.9837 31.07 70.6898V70.6898ZM14.6522 59.6185C13.9965 59.4672 15.3583 59.3916 14.6522 59.6185V59.6185ZM16.695 60.6021C16.468 60.703 16.695 60.3751 16.695 60.6021V60.6021ZM41.7377 75.9607C42.6456 75.7841 44.7136 76.4146 45.0667 75.7085C43.957 75.6832 41.2333 74.9267 41.1073 75.885L41.3594 75.9354H41.7377V75.9607ZM17.3255 60.7786C16.7706 60.7534 17.3255 60.0473 17.3255 60.7786V60.7786ZM11.9285 57.021C10.9954 56.8192 11.6763 55.6339 11.9285 57.021V57.021ZM13.2147 57.3488C12.0294 56.9453 13.2147 56.8949 13.2147 57.3488V57.3488ZM13.9461 57.7019C13.7443 57.5253 13.7695 57.9288 13.9461 57.7019V57.7019ZM18.5864 60.6777C18.082 60.5264 18.8134 60.476 18.5864 60.6777V60.6777ZM13.4669 56.8949C11.979 56.7435 13.3408 55.8609 13.4669 56.8949V56.8949ZM10.8189 55.1799C10.5667 55.3565 10.7937 54.7008 10.8189 55.1799V55.1799ZM11.2224 54.8773C10.8945 54.953 11.1467 54.2973 11.2224 54.8773V54.8773ZM13.3912 56.1635C14.2991 55.8104 11.7268 55.4069 13.2147 56.0878L13.3912 56.1635ZM42.4439 74.0944C41.6873 73.9179 43.0239 73.5648 42.4439 74.0944V74.0944ZM45.9494 75.9102C45.3441 76.0111 46.1763 75.2041 45.9494 75.9102V75.9102ZM13.6434 55.0034C12.9121 55.1295 13.7443 54.3225 13.6434 55.0034V55.0034ZM10.5667 52.9354C10.3901 51.9771 10.4154 50.3126 12.0042 50.8674C9.88576 51.2962 13.4669 53.4903 13.013 51.7501C13.8956 51.8006 14.7531 51.2205 14.2991 52.078C16.0645 51.8762 17.275 50.3631 18.9647 50.5648C20.2761 50.3883 21.7388 50.2622 23.1511 49.7326C24.3112 49.6569 25.4461 48.3959 24.8156 47.6394C23.2268 47.5133 21.5623 47.715 19.7969 48.0429C17.8551 48.4464 16.0645 49.2282 14.0974 49.556C12.1807 49.8082 14.4757 50.2622 13.9208 50.3631C12.9121 50.7161 15.1062 50.9431 13.7948 51.3214C12.9877 51.1701 12.1303 50.8927 12.4833 50.01C10.6423 50.237 9.0283 51.0188 10.491 52.885H10.5919L10.5667 52.9354ZM15.0053 50.6909C15.434 49.1021 17.3255 52.0023 15.7114 50.8927C15.5097 50.7413 15.207 50.6405 15.0053 50.6909ZM15.0809 49.9091C15.4088 50.1613 15.7114 49.4552 15.0809 49.9091V49.9091ZM15.8627 49.9091C15.9132 49.1778 17.6785 50.2874 16.1401 50.1613L15.8627 49.9091ZM16.9472 49.4804C17.0733 49.8839 17.3507 49.0264 16.9472 49.4804V49.4804ZM17.2246 49.3038C17.8803 48.522 20.957 48.7995 18.7125 49.2282C18.1073 48.7742 17.6533 49.5056 17.2246 49.3038ZM21.2344 48.6986C21.1336 46.5297 23.2268 49.4552 21.2344 48.6986V48.6986ZM22.3693 48.6986C22.7728 47.6142 23.9833 48.2699 22.5711 48.4716C22.5963 48.5977 22.5206 49.0264 22.3693 48.6986ZM13.2147 54.4738C11.9033 53.8181 14.4505 53.7172 13.2147 54.4738V54.4738ZM14.1226 54.726C13.1643 54.5495 14.5513 54.2721 14.1226 54.726V54.726ZM11.4241 52.8093C10.5919 52.6076 12.1303 52.2545 11.4241 52.8093V52.8093ZM48.0678 75.7337C47.5382 76.0111 48.0678 75.1032 48.0678 75.7337V75.7337ZM44.3353 73.1865C43.8562 73.237 44.4362 72.4552 44.3353 73.1865V73.1865ZM49.0765 75.9607C50.0601 75.9607 52.0776 75.658 49.934 75.658C49.6062 75.7085 47.9669 75.7085 49.0765 75.9607ZM14.9296 54.2468C15.7366 54.1964 16.1906 53.3642 14.7783 53.4146C12.5842 53.1876 16.695 54.1712 14.5009 53.8938C14.1983 54.0955 14.9296 54.3225 14.9296 54.272V54.2468ZM15.6358 54.5999C15.3836 54.8773 15.5601 54.0955 15.6358 54.5999V54.5999ZM16.468 52.3554C15.9888 52.2293 16.8211 51.9267 16.468 52.3554V52.3554ZM13.7948 47.8916C15.2323 47.4124 17.1741 46.8576 17.8551 48.1185C17.1741 47.2863 17.5776 46.4793 18.2333 47.6898C19.1412 48.9256 19.6204 47.135 19.0151 46.7315C19.6961 47.5889 20.4779 47.9672 19.4691 46.7819C20.5535 45.4705 17.3002 46.9585 16.5437 46.9332C16.1906 47.0845 12.8616 47.7907 13.7948 47.8916ZM14.627 46.2775C15.434 45.6723 17.4515 46.6558 16.1654 45.6723C16.0393 45.5714 13.3408 46.4036 14.627 46.2775ZM17.6029 46.4036C18.5612 46.4036 17.1994 45.1174 18.3342 45.7227C18.1577 45.1174 16.9976 44.9913 16.4428 44.7644C16.1149 45.3192 17.0733 46.4288 17.6029 46.4288V46.4036ZM15.1566 43.7052C14.5766 43.9321 15.4844 43.2512 15.1566 43.7052V43.7052ZM16.3671 44.0078C17.9055 43.806 15.9636 43.3521 16.0645 44.0078H16.3671ZM14.0974 42.2424C13.013 40.8302 16.1401 42.4694 15.0305 41.0067C14.0974 40.2753 13.2147 41.8389 14.0974 42.2424ZM28.0184 49.7326C28.5228 48.8499 25.9757 48.5473 27.6906 49.4299C27.8419 49.4804 27.8167 49.8082 28.0184 49.7326Z" fill="#010101"/>
<path id="Vector_3" d="M51.4974 43.6547C51.3209 44.3608 51.22 45.5461 51.1696 47.1854C51.1696 47.5132 51.0182 47.6645 50.7408 47.6645C50.4634 47.6645 50.2364 47.5132 50.1356 47.2358C49.8329 46.4792 49.5303 45.9496 49.2529 45.647C48.925 45.2939 48.4711 45.0669 47.9163 44.9913C47.311 44.8904 45.8231 44.84 43.4524 44.84C42.8976 44.84 42.5445 44.8904 42.3932 45.0165C42.2924 45.0922 42.2419 45.2435 42.2419 45.4957V52.6075C42.2419 52.8597 42.3932 52.9606 42.6959 52.9606C43.629 52.9606 44.9656 52.8849 46.7562 52.7588C47.1092 52.7084 47.3362 52.6075 47.4623 52.431C47.5884 52.2544 47.6893 51.7753 47.8154 51.0187C47.891 50.59 48.1432 50.4386 48.5467 50.5395C48.8998 50.6152 49.0511 50.7665 49.0007 51.0187C48.6981 52.431 48.6224 54.2972 48.7233 56.5669C48.7233 56.8443 48.572 56.9957 48.1937 56.9957C47.891 57.0209 47.7145 56.8696 47.6388 56.5165C47.3614 55.2051 46.8571 54.499 46.1257 54.4233C45.3943 54.3476 44.1838 54.2972 42.5193 54.2972C42.3428 54.2972 42.2419 54.3729 42.2419 54.499V61.5604C42.2419 62.09 42.4437 62.443 42.822 62.6196C43.1246 62.7709 43.7803 62.9222 44.7891 63.0483C45.2935 63.0987 45.5204 63.3257 45.47 63.7292C45.3943 64.0823 44.9404 64.2084 44.0829 64.1327C41.6114 63.931 39.5687 63.9562 37.9546 64.1579C37.5007 64.2084 37.2737 64.0318 37.2737 63.6031C37.2737 63.3257 37.5007 63.1744 37.9546 63.124C38.9886 62.9979 39.493 62.1152 39.493 60.4255V46.9836C39.493 46.3027 39.3669 45.7731 39.1147 45.3948C38.8625 45.0165 38.4086 44.6886 37.7529 44.386C37.3242 44.2095 37.1728 43.9321 37.2737 43.6042C37.3242 43.4025 37.3998 43.3016 37.5259 43.2764C37.6268 43.2511 37.9042 43.2764 38.3581 43.3268C39.0138 43.4277 40.5774 43.4781 43.0237 43.4781C45.9239 43.4781 48.3954 43.4025 50.5139 43.3016C51.22 43.2511 51.5731 43.3016 51.5731 43.4781C51.5731 43.5286 51.5731 43.5538 51.5731 43.6042L51.4974 43.6547ZM61.7112 63.6031C61.7112 64.0318 61.4842 64.2084 61.0051 64.1579C59.5676 64.0318 57.777 64.0318 55.6334 64.2084C55.2046 64.2588 54.9524 64.2336 54.8516 64.1832C54.7507 64.1327 54.7003 63.9562 54.7003 63.6536C54.7003 63.4014 54.9777 63.1996 55.5577 63.0231C56.1378 62.8465 56.4152 62.3422 56.4152 61.4847V47.2862C56.4152 46.4288 56.2891 45.8235 56.0369 45.42C55.7847 45.0165 55.356 44.7139 54.7507 44.4869C54.4228 44.3608 54.2715 44.2095 54.2715 44.0077C54.2715 43.7051 54.4985 43.4529 54.9777 43.3016C55.6838 43.0746 56.4404 42.7215 57.197 42.2424C57.8274 41.8641 58.231 41.6875 58.3823 41.6875C58.7606 41.6875 58.9623 41.965 58.9623 42.4946C58.9623 42.4441 58.9623 42.9737 58.9119 44.0582C58.8867 45.0922 58.8614 46.1261 58.8867 47.1097L58.9371 61.1316C58.9371 61.7621 59.0884 62.2413 59.4163 62.5187C59.7189 62.7961 60.2737 62.9979 61.0303 63.0987C61.5095 63.1492 61.7364 63.3257 61.7364 63.6283L61.7112 63.6031ZM76.0358 62.5439C76.0358 62.7709 75.6323 63.0987 74.8253 63.5527C74.0182 64.0066 73.3878 64.2084 72.9086 64.2084C72.5051 64.2084 72.152 64.0066 71.8242 63.6031C71.5215 63.1996 71.2946 62.9979 71.1685 62.9979C71.0676 62.9979 70.5884 63.2248 69.6805 63.6283C68.7726 64.0571 67.8647 64.284 66.9568 64.284C66.0994 64.284 65.3932 64.0318 64.8132 63.5275C64.1827 62.9726 63.8801 62.2161 63.8801 61.2577C63.8801 59.4419 65.9481 58.1558 70.084 57.374C70.7902 57.2479 71.1685 56.9452 71.1685 56.5165V55.5077C71.2693 53.7928 70.5128 52.9354 68.9239 52.9354C68.47 52.9354 68.0413 53.3389 67.6378 54.1459C67.2342 54.9529 66.6542 55.3816 65.8976 55.4573C65.0402 55.5329 64.6114 55.1799 64.6114 54.3729C64.6114 53.8685 65.2419 53.2884 66.5281 52.6075C67.8647 51.9014 69.1509 51.5483 70.3867 51.5483C72.5051 51.5483 73.5643 52.5571 73.5391 54.5746L73.4634 61.0308C73.4634 61.7117 73.7408 62.0395 74.3209 62.0395C74.447 62.0395 74.6487 62.0143 74.9766 61.9639C75.1531 61.9386 75.3549 61.9134 75.5314 61.8882C75.834 61.8882 75.9853 62.09 75.9853 62.4935L76.0358 62.5439ZM71.1937 58.9628C71.1937 58.7106 71.1432 58.534 71.0171 58.4332C70.891 58.3575 70.6893 58.3323 70.3867 58.3827C67.8647 58.8367 66.6038 59.6437 66.6038 60.8542C66.6038 62.0647 67.2595 62.67 68.5709 62.67C69.1005 62.67 69.6301 62.5691 70.1849 62.3674C70.8406 62.1404 71.1685 61.863 71.1685 61.5351V58.9628H71.1937ZM87.7628 60.6777C87.7628 61.7873 87.334 62.67 86.4766 63.3257C85.6191 63.9814 84.459 64.3093 82.9711 64.3093C81.9875 64.3093 81.004 64.2084 80.0204 64.0066C79.163 63.8301 78.6838 63.6536 78.5577 63.477C78.4821 63.3257 78.4316 62.6196 78.4316 61.3334C78.4316 60.7786 78.5577 60.5011 78.8099 60.4759C79.0621 60.4507 79.2639 60.5768 79.4404 60.8794C80.2222 62.2413 81.4831 62.9474 83.2485 62.9474C84.7112 62.9474 85.4678 62.443 85.4678 61.409C85.4678 60.9551 85.2913 60.5768 84.9634 60.2742C84.5851 59.9211 83.879 59.5176 82.8198 59.0636C81.2814 58.3827 80.2726 57.7775 79.7682 57.2731C79.2134 56.7182 78.936 55.9869 78.936 55.079C78.936 53.9441 79.3647 53.0615 80.2474 52.431C81.0544 51.8257 82.1389 51.5231 83.4755 51.5231C84.3329 51.5231 85.0895 51.5987 85.7957 51.7248C86.5522 51.8509 86.9305 52.0275 86.981 52.2292C87.0566 52.8093 87.2332 53.6667 87.4853 54.7764C87.5106 54.9025 87.3592 55.0286 87.0566 55.1042C86.7035 55.1799 86.4766 55.1042 86.3757 54.9277C85.5435 53.5658 84.5095 52.9101 83.2233 52.9101C81.7858 52.9101 81.0796 53.3641 81.0796 54.2972C81.0796 54.8016 81.2814 55.2051 81.6597 55.5329C82.0128 55.7851 82.8198 56.2139 84.0807 56.7687C85.4174 57.3487 86.3253 57.8531 86.8044 58.3323C87.4349 58.9375 87.7375 59.7193 87.7375 60.7281L87.7628 60.6777ZM105.971 63.5022C105.971 63.8805 105.719 64.0571 105.24 64.0823C104.508 64.0823 103.55 64.1327 102.365 64.2336C101.785 64.3597 101.356 64.284 101.104 64.0066C99.4393 62.2161 98.0522 60.375 96.8921 58.4079C96.7913 58.2314 96.6652 58.1557 96.5391 58.1557C96.3625 58.1557 96.0599 58.3071 95.606 58.6349C95.1016 58.9123 94.8746 59.2906 94.8746 59.795C94.8746 60.1481 94.8746 60.6525 94.8998 61.3334C94.8998 62.0143 95.0764 62.443 95.4042 62.6448C95.6312 62.7961 96.1356 62.897 96.9174 62.9979C97.3965 63.0483 97.6487 63.2501 97.6487 63.5527C97.6487 63.8049 97.5983 63.931 97.5226 64.0066C97.447 64.0571 97.2452 64.0823 96.8921 64.0571C95.8581 63.9562 94.0676 64.0066 91.5961 64.2084C90.9656 64.2588 90.6378 64.1832 90.5873 63.9814C90.5873 63.8805 90.5621 63.7797 90.5621 63.6788C90.5621 63.3509 90.89 63.0987 91.5204 62.9474C92.1005 62.7961 92.3779 62.1152 92.3779 60.9299V47.2106C92.3779 46.3531 92.3022 45.7479 92.1257 45.42C91.8987 44.9913 91.4196 44.6634 90.6882 44.4112C90.3351 44.2851 90.1586 44.1338 90.1586 43.9321C90.1586 43.6294 90.4108 43.4025 90.89 43.2259C91.6718 42.9737 92.4283 42.5954 93.1345 42.1415C93.7145 41.7632 94.0676 41.5867 94.1937 41.5867C94.6224 41.5867 94.8494 41.8641 94.8494 42.3937C94.8494 42.318 94.8494 42.8476 94.8494 43.9573C94.8494 44.7139 94.8494 45.7479 94.8494 47.034V56.8696C94.8746 57.147 94.9503 57.2731 95.1016 57.2731C95.2529 57.2731 95.5051 57.147 95.8329 56.8696C96.9174 56.0121 98.0018 55.1294 99.0358 54.1963C99.288 53.9441 99.4141 53.7172 99.4141 53.5658C99.4141 53.2884 98.9853 53.0867 98.1531 52.9606C97.7748 52.9101 97.6235 52.7084 97.6235 52.3553C97.6487 52.0022 97.8505 51.8257 98.1783 51.8761C98.9349 51.977 100.019 52.0275 101.482 52.0527C102.491 52.0527 103.474 52.0527 104.483 52.0527C104.811 52.0527 104.962 52.2544 104.962 52.6327C104.962 52.9858 104.71 53.1875 104.206 53.2128C103.424 53.238 102.642 53.4145 101.936 53.7676C100.952 54.2215 99.868 55.0033 98.7584 56.1382C98.7079 56.1634 98.6827 56.1886 98.6575 56.2391C98.6575 56.2895 98.6323 56.3147 98.6323 56.3652C98.6323 56.5165 98.8088 56.8696 99.1619 57.4244C100.473 59.4167 101.709 60.9047 102.869 61.9386C103.6 62.5691 104.307 62.897 104.962 62.897C105.441 62.897 105.744 62.9222 105.845 62.9979C105.971 63.0735 106.022 63.2501 106.022 63.5527L105.971 63.5022Z" fill="#010101"/>
</g>
</g>
</g>
</g>
<defs>
<clipPath id="clip0_103_2707">
<rect width="115" height="115" fill="white"/>
</clipPath>
</defs>
</svg>
