<svg width="114" height="115" viewBox="0 0 114 115" fill="none" xmlns="http://www.w3.org/2000/svg">
<g id="Asset 11 1" clip-path="url(#clip0_103_2824)">
<g id="Layer_1-2">
<g id="Group">
<path id="Vector" d="M20.175 0H93.8C96.45 0 99.075 0.529605 101.525 1.58882C103.975 2.64803 106.2 4.1864 108.075 6.12829C109.95 8.07018 111.425 10.3651 112.45 12.9123C113.475 15.4594 113.975 18.1579 113.975 20.9068V94.1184C113.975 96.8673 113.45 99.591 112.45 102.113C111.425 104.66 109.95 106.955 108.075 108.897C106.2 110.839 103.975 112.377 101.525 113.411C99.075 114.47 96.45 115 93.8 115H20.175C17.525 115 14.9 114.47 12.45 113.411C10 112.352 7.775 110.814 5.9 108.897C4.025 106.955 2.55 104.66 1.525 102.113C0.525 99.5658 0 96.8421 0 94.1184V20.8816C0 18.1327 0.525 15.409 1.525 12.8871C2.55 10.3399 4.025 8.04496 5.9 6.10307C7.775 4.16118 10 2.62281 12.45 1.5636C14.9 0.529605 17.525 0 20.175 0Z" fill="white"/>
<g id="Group_2">
<path id="Vector_2" fill-rule="evenodd" clip-rule="evenodd" d="M56.9999 11.7773C40.1749 11.7773 26.5249 25.5471 26.5249 42.5197C26.5249 56.1129 35.2499 67.6381 47.3749 71.6984C48.8999 71.9758 49.4499 71.0427 49.4499 70.2105C49.4499 69.4791 49.4249 67.058 49.3999 64.4857C40.9249 66.3519 39.1249 60.8541 39.1249 60.8541C37.7499 57.2982 35.7499 56.3651 35.7499 56.3651C32.9749 54.4484 35.9499 54.4988 35.9499 54.4988C38.9999 54.7258 40.6249 57.6765 40.6249 57.6765C43.3499 62.3673 47.7499 61.0054 49.4999 60.2236C49.7749 58.2313 50.5749 56.8695 51.4249 56.1129C44.6499 55.3311 37.5249 52.7083 37.5249 40.9056C37.5249 37.5515 38.7249 34.8026 40.6749 32.6589C40.3499 31.8771 39.3249 28.7499 40.9749 24.5131C40.9749 24.5131 43.5249 23.6809 49.3499 27.6655C51.7749 26.9846 54.3999 26.6315 56.9749 26.6315C59.5749 26.6315 62.1749 26.9846 64.5999 27.6655C70.4249 23.6809 72.9749 24.5131 72.9749 24.5131C74.6249 28.7499 73.5999 31.8771 73.2749 32.6589C75.2249 34.8026 76.3999 37.5515 76.3999 40.9056C76.3999 52.7083 69.2749 55.3059 62.4749 56.0877C63.5749 57.046 64.5499 58.9122 64.5499 61.7872C64.5499 65.898 64.5249 69.2017 64.5249 70.2357C64.5249 71.0427 65.0749 72.001 66.6249 71.6984C78.7249 67.6381 87.4499 56.1129 87.4499 42.5197C87.4499 25.5471 73.7999 11.7773 56.9749 11.7773H56.9999Z" fill="#191718"/>
<path id="Vector_3" d="M38.0498 55.9364C37.9748 56.0877 37.7498 56.1381 37.5248 56.0372C37.2998 55.9364 37.1748 55.7346 37.2498 55.5833C37.3248 55.432 37.5498 55.3815 37.7748 55.4824C37.9998 55.5833 38.1248 55.785 38.0498 55.9364ZM39.2748 57.3234C39.1248 57.4495 38.8498 57.3991 38.6498 57.1721C38.4498 56.9451 38.4248 56.6677 38.5498 56.5416C38.6998 56.4155 38.9748 56.466 39.1748 56.6929C39.3748 56.9199 39.4248 57.1973 39.2748 57.3234ZM40.4748 59.0888C40.2998 59.2149 39.9748 59.0888 39.7998 58.8114C39.5998 58.5339 39.5998 58.2061 39.7998 58.08C39.9998 57.9539 40.2998 58.08 40.4748 58.3322C40.6748 58.6096 40.6748 58.9375 40.4748 59.0636V59.0888ZM42.1248 60.8037C41.9498 60.9802 41.5998 60.9298 41.3498 60.6776C41.0748 60.4254 40.9998 60.0723 41.1748 59.8958C41.3498 59.7193 41.6998 59.7697 41.9748 60.0219C42.2498 60.2741 42.3248 60.6272 42.1498 60.8037H42.1248ZM44.3998 61.7872C44.3248 62.0394 43.9748 62.1403 43.6498 62.0394C43.2998 61.9386 43.0748 61.6611 43.1498 61.4089C43.2248 61.1568 43.5748 61.0559 43.9248 61.1568C44.2748 61.2576 44.4998 61.535 44.4248 61.7872H44.3998ZM46.8998 61.9638C46.8998 62.216 46.6248 62.4177 46.2498 62.4429C45.8748 62.4429 45.5998 62.2412 45.5748 61.989C45.5748 61.7368 45.8498 61.535 46.2248 61.5098C46.5998 61.5098 46.8748 61.7116 46.8748 61.9638H46.8998ZM49.2248 61.5603C49.2748 61.8125 49.0248 62.0646 48.6498 62.1403C48.2998 62.216 47.9748 62.0647 47.9248 61.8125C47.8748 61.5603 48.1498 61.3081 48.4998 61.2324C48.8498 61.1568 49.1748 61.3081 49.2248 61.5603Z" fill="#191718"/>
<path id="Vector_4" d="M28.95 88.9737H21.275C21.275 88.9737 21.1 89.0242 21.025 89.0746C20.95 89.1503 20.925 89.2259 20.925 89.3268V93.1097C20.925 93.1097 20.975 93.2862 21.025 93.3619C21.1 93.4376 21.175 93.4628 21.275 93.4628H24.275V98.1536C24.275 98.1536 23.6 98.3805 21.75 98.3805C19.55 98.3805 16.5 97.5735 16.5 90.7895C16.5 84.0055 19.675 83.0976 22.675 83.0976C25.275 83.0976 26.375 83.5516 27.1 83.7786C27.325 83.8542 27.525 83.6273 27.525 83.4255L28.375 79.7687C28.375 79.7687 28.375 79.6678 28.35 79.6174C28.35 79.5669 28.3 79.5165 28.25 79.4913C27.95 79.2895 26.2 78.2808 21.75 78.2808C16.625 78.2808 11.375 80.4748 11.375 91.0417C11.375 101.609 17.375 103.172 22.45 103.172C26.65 103.172 29.2 101.356 29.2 101.356C29.3 101.306 29.325 101.155 29.325 101.079V89.2764C29.325 89.2764 29.275 89.0998 29.225 89.0242C29.15 88.9485 29.075 88.9233 28.975 88.9233L28.95 88.9737ZM68.1 79.2139H63.775C63.775 79.2139 63.675 79.2139 63.65 79.2391C63.6 79.2391 63.575 79.2895 63.525 79.3148C63.5 79.34 63.475 79.3904 63.45 79.4408C63.45 79.4913 63.425 79.5417 63.425 79.5669V87.9902H56.7V79.5669C56.7 79.5669 56.7 79.4661 56.675 79.4408C56.675 79.3904 56.625 79.3652 56.6 79.3148C56.575 79.2895 56.525 79.2643 56.475 79.2391C56.425 79.2391 56.375 79.2139 56.35 79.2139H52.025C52.025 79.2139 51.925 79.2139 51.9 79.2391C51.85 79.2391 51.825 79.2895 51.775 79.3148C51.75 79.34 51.725 79.3904 51.7 79.4408C51.7 79.4913 51.675 79.5417 51.675 79.5669V102.365C51.675 102.567 51.825 102.718 52.025 102.718H56.35C56.35 102.718 56.45 102.718 56.475 102.693C56.525 102.693 56.55 102.643 56.6 102.617C56.625 102.592 56.65 102.542 56.675 102.491C56.675 102.441 56.7 102.39 56.7 102.34V92.5801H63.425V102.34C63.425 102.542 63.575 102.693 63.775 102.693H68.1C68.1 102.693 68.2 102.693 68.225 102.668C68.275 102.668 68.3 102.617 68.35 102.592C68.375 102.567 68.4 102.517 68.425 102.466C68.425 102.416 68.45 102.365 68.45 102.315V79.5165C68.45 79.5165 68.45 79.4156 68.425 79.3904C68.425 79.34 68.375 79.3148 68.35 79.2643C68.325 79.2391 68.275 79.2139 68.225 79.1887C68.175 79.1887 68.125 79.1634 68.1 79.1634V79.2139ZM34.3 79.7435C32.775 79.7435 31.525 81.0044 31.525 82.568C31.525 84.1316 32.775 85.3926 34.3 85.3926C35.825 85.3926 37.075 84.1316 37.075 82.568C37.075 81.0044 35.825 79.7435 34.3 79.7435ZM36.425 86.6788H32.125C31.925 86.6788 31.75 86.8805 31.75 87.0823V102.163C31.75 102.617 32.025 102.743 32.375 102.743H36.25C36.675 102.743 36.775 102.542 36.775 102.163V87.0571C36.775 87.0571 36.775 86.9562 36.75 86.931C36.75 86.8805 36.7 86.8553 36.675 86.8049C36.65 86.7797 36.6 86.7544 36.55 86.7292C36.5 86.7292 36.45 86.704 36.425 86.704V86.6788ZM84.875 86.704H80.6C80.6 86.704 80.5 86.704 80.475 86.7292C80.425 86.7292 80.4 86.7797 80.35 86.8049C80.325 86.8301 80.3 86.8805 80.275 86.931C80.275 86.9814 80.25 87.0319 80.25 87.0823V98.2544C80.25 98.2544 79.15 99.0615 77.625 99.0615C76.1 99.0615 75.675 98.3553 75.675 96.8169V87.0823C75.675 87.0823 75.675 86.9814 75.65 86.931C75.65 86.8805 75.6 86.8553 75.575 86.8049C75.55 86.7797 75.5 86.7544 75.45 86.7292C75.4 86.7292 75.35 86.704 75.325 86.704H70.975C70.975 86.704 70.8 86.7544 70.725 86.8049C70.65 86.8805 70.625 86.9562 70.625 87.0571V97.5483C70.625 102.088 73.125 103.197 76.575 103.197C79.4 103.197 81.675 101.634 81.675 101.634C81.675 101.634 81.775 102.466 81.825 102.567C81.875 102.668 82 102.769 82.15 102.769H84.925C84.925 102.769 85.025 102.769 85.075 102.718C85.125 102.718 85.15 102.668 85.2 102.643C85.225 102.617 85.25 102.567 85.275 102.517C85.275 102.466 85.3 102.416 85.3 102.365V87.0571C85.3 87.0571 85.25 86.8805 85.2 86.8049C85.125 86.7292 85.05 86.704 84.95 86.704H84.875ZM96.575 86.1996C94.15 86.1996 92.475 87.2841 92.475 87.2841V79.5669C92.475 79.5669 92.475 79.4661 92.45 79.4408C92.45 79.3904 92.4 79.3652 92.375 79.3148C92.35 79.2895 92.3 79.2643 92.25 79.2391C92.2 79.2391 92.15 79.2139 92.125 79.2139H87.8C87.8 79.2139 87.7 79.2139 87.65 79.2391C87.6 79.2391 87.575 79.2895 87.525 79.3148C87.5 79.34 87.475 79.3904 87.45 79.4408C87.45 79.4913 87.425 79.5417 87.425 79.5922V102.39C87.425 102.39 87.425 102.491 87.45 102.542C87.45 102.592 87.5 102.617 87.525 102.668C87.55 102.693 87.6 102.718 87.65 102.743C87.7 102.743 87.75 102.769 87.8 102.769H90.8C90.925 102.769 91.05 102.693 91.125 102.567C91.2 102.441 91.3 101.508 91.3 101.508C91.3 101.508 93.075 103.197 96.425 103.197C100.35 103.197 102.625 101.18 102.625 94.1689C102.625 87.158 99.025 86.2248 96.575 86.2248V86.1996ZM94.875 99.0362C93.4 98.9858 92.375 98.3049 92.375 98.3049V91.0922C92.375 91.0922 93.375 90.4869 94.6 90.3608C96.15 90.2095 97.625 90.6887 97.625 94.3959C97.625 98.3049 96.95 99.0867 94.875 99.011V99.0362ZM49.25 98.9606C49.05 98.9606 48.575 99.0362 48.075 99.0362C46.475 99.0362 45.95 98.2797 45.95 97.3213V90.9156H49.2C49.2 90.9156 49.3 90.9156 49.35 90.8904C49.4 90.8904 49.425 90.84 49.475 90.8147C49.5 90.7895 49.525 90.7391 49.55 90.6887C49.55 90.6382 49.575 90.5878 49.575 90.5373V87.0319C49.575 87.0319 49.575 86.931 49.55 86.8805C49.55 86.8301 49.5 86.8049 49.475 86.7544C49.45 86.7292 49.4 86.704 49.35 86.6788C49.3 86.6788 49.25 86.6536 49.225 86.6536H45.975V82.3411C45.975 82.1645 45.875 82.0889 45.7 82.0889H41.275C41.1 82.0889 41 82.1645 41 82.3411V86.8049C41 86.8049 38.8 87.3345 38.65 87.3849C38.575 87.3849 38.5 87.4606 38.475 87.511C38.425 87.5615 38.4 87.6623 38.4 87.738V90.5373C38.4 90.5373 38.4 90.6382 38.425 90.6887C38.425 90.7391 38.475 90.7643 38.5 90.8147C38.525 90.84 38.575 90.8652 38.625 90.8904C38.675 90.8904 38.725 90.9156 38.75 90.9156H41.025V97.6492C41.025 102.668 44.5 103.147 46.85 103.147C47.925 103.147 49.2 102.794 49.425 102.718C49.55 102.668 49.625 102.542 49.625 102.39V99.3137C49.625 99.3137 49.6 99.1371 49.525 99.0615C49.45 98.9858 49.375 98.9606 49.275 98.9606H49.25Z" fill="#121111"/>
</g>
</g>
</g>
</g>
<defs>
<clipPath id="clip0_103_2824">
<rect width="114" height="115" fill="white"/>
</clipPath>
</defs>
</svg>
