<svg width="116" height="114" viewBox="0 0 116 114" fill="none" xmlns="http://www.w3.org/2000/svg">
<g id="Asset 14 1" clip-path="url(#clip0_103_2801)">
<g id="Layer_1-2">
<g id="Group">
<path id="Vector" d="M95.7 0H20.3C9.08158 0 0 8.925 0 19.95V94.05C0 105.075 9.08158 114 20.3 114H95.7C106.918 114 116 105.075 116 94.05V19.95C116 8.925 106.918 0 95.7 0Z" fill="#421121"/>
<path id="Vector_2" d="M42.8387 34.725V82.45C42.8387 82.9 42.6351 83.125 42.2281 83.125H34.2404C33.8334 83.125 33.6299 82.9 33.6299 82.45V34.725C33.6299 34.325 33.8334 34.125 34.2404 34.125H42.3044C42.6606 34.125 42.8387 34.325 42.8387 34.725Z" fill="#EC5069"/>
<path id="Vector_3" d="M67.5904 83.775C61.9176 83.775 57.3896 82.225 53.9808 79.1C50.5975 75.975 48.8931 71.375 48.8931 65.3C48.8931 59.75 50.7246 55.2 54.3624 51.65C58.0001 48.1 62.8843 46.3 68.9641 46.3C70.4904 46.3 71.8132 46.425 72.9071 46.675V30.65C72.9071 30.35 73.0597 30.2 73.365 30.2H81.7343C81.9887 30.2 82.1159 30.35 82.1159 30.65V75.1C82.1159 76.975 82.1922 78.625 82.3448 80C82.3957 80.3 82.2685 80.525 81.9632 80.675C77.5624 82.75 72.7545 83.8 67.5904 83.8V83.775ZM72.9071 76.425V53.5C71.8896 52.95 70.5159 52.675 68.8115 52.675C65.708 52.675 63.215 53.75 61.2817 55.875C59.3483 58 58.3817 61.025 58.3817 64.925C58.3817 69.075 59.3229 72.15 61.2053 74.125C63.1387 76.1 65.5553 77.1 68.5062 77.1C70.3378 77.1 71.8132 76.875 72.9071 76.425Z" fill="#EC5069"/>
</g>
</g>
</g>
<defs>
<clipPath id="clip0_103_2801">
<rect width="116" height="114" fill="white"/>
</clipPath>
</defs>
</svg>
