<svg width="115" height="114" viewBox="0 0 115 114" fill="none" xmlns="http://www.w3.org/2000/svg">
<g id="Asset 7 1" clip-path="url(#clip0_103_2854)">
<g id="Layer_1-2">
<g id="Clip path group">
<mask id="mask0_103_2854" style="mask-type:luminance" maskUnits="userSpaceOnUse" x="0" y="0" width="115" height="114">
<g id="clippath">
<path id="Vector" d="M115 0H0V114H115V0Z" fill="white"/>
</g>
</mask>
<g mask="url(#mask0_103_2854)">
<g id="Group">
<g id="Group_2">
<path id="Vector_2" d="M20.352 0H94.6228C97.2961 0 99.9441 0.525 102.416 1.575C104.887 2.625 107.132 4.15 109.023 6.075C110.914 8 112.402 10.275 113.436 12.8C114.47 15.325 114.975 18 114.975 20.725V93.3C114.975 96.025 114.445 98.725 113.436 101.225C112.402 103.75 110.914 106.025 109.023 107.95C107.132 109.875 104.887 111.4 102.416 112.425C99.9441 113.475 97.2961 114 94.6228 114H20.352C17.6787 114 15.0307 113.475 12.5592 112.425C10.0877 111.375 7.8432 109.85 5.95175 107.95C4.06031 106.025 2.57237 103.75 1.53838 101.225C0.529605 98.7 0 96 0 93.3V20.7C0 17.975 0.529605 15.275 1.53838 12.775C2.57237 10.25 4.06031 7.975 5.95175 6.05C7.8432 4.125 10.0877 2.6 12.5592 1.55C15.0307 0.525 17.6787 0 20.352 0Z" fill="white"/>
<path id="Vector_3" d="M80.1216 83.825H79.7686V83.625H80.7017V83.825H80.3486V84.775H80.0964V83.825H80.1216ZM81.9879 83.875L81.6348 84.775H81.4835L81.1304 83.875V84.775H80.9034V83.625H81.2313L81.5591 84.45L81.887 83.625H82.2148V84.775H81.9879V83.875Z" fill="#E67125"/>
<path id="Vector_4" d="M49.0769 60.25C49.0769 60.25 46.6559 61.65 50.7918 62.125C55.7853 62.7 58.3576 62.6 63.8807 61.575C63.8807 61.575 65.3434 62.475 67.3609 63.25C55.0035 68.5 39.3675 62.95 49.0769 60.25Z" fill="#5482A2"/>
<path id="Vector_5" d="M47.5637 53.3999C47.5637 53.3999 44.8652 55.3749 49.0012 55.7999C54.3477 56.3499 58.5593 56.3999 65.8729 54.9999C65.8729 54.9999 66.8817 56.0249 68.4705 56.5749C53.5154 60.8999 36.8707 56.9249 47.5637 53.3999Z" fill="#5482A2"/>
<path id="Vector_6" d="M60.2996 41.7751C63.3511 45.2501 59.4925 48.3751 59.4925 48.3751C59.4925 48.3751 67.2349 44.4251 63.6789 39.4501C60.35 34.8251 57.8281 32.5251 71.5978 24.6001C71.5978 24.6001 49.9849 29.9501 60.2996 41.7501V41.7751Z" fill="#E67125"/>
<path id="Vector_7" d="M76.6665 65.3249C76.6665 65.3249 78.457 66.7749 74.6994 67.9249C67.5623 70.0749 44.991 70.7249 38.7114 67.9999C36.4669 67.0249 40.6785 65.6749 42.0151 65.3999C43.4022 65.0999 44.184 65.1499 44.184 65.1499C41.6873 63.3999 27.9932 68.5749 37.2235 70.0749C62.4428 74.1249 83.173 68.2499 76.6412 65.3249H76.6665Z" fill="#5482A2"/>
<path id="Vector_8" d="M50.237 46.2999C50.237 46.2999 38.7622 48.9999 46.1767 49.9749C49.3039 50.3999 55.5583 50.2999 61.3587 49.8249C66.1 49.4249 70.8916 48.5749 70.8916 48.5749C70.8916 48.5749 69.2272 49.2749 68.0166 50.0999C56.3653 53.1499 33.8445 51.7249 40.3258 48.6249C45.7984 45.9999 50.2622 46.2999 50.2622 46.2999H50.237Z" fill="#5482A2"/>
<path id="Vector_9" d="M70.8411 57.7249C82.6941 51.6249 77.2215 45.7499 73.3882 46.5499C72.4551 46.7499 72.0264 46.8999 72.0264 46.8999C72.0264 46.8999 72.3794 46.3499 73.0351 46.1249C80.6009 43.4999 86.4266 53.8999 70.5889 58.0249C70.5889 58.0249 70.7654 57.8749 70.8158 57.7249H70.8411Z" fill="#5482A2"/>
<path id="Vector_10" d="M63.6786 11.825C63.6786 11.825 70.2357 18.325 57.4495 28.35C47.1852 36.375 55.1041 40.95 57.4495 46.1749C51.4725 40.825 47.0591 36.1 50.0098 31.725C54.3475 25.275 66.3267 22.175 63.6786 11.825Z" fill="#E67125"/>
<path id="Vector_11" d="M51.3969 74.2499C62.7708 74.9749 80.2477 73.8499 80.6513 68.5249C80.6513 68.5249 79.8442 70.5499 71.2445 72.1499C61.535 73.9499 49.5559 73.7499 42.4692 72.5999C42.4692 72.5999 43.932 73.7999 51.3969 74.2749V74.2499Z" fill="#5482A2"/>
<path id="Vector_12" d="M49.5305 94.6501C48.4461 95.5751 47.3364 96.1001 46.3024 96.1001C44.8397 96.1001 44.0579 95.2251 44.0579 93.8501C44.0579 92.3501 44.8901 91.2501 48.2695 91.2501H49.5053V94.6501H49.5305ZM52.4812 97.9501V87.7001C52.4812 85.0751 50.968 83.3501 47.3364 83.3501C45.218 83.3501 43.3518 83.8751 41.8386 84.5251L42.2673 86.3501C43.4526 85.9251 44.991 85.5251 46.5042 85.5251C48.5974 85.5251 49.5053 86.3501 49.5053 88.0751V89.3751H48.4713C43.377 89.3751 41.082 91.3251 41.082 94.2751C41.082 96.8001 42.5952 98.2501 45.445 98.2501C47.286 98.2501 48.6478 97.5001 49.9088 96.4001L50.1358 97.9501H52.4559H52.4812Z" fill="#E67125"/>
<path id="Vector_13" d="M62.3672 97.9501H58.6852L54.2466 83.6001H57.4747L60.2236 92.4001L60.8288 95.0501C62.2159 91.2251 63.1994 87.3251 63.7038 83.6001H66.831C65.9988 88.3251 64.4856 93.5001 62.3672 97.9501Z" fill="#E67125"/>
<path id="Vector_14" d="M76.5408 94.6501C75.4563 95.5751 74.3215 96.1001 73.3127 96.1001C71.8752 96.1001 71.0682 95.2251 71.0682 93.8501C71.0682 92.3501 71.9004 91.2501 75.2798 91.2501H76.5408V94.6501ZM79.4914 97.9501V87.7001C79.4914 85.0751 77.9782 83.3501 74.3467 83.3501C72.2282 83.3501 70.362 83.8751 68.8489 84.5251L69.2776 86.3501C70.4629 85.9251 72.0013 85.5251 73.5144 85.5251C75.6076 85.5251 76.5155 86.3501 76.5155 88.0751V89.3751H75.4815C70.3872 89.3751 68.0923 91.3251 68.0923 94.2751C68.0923 96.8001 69.6054 98.2501 72.4552 98.2501C74.2962 98.2501 75.6581 97.5001 76.919 96.4001L77.146 97.9501H79.4662H79.4914Z" fill="#E67125"/>
<path id="Vector_15" d="M37.8794 100.4C37.0472 101.625 35.6601 102.6 34.1722 103.125L32.7095 101.425C33.8443 100.85 34.8279 99.9249 35.2818 99.0499C35.6853 98.2749 35.8367 97.2749 35.8367 94.8999V78.5249H38.9891V94.6749C38.9891 97.8499 38.7369 99.1499 37.8794 100.4Z" fill="#E67125"/>
</g>
</g>
</g>
</g>
</g>
</g>
<defs>
<clipPath id="clip0_103_2854">
<rect width="115" height="114" fill="white"/>
</clipPath>
</defs>
</svg>
