<svg width="190" height="94" viewBox="0 0 190 94" fill="none" xmlns="http://www.w3.org/2000/svg">
<g clip-path="url(#clip0_150_18012)">
<path d="M142 0H48V94H142V0Z" fill="#F7DF1E"/>
<path d="M111.144 73.4378C113.037 76.5293 115.501 78.8017 119.858 78.8017C123.518 78.8017 125.856 76.9725 125.856 74.4449C125.856 71.416 123.454 70.3432 119.425 68.5811L117.217 67.6336C110.843 64.9181 106.608 61.5162 106.608 54.3244C106.608 47.6997 111.656 42.6565 119.544 42.6565C125.16 42.6565 129.198 44.6111 132.108 49.7289L125.229 54.1454C123.715 51.4298 122.081 50.36 119.544 50.36C116.957 50.36 115.317 52.0013 115.317 54.1454C115.317 56.7953 116.959 57.8681 120.748 59.5093L122.957 60.4553C130.462 63.6737 134.699 66.9547 134.699 74.3315C134.699 82.2842 128.452 86.641 120.062 86.641C111.859 86.641 106.559 82.7318 103.966 77.6081L111.144 73.4378ZM79.9405 74.2032C81.3281 76.6651 82.5904 78.7465 85.6253 78.7465C88.5273 78.7465 90.3581 77.6111 90.3581 73.196V43.1608H99.1911V73.3154C99.1911 82.4618 93.8286 86.6246 86.0013 86.6246C78.9289 86.6246 74.8332 82.9646 72.7502 78.5563L79.9405 74.2032Z" fill="black"/>
</g>
<defs>
<clipPath id="clip0_150_18012">
<rect width="94" height="94" fill="white" transform="translate(48)"/>
</clipPath>
</defs>
</svg>
