<svg width="115" height="115" viewBox="0 0 115 115" fill="none" xmlns="http://www.w3.org/2000/svg">
<g id="Asset 21 1" clip-path="url(#clip0_103_2736)">
<g id="Layer_1-2">
<g id="Group">
<path id="Vector" d="M20.352 0H94.6228C97.2961 0 99.9441 0.529605 102.416 1.58882C104.887 2.64803 107.132 4.1864 109.023 6.12829C110.914 8.07018 112.402 10.3651 113.436 12.9123C114.47 15.4594 114.975 18.1579 114.975 20.9068V94.1184C114.975 96.8673 114.445 99.591 113.436 102.113C112.402 104.66 110.914 106.955 109.023 108.897C107.132 110.839 104.887 112.377 102.416 113.411C99.9441 114.47 97.2961 115 94.6228 115H20.352C17.6787 115 15.0307 114.47 12.5592 113.411C10.0877 112.352 7.8432 110.814 5.95175 108.897C4.06031 106.955 2.57237 104.66 1.53838 102.113C0.529605 99.5658 0 96.8421 0 94.1184V20.8816C0 18.1327 0.529605 15.409 1.53838 12.8871C2.57237 10.3399 4.06031 8.04496 5.95175 6.10307C7.8432 4.16118 10.0877 2.62281 12.5592 1.5636C15.0307 0.529605 17.6787 0 20.352 0Z" fill="white"/>
<path id="Vector_2" d="M7.89355 78.659H11.1721V65.6711L16.2664 76.9945C16.8716 78.3564 17.6786 78.8355 19.2927 78.8355C20.9067 78.8355 21.6885 78.3564 22.2938 76.9945L27.3881 65.6711V78.659H30.6666V65.6963C30.6666 64.4353 30.1622 63.8301 29.1282 63.5022C26.6315 62.7204 24.967 63.4013 24.2104 65.091L19.217 76.2632L14.3749 65.091C13.6436 63.4013 11.9539 62.7204 9.45715 63.5022C8.42316 63.8301 7.91877 64.4353 7.91877 65.6963V78.659H7.89355ZM33.4155 68.0921H36.694V75.2292C36.6688 75.6075 36.8201 76.5406 38.6107 76.5658C39.5186 76.5658 45.6973 76.5658 45.7477 76.5658V68.0417H49.0515C49.0515 68.0417 49.0515 79.6426 49.0515 79.693C49.0515 82.568 45.4955 83.1733 43.8563 83.2237H33.4911V81.0044C33.4911 81.0044 43.8563 81.0044 43.8815 81.0044C45.9999 80.7774 45.7477 79.7182 45.7477 79.3651V78.5077H38.762C35.5087 78.4825 33.4407 77.0702 33.4155 75.4309C33.4155 75.2796 33.4911 68.1173 33.4155 68.0669V68.0921ZM51.5986 78.659H61.0558C62.1655 78.659 63.2247 78.432 64.0822 78.0285C65.4944 77.3728 66.2006 76.4901 66.2006 75.3301V72.9342C66.2006 71.9759 65.4188 71.0932 63.8552 70.5132C63.0229 70.1853 62.0142 70.034 61.0306 70.034H57.046C55.7094 70.034 55.0789 69.6305 54.9276 68.7478C54.9023 68.6469 54.9023 68.5461 54.9023 68.4452V66.9572C54.9023 66.9572 54.9023 66.7807 54.9276 66.6798C55.0789 65.9989 55.4319 65.8224 56.592 65.7215H56.9199H66.3015V63.5274H57.0712C55.7346 63.5274 55.0536 63.6031 54.4232 63.8048C52.4561 64.4101 51.5986 65.3937 51.5986 67.0581V68.9748C51.5986 70.4375 53.2631 71.7237 56.0876 72.0011C56.4155 72.0011 56.7181 72.0515 57.046 72.0515H60.4506C60.5767 72.0515 60.7028 72.0515 60.8036 72.0515C61.8376 72.1272 62.2916 72.329 62.5942 72.7072C62.6699 72.7829 62.7455 72.8838 62.7707 72.9847C62.8212 73.0855 62.8464 73.1864 62.8212 73.3125V75.2292C62.8212 75.4562 62.6699 75.7588 62.342 76.011C62.0646 76.2632 61.5854 76.4397 60.955 76.4649H60.6019H51.5229V78.659H51.5986ZM86.7039 74.8509C86.7039 77.0954 88.3683 78.3564 91.7477 78.6338C92.0756 78.6338 92.3782 78.6842 92.7061 78.6842H101.281V76.4901H92.6556C90.739 76.4901 90.0076 76.011 90.0076 74.8509V63.5274H86.7291V74.8761L86.7039 74.8509ZM68.2938 74.977V67.159C68.2938 65.1667 69.6808 63.9814 72.4297 63.6031C72.7324 63.5526 73.0098 63.5274 73.3124 63.5274H79.5416C79.8694 63.5274 80.1469 63.5274 80.4495 63.6031C83.1984 63.9814 84.6107 65.1919 84.6107 67.159V74.977C84.6107 76.591 84.0306 77.4485 82.6436 78.0033L85.8716 80.9287H82.0635L79.4407 78.5581L76.7927 78.7347H73.2872C72.6315 78.7347 71.9758 78.6338 71.3453 78.4572C69.2521 77.8772 68.2433 76.7928 68.2433 74.977H68.2938ZM71.8497 74.7752C71.8497 74.7752 71.8749 74.977 71.9254 75.1031C72.1271 76.011 72.9594 76.5154 74.2708 76.5154H77.2466L74.4977 74.0439H78.3058L80.7017 76.2127C81.1556 75.9858 81.433 75.6075 81.5339 75.1535C81.5591 75.0526 81.5591 74.9518 81.5591 74.8257V67.3355C81.5591 67.3355 81.5591 67.1338 81.5339 67.0329C81.3322 66.2007 80.4999 65.6963 79.2137 65.6963H74.2455C72.7828 65.6963 71.8497 66.3268 71.8497 67.3103V74.75V74.7752ZM104.156 59.8706C102.138 59.8202 100.6 59.9967 99.2631 60.5515C98.8848 60.7029 98.2795 60.7029 98.2291 61.182C98.4308 61.409 98.4561 61.7116 98.6326 61.989C98.9352 62.4934 99.4901 63.1744 99.944 63.5274C100.474 63.9309 101.003 64.3344 101.558 64.6875C102.542 65.2928 103.651 65.6458 104.61 66.2259C105.164 66.579 105.719 67.0329 106.274 67.4364C106.551 67.6382 106.728 67.9408 107.081 68.0669V68.0165C106.905 67.7895 106.854 67.4616 106.678 67.2094L105.921 66.4529C105.19 65.4945 104.257 64.6371 103.273 63.9309C102.491 63.3761 100.726 62.5943 100.398 61.6864L100.348 61.636C100.902 61.5603 101.558 61.3838 102.062 61.2325C102.92 61.0055 103.702 61.0559 104.584 60.829L105.795 60.4759V60.2489C105.341 59.795 105.013 59.1645 104.534 58.761C103.248 57.6765 101.835 56.5669 100.398 55.659C99.5909 55.1546 98.6074 54.8268 97.7499 54.398C97.4725 54.2467 96.9681 54.1711 96.7664 53.9441C96.3124 53.364 96.0854 52.6579 95.7324 52.0022C95.001 50.5647 94.2949 49.102 93.6644 47.6393C93.2357 46.6557 92.933 45.6722 92.4034 44.7643C89.8058 40.477 86.9813 37.8794 82.6436 35.3322C81.7104 34.8026 80.6008 34.5757 79.4155 34.2983L77.524 34.1722C77.1458 34.0208 76.7422 33.5417 76.364 33.3147C74.9265 32.4068 71.2192 30.4145 70.16 33.0373C69.4791 34.6765 71.1688 36.2906 71.774 37.1228C72.2028 37.7029 72.7324 38.3586 73.035 39.0143C73.2368 39.443 73.262 39.8717 73.4385 40.3257C73.8672 41.4605 74.2203 42.6711 74.7499 43.7051C75.0273 44.2347 75.33 44.7895 75.6578 45.2687C75.8596 45.5461 76.2379 45.6722 76.2883 46.1261C75.9352 46.6305 75.91 47.3871 75.7083 48.0176C74.8004 50.8421 75.1534 54.3728 76.4648 56.466C76.8683 57.1217 77.8015 58.4836 79.1129 57.954C80.2477 57.5 79.9955 56.0625 80.3234 54.8015C80.399 54.5241 80.3486 54.2972 80.4999 54.1206V54.1711L81.5339 56.239C82.2905 57.4748 83.6523 58.761 84.8124 59.6184C85.4177 60.0724 85.8716 60.8542 86.6534 61.1064V61.0559H86.603C86.4517 60.829 86.2247 60.7281 86.0229 60.5515C85.569 60.1228 85.0646 59.568 84.7115 59.0636C83.6523 57.6513 82.7444 56.0877 81.887 54.4737C81.4835 53.6919 81.1304 52.8597 80.8026 52.0526C80.6765 51.75 80.6765 51.2961 80.399 51.1447C80.0208 51.7248 79.4911 52.1787 79.1885 52.8597C78.7346 53.9441 78.6589 55.2807 78.5076 56.6425L78.3815 56.693C77.5745 56.4912 77.2971 55.6842 76.9944 54.9781C76.2379 53.1875 76.1118 50.3125 76.7675 48.2697C76.944 47.7401 77.7006 46.0504 77.3979 45.5713C77.2466 45.0921 76.7422 44.7895 76.4901 44.4112C76.137 43.9068 75.8091 43.3772 75.5822 42.7972C74.9769 41.4101 74.6743 39.8465 74.0438 38.4342C73.7411 37.7533 73.2115 37.0724 72.7828 36.4923C72.3036 35.8366 71.774 35.3322 71.3958 34.5504C71.2697 34.273 71.0931 33.8191 71.2697 33.5165C71.3201 33.3147 71.421 33.239 71.6227 33.1634C71.9506 32.9112 72.8837 33.239 73.2368 33.3904C74.1699 33.7686 74.9265 34.1469 75.7083 34.6513C76.0865 34.9035 76.4648 35.3827 76.9188 35.5088H77.4232C78.2302 35.6853 79.1381 35.5592 79.8947 35.7862C81.2313 36.1897 82.4166 36.8202 83.501 37.5011C86.8047 39.5943 89.5284 42.5702 91.3694 46.1261C91.6721 46.7062 91.7982 47.2358 92.0504 47.841C92.58 49.0515 93.2357 50.3125 93.7653 51.523C94.2949 52.7083 94.7993 53.9189 95.5558 54.9024C95.9341 55.432 97.4473 55.7094 98.1282 55.9869C98.6074 56.1886 99.3892 56.3904 99.8431 56.6678C100.701 57.1974 101.558 57.8279 102.365 58.3827C102.769 58.6601 104.03 59.2906 104.08 59.8202L104.156 59.8706ZM78.4824 37.9803C78.1293 37.9803 77.7762 38.0055 77.4484 38.1064V38.1568H77.4988C77.7006 38.5603 78.0536 38.8377 78.3058 39.1908L78.8859 40.4013L78.9363 40.3509C79.2894 40.0987 79.4659 39.6952 79.4407 39.0899C79.2894 38.9386 79.2642 38.7621 79.1633 38.5855C79.012 38.3333 78.6841 38.2072 78.4824 38.0055V37.9803Z" fill="#01628B"/>
</g>
</g>
</g>
<defs>
<clipPath id="clip0_103_2736">
<rect width="115" height="115" fill="white"/>
</clipPath>
</defs>
</svg>
