<svg width="116" height="115" viewBox="0 0 116 115" fill="none" xmlns="http://www.w3.org/2000/svg">
<g id="Asset 16 1" clip-path="url(#clip0_103_2786)">
<g id="Layer_1-2">
<g id="Group">
<path id="Vector" d="M20.5289 0H95.4456C98.1421 0 100.813 0.529605 103.306 1.58882C105.799 2.64803 108.063 4.1864 109.971 6.12829C111.879 8.07018 113.38 10.3651 114.423 12.9123C115.466 15.4594 115.975 18.1579 115.975 20.9068V94.1184C115.975 96.8673 115.44 99.591 114.423 102.113C113.38 104.66 111.879 106.955 109.971 108.897C108.063 110.839 105.799 112.377 103.306 113.411C100.813 114.47 98.1421 115 95.4456 115H20.5289C17.8325 115 15.1614 114.47 12.6684 113.411C10.1754 112.352 7.9114 110.814 6.00351 108.897C4.09561 106.955 2.59474 104.66 1.55175 102.113C0.534211 99.5658 0 96.8421 0 94.1184V20.8816C0 18.1327 0.534211 15.409 1.55175 12.8871C2.59474 10.3399 4.09561 8.04496 6.00351 6.10307C7.9114 4.16118 10.1754 2.62281 12.6684 1.5636C15.1614 0.529605 17.8325 0 20.5289 0Z" fill="white"/>
<path id="Vector_2" d="M98.4982 30.0613L62.2482 9.17973C59.9587 7.89354 56.9824 7.89354 54.6929 9.17973L18.0359 30.0613C15.6701 31.3979 14.0166 33.9451 14.0166 36.6435V78.331C14.0166 81.0295 15.721 83.5767 18.0868 84.9133L27.7789 90.3606C32.4087 92.6304 34.0368 92.6304 36.1482 92.6304C42.9912 92.6304 46.9087 88.5196 46.9087 81.3574V40.1995C46.9087 39.6194 46.6034 38.762 46.0184 38.762H41.3885C40.8034 38.762 39.4806 39.6194 39.4806 40.1995V81.3574C39.4806 84.535 36.5806 87.6874 31.1622 85.0142L21.1648 79.2894C20.8087 79.1128 20.5798 78.7346 20.5798 78.331V36.6435C20.5798 36.24 21.0377 35.8617 21.3938 35.66L57.9236 14.8036C58.2543 14.6019 58.7631 14.6019 59.1192 14.8036L95.1912 35.6348C95.5473 35.8365 95.4201 36.2148 95.4201 36.6183V78.331C95.4201 78.7346 95.5727 79.1128 95.242 79.3146L58.992 100.171C58.6868 100.347 58.3052 100.347 57.9491 100.171L48.664 94.6731C48.3841 94.5218 48.0534 94.4462 47.7736 94.5975C45.1789 96.0602 44.721 96.2367 42.2789 97.069C41.6938 97.2707 40.8034 97.6238 42.6096 98.6326L54.7692 105.77C55.9394 106.425 57.2368 106.778 58.585 106.778C59.9333 106.778 61.2561 106.425 62.4263 105.77L98.4982 84.9133C100.864 83.5514 101.983 81.0295 101.983 78.331V36.6435C101.983 33.9451 100.864 31.4231 98.4982 30.0613ZM69.8289 71.7236C60.1877 71.7236 58.0763 69.0756 57.364 64.3343C57.2877 63.8299 56.8552 63.1995 56.321 63.1995H51.6149C51.0298 63.1995 50.5719 63.9056 50.5719 64.4856C50.5719 70.5635 53.9043 77.9528 69.8543 77.9528C81.4035 77.9528 88.0175 73.5142 88.0175 65.6457C88.0175 57.7773 82.7008 55.785 71.5078 54.3223C60.1877 52.8343 59.0429 52.103 59.0429 49.4549C59.0429 47.2861 60.0096 44.4111 68.4043 44.4111C75.8833 44.4111 78.6561 45.9999 79.7754 50.9933C79.8771 51.4725 80.3096 51.8003 80.7929 51.8003H85.5245C85.8043 51.8003 86.0842 51.6742 86.2877 51.4725C86.4912 51.2455 86.5929 50.9681 86.5675 50.6655C85.8298 42.0405 80.0552 38.0306 68.3789 38.0306C57.9999 38.0306 51.7929 42.3683 51.7929 49.6567C51.7929 57.5503 57.9491 59.7444 67.921 60.728C79.8517 61.8881 80.7675 63.603 80.7675 65.9484C80.7675 69.9835 77.4859 71.6984 69.8289 71.6984V71.7236Z" fill="#87C540"/>
</g>
</g>
</g>
<defs>
<clipPath id="clip0_103_2786">
<rect width="116" height="115" fill="white"/>
</clipPath>
</defs>
</svg>
