<svg width="115" height="114" viewBox="0 0 115 114" fill="none" xmlns="http://www.w3.org/2000/svg">
<g id="Asset 10 1" clip-path="url(#clip0_103_2832)">
<g id="Layer_1-2">
<g id="Group">
<path id="Vector" d="M94.875 0H20.125C9.00329 0 0 8.925 0 19.95V94.05C0 105.075 9.00329 114 20.125 114H94.875C105.997 114 115 105.075 115 94.05V19.95C115 8.925 105.997 0 94.875 0Z" fill="#071F35"/>
<path id="Vector_2" d="M25.875 80.8249V32.5749C25.875 32.2249 26.0515 32.0499 26.4046 32.0499C30.1875 31.9499 35.0044 31.8999 40.83 31.8999C47.7149 31.8999 52.7336 33.4249 55.9364 36.4749C59.1645 39.5249 60.8037 43.2999 60.8037 47.7999C60.8037 53.3749 58.8114 57.5249 54.8268 60.2249C50.8421 62.9249 45.8235 64.2999 39.7961 64.2999H35.3827V80.7249C35.3827 81.1249 35.1809 81.3249 34.7774 81.3249H26.4803C26.0768 81.3249 25.875 81.1499 25.875 80.7999V80.8249ZM35.3575 39.0249V57.2249C36.0636 57.3249 37.6776 57.3749 40.2248 57.3749C43.5537 57.3749 46.2522 56.6499 48.295 55.2249C50.3882 53.7499 51.4221 51.3499 51.4221 48.0499C51.4221 45.1499 50.489 42.8999 48.648 41.3249C46.8575 39.7499 44.2346 38.9499 40.8048 38.9499C39.9474 38.9499 39.1151 38.9499 38.2577 39.0249H35.3322H35.3575Z" fill="#56A1D8"/>
<path id="Vector_3" d="M86.8554 53.825C84.0561 52.1 81.1559 51.225 78.1043 51.225C76.3642 51.225 75.0528 51.55 74.2206 52.175C73.4135 52.825 73.0352 53.575 73.0352 54.475C73.0352 55.375 73.3883 56.15 74.0692 56.85C74.7754 57.5 76.2381 58.25 78.4826 59.15C82.6186 60.725 85.5188 62.4 87.1581 64.175C88.8478 65.9 89.7052 68.15 89.7052 70.9C89.7052 74.25 88.419 76.975 85.8214 79.025C83.2743 81.05 79.8192 82.0499 75.4311 82.0499C71.0429 82.0499 67.4618 81.25 64.6624 79.675C64.3598 79.575 64.2085 79.325 64.2085 78.9249V72.0499C64.2085 71.85 64.2589 71.725 64.3598 71.675C64.5111 71.575 64.6372 71.575 64.7381 71.675C67.9662 74.05 71.4464 75.225 75.1285 75.225C76.8686 75.225 78.2052 74.9249 79.0879 74.325C80.0462 73.6749 80.5002 72.875 80.5002 71.875C80.5002 70.85 80.1219 69.9749 79.3905 69.2749C78.6339 68.5249 77.1712 67.75 74.9771 66.9C70.9925 65.375 68.1931 63.75 66.6043 62.025C65.066 60.25 64.2842 58.025 64.2842 55.375C64.2842 52.325 65.4442 49.75 67.7896 47.675C70.135 45.6 73.464 44.575 77.8017 44.575C81.8368 44.575 84.964 45.125 87.1328 46.2C87.385 46.35 87.5111 46.675 87.5111 47.15V53.3C87.5111 53.9 87.2842 54.05 86.8302 53.75L86.8554 53.825Z" fill="#56A1D8"/>
</g>
</g>
</g>
<defs>
<clipPath id="clip0_103_2832">
<rect width="115" height="114" fill="white"/>
</clipPath>
</defs>
</svg>
