<svg width="116" height="115" viewBox="0 0 116 115" fill="none" xmlns="http://www.w3.org/2000/svg">
<g id="Asset 22 1" clip-path="url(#clip0_103_2719)">
<g id="Layer_1-2">
<g id="Clip path group">
<mask id="mask0_103_2719" style="mask-type:luminance" maskUnits="userSpaceOnUse" x="0" y="0" width="116" height="115">
<g id="clippath">
<path id="Vector" d="M116 0H0V115H116V0Z" fill="white"/>
</g>
</mask>
<g mask="url(#mask0_103_2719)">
<g id="Group">
<g id="Group_2">
<path id="Vector_2" d="M20.5289 0H95.4456C98.1421 0 100.813 0.529605 103.306 1.58882C105.799 2.64803 108.063 4.1864 109.971 6.12829C111.879 8.07018 113.38 10.3651 114.423 12.9123C115.466 15.4594 115.975 18.1579 115.975 20.9068V94.1184C115.975 96.8673 115.44 99.591 114.423 102.113C113.38 104.66 111.879 106.955 109.971 108.897C108.063 110.839 105.799 112.377 103.306 113.411C100.813 114.47 98.1421 115 95.4456 115H20.5289C17.8325 115 15.1614 114.47 12.6684 113.411C10.1754 112.352 7.9114 110.814 6.00351 108.897C4.09561 106.955 2.59474 104.66 1.55175 102.113C0.534211 99.5658 0 96.8421 0 94.1184V20.8816C0 18.1327 0.534211 15.409 1.55175 12.8871C2.59474 10.3399 4.09561 8.04496 6.00351 6.10307C7.9114 4.16118 10.1754 2.62281 12.6684 1.5636C15.1614 0.529605 17.8325 0 20.5289 0Z" fill="white"/>
<g id="Clip path group_2">
<mask id="mask1_103_2719" style="mask-type:luminance" maskUnits="userSpaceOnUse" x="12" y="17" width="92" height="80">
<g id="clippath-1">
<path id="Vector_3" d="M103.255 17.8301H12.77V96.5899H103.255V17.8301Z" fill="white"/>
</g>
</mask>
<g mask="url(#mask1_103_2719)">
<g id="Group_3">
<g id="Group_4">
<path id="Vector_4" d="M57.9996 65.091C62.4513 65.091 66.0636 61.5603 66.0636 57.1974C66.0636 52.8344 62.4513 49.3037 57.9996 49.3037C53.5478 49.3037 49.9355 52.8344 49.9355 57.1974C49.9355 61.5603 53.5478 65.091 57.9996 65.091Z" fill="#70CFF0"/>
<path id="Vector_5" fill-rule="evenodd" clip-rule="evenodd" d="M19.384 52.2797C17.4252 54.0199 16.6112 55.6843 16.6112 57.1975C16.6112 58.7107 17.4252 60.4003 19.384 62.1153C21.3427 63.8554 24.2682 65.4946 28.0585 66.9069C35.6138 69.7315 46.1962 71.5221 57.9743 71.5221C69.7524 71.5221 80.3348 69.7315 87.8901 66.9069C91.6805 65.4946 94.6059 63.8554 96.5647 62.1153C98.5234 60.3751 99.3375 58.7107 99.3375 57.1975C99.3375 55.6843 98.5234 53.9946 96.5647 52.2797C94.6059 50.5396 91.6805 48.9003 87.8901 47.4881C80.3348 44.6635 69.7524 42.8729 57.9743 42.8729C46.1962 42.8729 35.6138 44.6635 28.0585 47.4881C24.2682 48.9003 21.3427 50.5396 19.384 52.2797ZM26.7103 44.0582C34.7997 41.0319 45.8655 39.1909 57.9743 39.1909C70.0831 39.1909 81.1489 41.0319 89.2383 44.0582C93.2831 45.5714 96.6918 47.4124 99.1085 49.556C101.525 51.6997 103.128 54.2721 103.128 57.2227C103.128 60.1734 101.525 62.7457 99.1085 64.8894C96.6918 67.033 93.2831 68.874 89.2383 70.3872C81.1489 73.4135 70.0831 75.2545 57.9743 75.2545C45.8655 75.2545 34.7997 73.4135 26.7103 70.3872C22.6655 68.874 19.2568 67.033 16.8401 64.8894C14.4234 62.7457 12.8208 60.1734 12.8208 57.2227C12.8208 54.2721 14.4234 51.6997 16.8401 49.556C19.2568 47.4124 22.6655 45.5714 26.7103 44.0582Z" fill="#70CFF0"/>
<path id="Vector_6" fill-rule="evenodd" clip-rule="evenodd" d="M43.042 22.0415C40.5236 21.2597 38.6411 21.3858 37.2929 22.1423C35.9446 22.8989 34.8762 24.4373 34.3166 26.9592C33.7569 29.4811 33.7824 32.7849 34.4183 36.7191C35.6903 44.5371 39.4043 54.3978 45.306 64.3847C51.2078 74.3715 58.0762 82.4417 64.3596 87.4351C67.5139 89.9318 70.4394 91.5963 72.9324 92.4033C75.4508 93.1851 77.3332 93.059 78.6815 92.3024C80.0297 91.5458 81.0981 90.0075 81.6578 87.4855C82.2174 84.9636 82.192 81.6599 81.5561 77.7257C80.2841 69.9077 76.5701 60.0469 70.6683 50.0601C64.7666 40.0733 57.8982 32.0031 51.6148 27.0097C48.4604 24.5129 45.535 22.8485 43.042 22.0415ZM54.006 24.1347C60.7218 29.4811 67.8701 37.9296 73.9499 48.1939C80.0043 58.4581 83.9218 68.7476 85.2955 77.1204C85.9824 81.3068 86.0587 85.1149 85.3718 88.2169C84.685 91.3441 83.2096 93.9921 80.5894 95.4548C77.9946 96.9175 74.8911 96.8671 71.7876 95.8836C68.6841 94.9 65.3517 92.9329 61.9938 90.2597C55.278 84.9132 48.1297 76.4647 42.0499 66.2004C35.9955 55.9362 32.078 45.6467 30.7043 37.2739C30.0174 33.0875 29.9411 29.2794 30.628 26.1774C31.3148 23.0502 32.7903 20.4022 35.4104 18.9395C38.0052 17.4768 41.1087 17.5272 44.2122 18.5108C47.3157 19.4943 50.6481 21.4614 54.006 24.1347Z" fill="#70CFF0"/>
<path id="Vector_7" fill-rule="evenodd" clip-rule="evenodd" d="M81.6578 26.9594C81.0982 24.4375 80.0298 22.8991 78.6815 22.1425C77.3333 21.3859 75.4508 21.2346 72.9324 22.0416C70.414 22.8234 67.514 24.5131 64.3596 27.0098C58.0763 32.0032 51.2078 40.0734 45.3061 50.0603C39.4043 60.0471 35.7157 69.9079 34.4184 77.7258C33.7824 81.6348 33.757 84.9638 34.3166 87.4857C34.8763 90.0076 35.9447 91.546 37.2929 92.3026C38.6412 93.0592 40.5236 93.2105 43.0421 92.4035C45.5605 91.6217 48.4605 89.932 51.6149 87.4353C57.8982 82.4418 64.7666 74.3717 70.6684 64.3848C76.5701 54.398 80.2587 44.5372 81.5561 36.7193C82.1921 32.8103 82.2175 29.4813 81.6578 26.9594ZM85.2701 37.2993C83.8964 45.6721 80.0043 55.9616 73.9245 66.2258C67.8701 76.4901 60.7219 84.9386 53.9807 90.285C50.6228 92.9583 47.2903 94.9254 44.1868 95.9089C41.0833 96.8925 38.0052 96.9429 35.385 95.4802C32.7903 94.0175 31.2894 91.3695 30.6026 88.2423C29.9157 85.1151 29.9921 81.307 30.6789 77.1458C32.0526 68.773 35.9447 58.4835 42.0245 48.2193C48.0789 37.955 55.2271 29.5065 61.9684 24.16C65.3263 21.4868 68.6587 19.5197 71.7622 18.5361C74.8657 17.5526 77.9438 17.5022 80.564 18.9649C83.1587 20.4276 84.6596 23.0756 85.3464 26.2028C86.0333 29.33 85.957 33.1381 85.2701 37.2993Z" fill="#70CFF0"/>
</g>
</g>
</g>
</g>
</g>
</g>
</g>
</g>
</g>
</g>
<defs>
<clipPath id="clip0_103_2719">
<rect width="116" height="115" fill="white"/>
</clipPath>
</defs>
</svg>
