<svg width="190" height="94" viewBox="0 0 190 94" fill="none" xmlns="http://www.w3.org/2000/svg">
<g clip-path="url(#clip0_150_18037)">
<path d="M95.4999 39.9859C99.1694 39.9859 102.144 37.011 102.144 33.3412C102.144 29.6715 99.1694 26.6965 95.4999 26.6965C91.8304 26.6965 88.8557 29.6715 88.8557 33.3412C88.8557 37.011 91.8304 39.9859 95.4999 39.9859Z" fill="#00D8FF"/>
<path d="M95.5 48.886C86.1525 48.886 77.9602 47.7779 71.815 45.6875C63.2926 42.7679 58 38.0408 58 33.3412C58 28.8184 62.8997 24.4056 71.1116 21.5332C77.7912 19.2109 86.4354 17.9338 95.5 17.9338C104.38 17.9338 112.926 19.1873 119.558 21.4703C127.975 24.3781 133 28.8184 133 33.3529C133 38.0683 127.523 42.7836 118.702 45.715C112.525 47.7543 104.282 48.886 95.5 48.886ZM95.5 21.7533C86.9855 21.7533 78.5535 22.9871 72.369 25.1404C65.1236 27.6749 61.8192 31.1721 61.8192 33.3412C61.8192 35.7696 65.6776 39.5457 73.0487 42.0684C78.801 44.0332 86.5651 45.0627 95.5 45.0627C103.885 45.0627 111.7 44.0017 117.503 42.0763C125.527 39.4239 129.177 35.691 129.177 33.3412C129.177 31.1643 125.778 27.6513 118.313 25.0893C112.073 22.9321 103.971 21.7533 95.5 21.7533Z" fill="#00D8FF"/>
<path d="M80.4317 66.8004C79.1306 66.8288 77.8453 66.5116 76.7069 65.8809C72.7777 63.6215 71.4025 57.1654 73.0292 48.6189C74.3494 41.6952 77.5674 33.5534 82.0898 25.6906C86.5495 17.9693 91.9128 11.1949 97.1818 6.60928C103.901 0.750494 110.258 -1.37533 114.187 0.884095C118.258 3.24176 119.625 10.3501 117.763 19.4428C116.447 25.836 113.303 33.5416 108.914 41.1412C104.231 49.2437 99.1778 55.798 94.2978 60.0614C89.3077 64.4427 84.3255 66.8004 80.4317 66.8004ZM85.4021 27.5886C81.1468 34.972 78.0074 42.9016 76.7815 49.3183C75.3474 56.8589 76.7265 61.4682 78.6125 62.5527C80.7186 63.7708 85.9208 62.3091 91.7831 57.1811C96.3488 53.181 101.127 46.9646 105.602 39.2275C109.79 31.9738 112.781 24.6886 114.014 18.6687C115.708 10.4169 114.297 5.36365 112.27 4.18875C110.388 3.10423 105.645 4.29485 99.6965 9.47384C94.7378 13.7962 89.6614 20.2209 85.4061 27.5846L85.4021 27.5886Z" fill="#00D8FF"/>
<path d="M110.572 66.8004C106.883 66.8004 102.239 64.5999 97.4293 60.4583C92.1053 55.8765 86.6634 49.0275 82.1056 41.1726C77.6459 33.4591 74.4555 25.4352 73.1117 18.5665C71.4064 9.82746 72.7188 3.24172 76.6479 0.978368C80.7303 -1.37929 87.571 0.978368 94.506 7.14758C99.386 11.47 104.49 18.0478 108.883 25.6474C113.598 33.7735 116.741 41.4201 117.971 47.7583C119.719 56.5956 118.277 63.5468 114.203 65.8887C113.094 66.5075 111.842 66.822 110.572 66.8004ZM85.4257 39.255C89.7085 46.6424 94.9972 53.3145 99.9361 57.5623C105.743 62.5684 110.435 63.6765 112.321 62.5802C114.423 61.3699 115.759 56.1437 114.246 48.501C113.067 42.5715 110.093 35.3295 105.602 27.5649C101.413 20.3073 96.5649 14.0752 91.9953 10.0082C85.9561 4.64453 80.6793 3.07669 78.5772 4.28695C76.6912 5.37934 75.3513 10.0868 76.8601 17.8357C78.1253 24.2956 81.1822 31.903 85.4139 39.255H85.4257Z" fill="#00D8FF"/>
<path d="M79.6105 93.6894L75.1391 87.0565C77.418 86.8482 79.3865 85.19 79.3865 82.2901C79.3865 79.2841 77.2098 77.3154 74.31 77.3154H67.7837V93.6855H69.8544V87.1587H73.0645L77.2137 93.6894H79.6105ZM74.1097 85.5004H69.8544V79.2841H74.1097C76.0742 79.2841 77.3198 80.5258 77.3198 82.3923C77.3198 84.2587 75.9721 85.5004 74.1097 85.5004ZM87.1663 93.9959C89.1361 93.9959 90.6908 93.3737 91.8302 92.1294L90.899 90.8877C89.9234 91.8302 88.617 92.3522 87.2606 92.3416C84.6713 92.3416 83.1153 90.4751 83.0132 88.196H92.6514V87.6774C92.6514 84.1409 90.5807 81.3549 86.9541 81.3549C83.5357 81.3549 81.1507 84.1527 81.1507 87.5713C81.1507 91.5007 83.6379 93.9959 87.1584 93.9959H87.1663ZM90.8951 87.0526H83.1192C83.2214 85.1861 84.4669 83.1231 86.9541 83.1231C87.4736 83.1124 87.9898 83.2069 88.4718 83.4007C88.9538 83.5946 89.3917 83.884 89.7591 84.2514C90.1264 84.6188 90.4158 85.0566 90.6096 85.5387C90.8035 86.0208 90.8979 86.537 90.8872 87.0565L90.8951 87.0526ZM104.883 93.6855V85.6065C104.883 82.7066 102.812 81.5671 100.325 81.5671C99.4367 81.5374 98.5522 81.6972 97.7304 82.036C96.9086 82.3747 96.1684 82.8847 95.559 83.5318L96.388 84.7735C96.8298 84.2432 97.3851 83.8188 98.0128 83.5318C98.6405 83.2448 99.3246 83.1025 100.015 83.1153C101.775 83.1153 103.02 84.0466 103.02 85.6026V87.7795C102.089 86.64 100.742 86.1213 99.0913 86.1213C97.1267 86.1213 94.946 87.363 94.946 90.0507C94.946 92.6402 97.1228 93.9802 99.0913 93.9802C99.827 94.0032 100.559 93.867 101.237 93.5808C101.915 93.2946 102.524 92.8652 103.02 92.322V93.6698L104.883 93.6855ZM99.8064 92.7542C98.0462 92.7542 96.9067 91.7168 96.9067 90.1647C96.9067 88.6126 98.1483 87.5752 99.8064 87.5752C101.154 87.5752 102.396 88.0939 103.017 89.0252V91.3042C102.396 92.2355 101.052 92.7542 99.8064 92.7542ZM113.794 93.9959C114.633 94.0276 115.467 93.8559 116.225 93.4953C116.983 93.1347 117.643 92.5959 118.148 91.9251L116.906 90.7855C116.57 91.2717 116.121 91.6689 115.597 91.9427C115.074 92.2165 114.491 92.3588 113.9 92.3573C111.413 92.3573 109.861 90.3926 109.861 87.7992C109.861 85.2057 111.433 83.241 113.9 83.241C114.493 83.2276 115.08 83.3647 115.606 83.6395C116.131 83.9144 116.579 84.3181 116.906 84.8128L118.148 83.6733C117.647 82.9952 116.99 82.4489 116.231 82.0813C115.473 81.7137 114.637 81.5359 113.794 81.5632C110.258 81.5632 107.901 84.2587 107.901 87.7795C107.901 91.3003 110.282 93.9959 113.794 93.9959ZM123.739 93.9959C124.532 94.0493 125.314 93.7881 125.916 93.2689L125.397 91.9211C125.241 92.0941 125.049 92.2304 124.835 92.3201C124.62 92.4098 124.388 92.4507 124.155 92.4398C123.326 92.4398 122.914 91.819 122.914 90.8681V83.5318H125.299V81.8736H122.914V78.6632H121.048V81.8736H119.083V83.5318H121.048V91.3042C121.048 93.0646 121.979 93.9998 123.743 93.9998L123.739 93.9959Z" fill="#00D8FF"/>
</g>
<defs>
<clipPath id="clip0_150_18037">
<rect width="75" height="94" fill="white" transform="translate(58)"/>
</clipPath>
</defs>
</svg>
