<svg width="190" height="94" viewBox="0 0 190 94" fill="none" xmlns="http://www.w3.org/2000/svg">
<g clip-path="url(#clip0_150_18080)">
<path d="M71.6403 71.9342C71.3696 71.9342 71.1 72.0118 70.8658 72.1666C70.6316 72.3214 70.4168 72.5883 70.4168 72.9311C70.4168 72.9761 70.3903 73.0773 70.4785 73.2538L70.4556 73.1978L75.163 88.4706C75.2473 88.7572 75.4496 88.9761 75.6765 89.1017C75.9035 89.2274 76.1532 89.2753 76.3951 89.2753C76.9095 89.2753 77.4744 89.0298 77.6473 88.4764V88.4749L82.3505 73.1448V73.0889C82.3505 73.1662 82.3734 73.1215 82.3734 72.9541C82.3734 72.6055 82.1508 72.3492 81.913 72.1881C81.6752 72.027 81.3952 71.9342 81.104 71.9342C80.7449 71.9342 80.3318 72.1527 80.1933 72.5682L80.1904 72.5725L76.3937 85.2434L72.5827 72.5953C72.5262 72.3693 72.374 72.18 72.1969 72.0747C72.0198 71.9693 71.8265 71.9342 71.6403 71.9342ZM109.134 72.7217C108.384 72.7217 107.753 73.2957 107.753 74.014C107.753 74.7323 108.375 75.3264 109.134 75.3264C109.879 75.3264 110.471 74.7212 110.471 74.014C110.471 73.3069 109.868 72.7217 109.134 72.7217ZM98.0969 77.6113C95.5351 77.6113 93.4253 79.6613 93.4253 82.1251V84.6495C93.4253 86.0295 93.9752 87.2122 94.9084 88.0288C95.8417 88.8454 97.1443 89.2968 98.6376 89.2968C99.7407 89.2968 100.64 89.0499 101.283 88.7145C101.604 88.5468 101.862 88.3587 102.053 88.1537C102.243 87.9486 102.384 87.7242 102.384 87.4437C102.384 87.1861 102.285 86.9629 102.124 86.7624C101.964 86.5619 101.711 86.378 101.386 86.378C101.151 86.378 100.97 86.4769 100.813 86.573C100.657 86.6691 100.51 86.7753 100.333 86.8771C99.9791 87.0808 99.5102 87.2787 98.6821 87.2787C97.7602 87.2787 96.9914 87.0158 96.4618 86.5745C95.9322 86.1331 95.6242 85.5204 95.6242 84.717V84.2494H100.35C100.854 84.2494 101.415 84.2502 101.899 83.941C102.384 83.6316 102.678 83.0166 102.678 82.0807C102.678 79.489 100.516 77.6113 98.0969 77.6113ZM115.859 77.6113C114.497 77.6113 113.495 78.0519 112.852 78.7143C112.209 79.3767 111.931 80.2384 111.931 81.0437C111.931 82.0699 112.346 82.8054 112.94 83.2769C113.533 83.7485 114.272 83.9858 114.975 84.1978C115.678 84.4098 116.351 84.5979 116.802 84.8762C117.254 85.1545 117.496 85.4555 117.496 86.0911C117.496 86.4322 117.394 86.7038 117.116 86.9258C116.839 87.1479 116.346 87.3231 115.543 87.3231C114.593 87.3231 114.062 87.0888 113.675 86.8498C113.482 86.7303 113.326 86.6063 113.166 86.4955C113.006 86.3848 112.824 86.2646 112.57 86.2646C112.263 86.2646 112.037 86.4535 111.9 86.649C111.762 86.8446 111.683 87.0667 111.683 87.3074C111.683 87.6049 111.828 87.8665 112.033 88.0934C112.238 88.3203 112.516 88.5222 112.856 88.6987C113.537 89.0515 114.475 89.2968 115.589 89.2968C116.798 89.2968 117.792 89.0016 118.496 88.429C119.2 87.8564 119.583 87.0051 119.583 86.0237C119.583 84.915 119.18 84.1179 118.587 83.591C117.993 83.0642 117.243 82.7926 116.53 82.5741C115.817 82.3555 115.13 82.1854 114.671 81.9458C114.212 81.7063 113.995 81.4853 113.995 80.9762C113.995 80.7009 114.105 80.3545 114.385 80.0813C114.665 79.8079 115.122 79.5864 115.881 79.5864C116.488 79.5864 116.939 79.7257 117.3 79.8733C117.48 79.9471 117.637 80.0241 117.786 80.0884C117.935 80.1527 118.072 80.2161 118.27 80.2161C118.626 80.2161 118.87 79.9811 119.015 79.7628C119.161 79.5446 119.245 79.3293 119.245 79.083C119.245 78.7744 119.053 78.5557 118.84 78.3916C118.628 78.2276 118.362 78.0973 118.053 77.9843C117.436 77.7581 116.648 77.6113 115.859 77.6113ZM83.651 77.7476C83.0554 77.7476 82.5409 78.121 82.5409 78.677V84.694C82.5409 87.1349 84.6161 89.2968 87.1895 89.2968C89.7196 89.2968 91.8382 87.1603 91.8382 84.694V78.6555C91.8382 78.3773 91.6851 78.1359 91.4839 77.9828C91.2828 77.8298 91.0271 77.7476 90.7496 77.7476C90.472 77.7476 90.2149 77.8287 90.0095 77.9785C89.804 78.1284 89.6394 78.3678 89.6394 78.6555V84.694C89.6394 85.9735 88.5244 87.2112 87.1896 87.2112C85.8326 87.2112 84.7398 85.9515 84.7398 84.694V78.677C84.7398 78.3888 84.5824 78.1666 84.3869 78.0086C84.1915 77.8506 83.9362 77.7476 83.651 77.7476ZM109.135 77.7476C108.856 77.7476 108.598 77.8192 108.393 77.9742C108.188 78.1291 108.047 78.3841 108.047 78.6555V89.7416C108.047 90.5735 107.989 91.2713 107.806 91.6937C107.624 92.1161 107.408 92.3033 106.792 92.3033C106.248 92.3033 105.794 92.7787 105.794 93.3475C105.794 93.5839 105.87 93.8434 106.064 94.046C106.257 94.2486 106.557 94.3673 106.904 94.3673C108.075 94.3673 108.971 93.8482 109.505 93.0047C110.038 92.1613 110.246 91.033 110.246 89.7416V78.6554C110.246 78.3666 110.081 78.1152 109.872 77.967C109.662 77.8187 109.405 77.7476 109.135 77.7476ZM98.0742 79.5634C99.5365 79.5634 100.524 80.7877 100.524 82.0348C100.524 82.1706 100.509 82.2596 100.495 82.3001C100.481 82.3406 100.483 82.3354 100.462 82.3489C100.422 82.3759 100.196 82.4335 99.7638 82.4335H95.6243V81.9444C95.6243 80.6393 96.7145 79.5634 98.0742 79.5634ZM105.059 86.4453C104.261 86.4453 103.655 87.1063 103.655 87.8711C103.655 88.6057 104.251 89.2753 105.059 89.2753C105.825 89.2753 106.441 88.626 106.441 87.8711C106.441 87.0875 105.814 86.4453 105.059 86.4453Z" fill="#35495E"/>
<path d="M71.0623 0.289062L85.5508 0.294542L95.0217 16.0151L104.459 0.295802L118.935 0.29196L95.0941 41.6468L71.0623 0.289062Z" fill="#35495E"/>
<path d="M55.261 0.399765L71.0496 0.291992L95.0802 41.6487L118.922 0.294512L134.739 0.311078L95.0776 68.376L55.261 0.399765Z" fill="#41B883"/>
</g>
<defs>
<clipPath id="clip0_150_18080">
<rect width="94" height="94" fill="white" transform="translate(48)"/>
</clipPath>
</defs>
</svg>
